{
.appVersion = "1286";
classes = (
{
automatic = 1;
code = "A Aacute Abreve Abreveacute Abrevedotbelow Abrevegrave Abrevehookabove Abrevetilde Acaron Acircumflex Acircumflexacute Acircumflexdotbelow Acircumflexgrave Acircumflexhookabove Acircumflextilde Adieresis Adotbelow Agrave Ahookabove Amacron Aogonek Aring Aringacute Atilde AE AEacute B C Cacute Ccaron Ccedilla Cdotaccent D Eth Dcaron Dcroat E Eacute Ecaron Ecircumflex Ecircumflexacute Ecircumflexdotbelow Ecircumflexgrave Ecircumflexhookabove Ecircumflextilde Edieresis Edotaccent Edotbelow Egrave Ehookabove Emacron Eogonek Etilde F G Gbreve Gcommaaccent Gdotaccent H Hbar I IJ Iacute Icaron Icircumflex Idieresis Idotaccent Idotbelow Igrave Ihookabove Imacron Iogonek Itilde J K Kcommaaccent L Lacute Lcaron Lcommaaccent Ldot Lslash M N Nacute Ncaron Ncommaaccent Eng Ntilde O Oacute Ocaron Ocircumflex Ocircumflexacute Ocircumflexdotbelow Ocircumflexgrave Ocircumflexhookabove Ocircumflextilde Odieresis Odotbelow Ograve Ohookabove Ohorn Ohornacute Ohorndotbelow Ohorngrave Ohornhookabove Ohorntilde Ohungarumlaut Omacron Oslash Oslashacute Otilde OE P Thorn Q R Racute Rcaron Rcommaaccent S Sacute Scaron Scedilla Scommaaccent Germandbls T Tbar Tcaron Tcedilla Tcommaaccent U Uacute Ubreve Ucaron Ucircumflex Udieresis Udieresisacute Udieresiscaron Udieresisgrave Udieresismacron Udotbelow Ugrave Uhookabove Uhorn Uhornacute Uhorndotbelow Uhorngrave Uhornhookabove Uhorntilde Uhungarumlaut Umacron Uogonek Uring Utilde V W Wacute Wcircumflex Wdieresis Wgrave X Y Yacute Ycircumflex Ydieresis Ydotbelow Ygrave Yhookabove Ytilde Z Zacute Zcaron Zdotaccent B.ss02 D.ss02 Eth.ss02 Dcaron.ss02 Dcroat.ss02 IJ.ss02 J.ss02 I.ss03 Iacute.ss03 Icaron.ss03 Icircumflex.ss03 Idieresis.ss03 Idotaccent.ss03 Idotbelow.ss03 Igrave.ss03 Ihookabove.ss03 Imacron.ss03 Iogonek.ss03 Itilde.ss03";
name = Uppercase;
}
);
copyright = "Copyright 2020 The Space Grotesk Project Authors (https://github.com/floriankarsten/space-grotesk)";

glyphs = (
{
glyphname = A;
lastChange = "2020-06-02 09:56:25 +0000";
layers = (
{
anchors = (
{
name = bottom;
position = "{317, 0}";
},
{
name = ogonek;
position = "{551, 0}";
},
{
name = top;
position = "{317, 700}";
}
);
layerId = "5117E3E8-E17C-4812-BAF5-9E7064564A59";
paths = (
{
closed = 1;
nodes = (
"18 0 LINE",
"154 0 LINE",
"192 154 LINE",
"442 154 LINE",
"480 0 LINE",
"616 0 LINE",
"432 700 LINE",
"202 700 LINE"
);
},
{
closed = 1;
nodes = (
"308 617 LINE",
"326 617 LINE",
"411 276 LINE",
"223 276 LINE"
);
}
);
width = 634;
},
{
anchors = (
{
name = bottom;
position = "{314, 0}";
},
{
name = ogonek;
position = "{567, 0}";
},
{
name = top;
position = "{314, 700}";
}
);
layerId = "CEFBB1E5-951F-4065-926E-8B9137F837F5";
paths = (
{
closed = 1;
nodes = (
"28 0 LINE",
"95 0 LINE",
"155 186 LINE",
"473 186 LINE",
"533 0 LINE",
"600 0 LINE",
"371 700 LINE",
"257 700 LINE"
);
},
{
closed = 1;
nodes = (
"308 662 LINE",
"320 662 LINE",
"455 244 LINE",
"173 244 LINE"
);
}
);
width = 628;
}
);
leftKerningGroup = A;
note = A;
rightKerningGroup = A;
unicode = 0041;
},
{
glyphname = AE;
lastChange = "2020-06-02 13:16:09 +0000";
layers = (
{
anchors = (
{
name = top;
position = "{425, 700}";
}
);
layerId = "5117E3E8-E17C-4812-BAF5-9E7064564A59";
paths = (
{
closed = 1;
nodes = (
"375 276 LINE",
"242 276 LINE",
"357 630 LINE",
"375 630 LINE",
"375 700 LINE",
"252 700 LINE",
"18 0 LINE",
"153 0 LINE",
"203 154 LINE",
"375 154 LINE"
);
},
{
closed = 1;
nodes = (
"375 0 LINE",
"789 0 LINE",
"789 120 LINE",
"505 120 LINE",
"505 293 LINE",
"755 293 LINE",
"755 413 LINE",
"505 413 LINE",
"505 580 LINE",
"783 580 LINE",
"783 700 LINE",
"375 700 LINE"
);
}
);
width = 821;
},
{
anchors = (
{
name = top;
position = "{430, 700}";
}
);
layerId = "CEFBB1E5-951F-4065-926E-8B9137F837F5";
paths = (
{
closed = 1;
nodes = (
"394 244 LINE",
"203 244 LINE",
"383 662 LINE",
"394 662 LINE",
"394 700 LINE",
"334 700 LINE",
"28 0 LINE",
"98 0 LINE",
"178 186 LINE",
"394 186 LINE"
);
},
{
closed = 1;
nodes = (
"394 0 LINE",
"781 0 LINE",
"781 58 LINE",
"458 58 LINE",
"458 322 LINE",
"749 322 LINE",
"749 380 LINE",
"458 380 LINE",
"458 642 LINE",
"777 642 LINE",
"777 700 LINE",
"394 700 LINE"
);
}
);
width = 835;
}
);
leftKerningGroup = A;
leftMetricsKey = A;
note = AE;
rightKerningGroup = E;
rightMetricsKey = E;
unicode = 00C6;
},
{
glyphname = B;
lastChange = "2020-05-17 11:12:44 +0000";
layers = (
{
layerId = "5117E3E8-E17C-4812-BAF5-9E7064564A59";
paths = (
{
closed = 1;
nodes = (
"410 0 LINE SMOOTH",
"535 0 OFFCURVE",
"622 68 OFFCURVE",
"622 185 CURVE SMOOTH",
"622 195 LINE SMOOTH",
"622 295 OFFCURVE",
"555 334 OFFCURVE",
"511 346 CURVE",
"511 364 LINE",
"554 377 OFFCURVE",
"618 416 OFFCURVE",
"618 513 CURVE SMOOTH",
"618 523 LINE SMOOTH",
"618 632 OFFCURVE",
"534 700 OFFCURVE",
"406 700 CURVE SMOOTH",
"46 700 LINE",
"46 584 LINE",
"138 584 LINE",
"138 116 LINE",
"46 116 LINE",
"46 0 LINE"
);
},
{
closed = 1;
nodes = (
"270 292 LINE",
"394 292 LINE SMOOTH",
"452 292 OFFCURVE",
"490 263 OFFCURVE",
"490 211 CURVE SMOOTH",
"490 201 LINE SMOOTH",
"490 149 OFFCURVE",
"451 120 OFFCURVE",
"394 120 CURVE SMOOTH",
"270 120 LINE"
);
},
{
closed = 1;
nodes = (
"270 580 LINE",
"392 580 LINE SMOOTH",
"448 580 OFFCURVE",
"486 551 OFFCURVE",
"486 501 CURVE SMOOTH",
"486 491 LINE SMOOTH",
"486 441 OFFCURVE",
"447 412 OFFCURVE",
"392 412 CURVE SMOOTH",
"270 412 LINE"
);
}
);
width = 664;
},
{
layerId = "CEFBB1E5-951F-4065-926E-8B9137F837F5";
paths = (
{
closed = 1;
nodes = (
"392 0 LINE SMOOTH",
"511 0 OFFCURVE",
"602 68 OFFCURVE",
"602 182 CURVE SMOOTH",
"602 192 LINE SMOOTH",
"602 290 OFFCURVE",
"536 335 OFFCURVE",
"484 348 CURVE",
"484 360 LINE",
"535 375 OFFCURVE",
"602 419 OFFCURVE",
"602 517 CURVE SMOOTH",
"602 525 LINE SMOOTH",
"602 629 OFFCURVE",
"515 700 OFFCURVE",
"395 700 CURVE SMOOTH",
"48 700 LINE",
"48 642 LINE",
"148 642 LINE",
"148 58 LINE",
"48 58 LINE",
"48 0 LINE"
);
},
{
closed = 1;
nodes = (
"212 324 LINE",
"386 324 LINE SMOOTH",
"486 324 OFFCURVE",
"538 274 OFFCURVE",
"538 195 CURVE SMOOTH",
"538 187 LINE SMOOTH",
"538 108 OFFCURVE",
"486 58 OFFCURVE",
"386 58 CURVE SMOOTH",
"212 58 LINE"
);
},
{
closed = 1;
nodes = (
"212 642 LINE",
"390 642 LINE SMOOTH",
"482 642 OFFCURVE",
"538 592 OFFCURVE",
"538 517 CURVE SMOOTH",
"538 507 LINE SMOOTH",
"538 432 OFFCURVE",
"482 382 OFFCURVE",
"390 382 CURVE SMOOTH",
"212 382 LINE"
);
}
);
width = 660;
}
);
leftKerningGroup = Serif;
leftMetricsKey = I.ss03;
note = B.alt;
rightKerningGroup = B;
unicode = 0042;
},
{
glyphname = C;
lastChange = "2020-06-01 20:41:08 +0000";
layers = (
{
anchors = (
{
name = bottom;
position = "{332, 0}";
},
{
name = top;
position = "{332, 700}";
}
);
layerId = "5117E3E8-E17C-4812-BAF5-9E7064564A59";
paths = (
{
closed = 1;
nodes = (
"50 86 OFFCURVE",
"158 -14 OFFCURVE",
"332 -14 CURVE SMOOTH",
"504 -14 OFFCURVE",
"602 86 OFFCURVE",
"602 250 CURVE SMOOTH",
"602 264 LINE",
"472 264 LINE",
"472 246 LINE SMOOTH",
"472 164 OFFCURVE",
"426 104 OFFCURVE",
"332 104 CURVE SMOOTH",
"238 104 OFFCURVE",
"182 166 OFFCURVE",
"182 264 CURVE SMOOTH",
"182 436 LINE SMOOTH",
"182 534 OFFCURVE",
"238 596 OFFCURVE",
"332 596 CURVE SMOOTH",
"426 596 OFFCURVE",
"472 536 OFFCURVE",
"472 454 CURVE SMOOTH",
"472 444 LINE",
"602 444 LINE",
"602 450 LINE SMOOTH",
"602 614 OFFCURVE",
"504 714 OFFCURVE",
"332 714 CURVE SMOOTH",
"158 714 OFFCURVE",
"50 614 OFFCURVE",
"50 434 CURVE SMOOTH",
"50 266 LINE SMOOTH"
);
}
);
width = 644;
},
{
anchors = (
{
name = bottom;
position = "{331, 0}";
},
{
name = top;
position = "{334, 700}";
}
);
layerId = "CEFBB1E5-951F-4065-926E-8B9137F837F5";
paths = (
{
closed = 1;
nodes = (
"64 84 OFFCURVE",
"170 -14 OFFCURVE",
"334 -14 CURVE SMOOTH",
"496 -14 OFFCURVE",
"585 84 OFFCURVE",
"585 241 CURVE SMOOTH",
"585 254 LINE",
"521 254 LINE",
"521 239 LINE SMOOTH",
"521 124 OFFCURVE",
"462 44 OFFCURVE",
"334 44 CURVE SMOOTH",
"204 44 OFFCURVE",
"128 126 OFFCURVE",
"128 269 CURVE SMOOTH",
"128 431 LINE SMOOTH",
"128 574 OFFCURVE",
"204 656 OFFCURVE",
"334 656 CURVE SMOOTH",
"462 656 OFFCURVE",
"521 576 OFFCURVE",
"521 461 CURVE SMOOTH",
"521 454 LINE",
"585 454 LINE",
"585 459 LINE SMOOTH",
"585 616 OFFCURVE",
"496 714 OFFCURVE",
"334 714 CURVE SMOOTH",
"170 714 OFFCURVE",
"64 616 OFFCURVE",
"64 429 CURVE SMOOTH",
"64 271 LINE SMOOTH"
);
}
);
width = 641;
}
);
leftKerningGroup = O;
leftMetricsKey = O;
note = C;
rightKerningGroup = O;
rightMetricsKey = "=O-8";
unicode = 0043;
},
{
glyphname = D;
lastChange = "2020-05-16 12:15:13 +0000";
layers = (
{
anchors = (
{
name = stroke;
position = "{138, 496}";
},
{
name = top;
position = "{320, 700}";
}
);
layerId = "5117E3E8-E17C-4812-BAF5-9E7064564A59";
paths = (
{
closed = 1;
nodes = (
"46 584 LINE",
"138 584 LINE",
"138 116 LINE",
"46 116 LINE",
"46 0 LINE",
"334 0 LINE SMOOTH",
"522 0 OFFCURVE",
"622 96 OFFCURVE",
"622 284 CURVE SMOOTH",
"622 416 LINE SMOOTH",
"622 604 OFFCURVE",
"522 700 OFFCURVE",
"334 700 CURVE SMOOTH",
"46 700 LINE"
);
},
{
closed = 1;
nodes = (
"336 580 LINE SMOOTH",
"442 580 OFFCURVE",
"490 522 OFFCURVE",
"490 420 CURVE SMOOTH",
"490 280 LINE SMOOTH",
"490 178 OFFCURVE",
"442 120 OFFCURVE",
"336 120 CURVE SMOOTH",
"270 120 LINE",
"270 580 LINE"
);
}
);
width = 666;
},
{
anchors = (
{
name = stroke;
position = "{148, 486}";
},
{
name = top;
position = "{317, 700}";
}
);
layerId = "CEFBB1E5-951F-4065-926E-8B9137F837F5";
paths = (
{
closed = 1;
nodes = (
"48 642 LINE",
"148 642 LINE",
"148 58 LINE",
"48 58 LINE",
"48 0 LINE",
"314 0 LINE SMOOTH",
"496 0 OFFCURVE",
"604 89 OFFCURVE",
"604 285 CURVE SMOOTH",
"604 414 LINE SMOOTH",
"604 610 OFFCURVE",
"496 700 OFFCURVE",
"314 700 CURVE SMOOTH",
"48 700 LINE"
);
},
{
closed = 1;
nodes = (
"314 641 LINE SMOOTH",
"460 641 OFFCURVE",
"540 575 OFFCURVE",
"540 417 CURVE SMOOTH",
"540 282 LINE SMOOTH",
"540 124 OFFCURVE",
"460 58 OFFCURVE",
"314 58 CURVE SMOOTH",
"212 58 LINE",
"212 641 LINE"
);
}
);
width = 662;
}
);
leftKerningGroup = Serif;
leftMetricsKey = I.ss03;
note = D.alt;
rightKerningGroup = O;
rightMetricsKey = "=O-6";
unicode = 0044;
},
{
glyphname = E;
lastChange = "2020-05-16 12:02:19 +0000";
layers = (
{
anchors = (
{
name = bottom;
position = "{294, 0}";
},
{
name = ogonek;
position = "{426, 0}";
},
{
name = top;
position = "{296, 700}";
}
);
layerId = "5117E3E8-E17C-4812-BAF5-9E7064564A59";
paths = (
{
closed = 1;
nodes = (
"66 0 LINE",
"522 0 LINE",
"522 120 LINE",
"198 120 LINE",
"198 293 LINE",
"488 293 LINE",
"488 413 LINE",
"198 413 LINE",
"198 580 LINE",
"516 580 LINE",
"516 700 LINE",
"66 700 LINE"
);
}
);
width = 554;
},
{
anchors = (
{
name = bottom;
position = "{299, 0}";
},
{
name = ogonek;
position = "{439, 0}";
},
{
name = top;
position = "{304, 700}";
}
);
layerId = "CEFBB1E5-951F-4065-926E-8B9137F837F5";
paths = (
{
closed = 1;
nodes = (
"86 0 LINE",
"513 0 LINE",
"513 58 LINE",
"150 58 LINE",
"150 322 LINE",
"481 322 LINE",
"481 380 LINE",
"150 380 LINE",
"150 642 LINE",
"509 642 LINE",
"509 700 LINE",
"86 700 LINE"
);
}
);
width = 567;
}
);
leftKerningGroup = H;
leftMetricsKey = I;
note = E;
rightKerningGroup = E;
unicode = 0045;
},
{
glyphname = F;
lastChange = "2020-05-16 12:02:19 +0000";
layers = (
{
layerId = "5117E3E8-E17C-4812-BAF5-9E7064564A59";
paths = (
{
closed = 1;
nodes = (
"66 0 LINE",
"198 0 LINE",
"198 291 LINE",
"482 291 LINE",
"482 411 LINE",
"198 411 LINE",
"198 580 LINE",
"506 580 LINE",
"506 700 LINE",
"66 700 LINE"
);
}
);
width = 534;
},
{
layerId = "CEFBB1E5-951F-4065-926E-8B9137F837F5";
paths = (
{
closed = 1;
nodes = (
"86 0 LINE",
"150 0 LINE",
"150 322 LINE",
"473 322 LINE",
"473 380 LINE",
"150 380 LINE",
"150 642 LINE",
"502 642 LINE",
"502 700 LINE",
"86 700 LINE"
);
}
);
width = 542;
}
);
leftKerningGroup = H;
leftMetricsKey = I;
note = F;
rightKerningGroup = F;
unicode = 0046;
},
{
glyphname = G;
lastChange = "2020-05-17 11:12:55 +0000";
layers = (
{
anchors = (
{
name = bottom;
position = "{336, 0}";
},
{
name = top;
position = "{335, 700}";
}
);
layerId = "5117E3E8-E17C-4812-BAF5-9E7064564A59";
paths = (
{
closed = 1;
nodes = (
"50 86 OFFCURVE",
"164 -14 OFFCURVE",
"308 -14 CURVE SMOOTH",
"416 -14 OFFCURVE",
"448 33 OFFCURVE",
"462 67 CURVE",
"480 67 LINE",
"480 0 LINE",
"602 0 LINE",
"602 358 LINE",
"306 358 LINE",
"306 246 LINE",
"472 246 LINE",
"472 236 LINE SMOOTH",
"472 158 OFFCURVE",
"430 102 OFFCURVE",
"334 102 CURVE SMOOTH",
"238 102 OFFCURVE",
"182 166 OFFCURVE",
"182 264 CURVE SMOOTH",
"182 436 LINE SMOOTH",
"182 534 OFFCURVE",
"238 596 OFFCURVE",
"332 596 CURVE SMOOTH",
"426 596 OFFCURVE",
"472 538 OFFCURVE",
"472 464 CURVE SMOOTH",
"472 456 LINE",
"602 456 LINE",
"602 460 LINE SMOOTH",
"602 616 OFFCURVE",
"504 714 OFFCURVE",
"332 714 CURVE SMOOTH",
"158 714 OFFCURVE",
"50 614 OFFCURVE",
"50 434 CURVE SMOOTH",
"50 266 LINE SMOOTH"
);
}
);
width = 662;
},
{
anchors = (
{
name = bottom;
position = "{337, 0}";
},
{
name = top;
position = "{335, 700}";
}
);
layerId = "CEFBB1E5-951F-4065-926E-8B9137F837F5";
paths = (
{
closed = 1;
nodes = (
"64 84 OFFCURVE",
"170 -14 OFFCURVE",
"330 -14 CURVE SMOOTH",
"438 -14 OFFCURVE",
"487 30 OFFCURVE",
"511 79 CURVE",
"523 79 LINE",
"523 0 LINE",
"581 0 LINE",
"581 323 LINE",
"288 323 LINE",
"288 267 LINE",
"519 267 LINE",
"519 247 LINE SMOOTH",
"519 123 OFFCURVE",
"460 44 OFFCURVE",
"334 44 CURVE SMOOTH",
"204 44 OFFCURVE",
"128 126 OFFCURVE",
"128 269 CURVE SMOOTH",
"128 431 LINE SMOOTH",
"128 574 OFFCURVE",
"204 656 OFFCURVE",
"334 656 CURVE SMOOTH",
"462 656 OFFCURVE",
"517 576 OFFCURVE",
"517 467 CURVE SMOOTH",
"517 460 LINE",
"581 460 LINE",
"581 465 LINE SMOOTH",
"581 616 OFFCURVE",
"496 714 OFFCURVE",
"334 714 CURVE SMOOTH",
"170 714 OFFCURVE",
"64 616 OFFCURVE",
"64 429 CURVE SMOOTH",
"64 271 LINE SMOOTH"
);
}
);
width = 659;
}
);
leftKerningGroup = O;
leftMetricsKey = O;
note = G;
rightKerningGroup = G;
unicode = 0047;
},
{
glyphname = H;
lastChange = "2020-05-16 12:02:19 +0000";
layers = (
{
anchors = (
{
name = stroke;
position = "{328, 496}";
}
);
layerId = "5117E3E8-E17C-4812-BAF5-9E7064564A59";
paths = (
{
closed = 1;
nodes = (
"66 0 LINE",
"198 0 LINE",
"198 291 LINE",
"458 291 LINE",
"458 0 LINE",
"590 0 LINE",
"590 700 LINE",
"458 700 LINE",
"458 411 LINE",
"198 411 LINE",
"198 700 LINE",
"66 700 LINE"
);
}
);
width = 656;
},
{
anchors = (
{
name = stroke;
position = "{328, 486}";
}
);
layerId = "CEFBB1E5-951F-4065-926E-8B9137F837F5";
paths = (
{
closed = 1;
nodes = (
"86 0 LINE",
"150 0 LINE",
"150 322 LINE",
"506 322 LINE",
"506 0 LINE",
"570 0 LINE",
"570 700 LINE",
"506 700 LINE",
"506 380 LINE",
"150 380 LINE",
"150 700 LINE",
"86 700 LINE"
);
}
);
width = 656;
}
);
leftKerningGroup = H;
leftMetricsKey = I;
note = H;
rightKerningGroup = H;
rightMetricsKey = I;
unicode = 0048;
},
{
glyphname = I;
lastChange = "2020-05-16 12:02:19 +0000";
layers = (
{
anchors = (
{
name = bottom;
position = "{132, 0}";
},
{
name = ogonek;
position = "{132, 0}";
},
{
name = top;
position = "{132, 700}";
}
);
layerId = "5117E3E8-E17C-4812-BAF5-9E7064564A59";
paths = (
{
closed = 1;
nodes = (
"66 0 LINE",
"198 0 LINE",
"198 700 LINE",
"66 700 LINE"
);
}
);
width = 264;
},
{
anchors = (
{
name = bottom;
position = "{118, 0}";
},
{
name = ogonek;
position = "{118, 0}";
},
{
name = top;
position = "{118, 700}";
}
);
layerId = "CEFBB1E5-951F-4065-926E-8B9137F837F5";
paths = (
{
closed = 1;
nodes = (
"86 0 LINE",
"150 0 LINE",
"150 700 LINE",
"86 700 LINE"
);
}
);
width = 236;
}
);
leftKerningGroup = H;
note = I;
rightKerningGroup = H;
unicode = 0049;
},
{
glyphname = IJ;
lastChange = "2020-05-16 12:28:03 +0000";
layers = (
{
layerId = "5117E3E8-E17C-4812-BAF5-9E7064564A59";
paths = (
{
closed = 1;
nodes = (
"36 580 LINE",
"116 580 LINE",
"116 320 LINE",
"248 320 LINE",
"248 580 LINE",
"328 580 LINE",
"328 700 LINE",
"36 700 LINE"
);
},
{
closed = 1;
nodes = (
"396 580 LINE",
"476 580 LINE",
"476 210 LINE SMOOTH",
"476 146 OFFCURVE",
"436 110 OFFCURVE",
"365 110 CURVE SMOOTH",
"290 110 OFFCURVE",
"248 147 OFFCURVE",
"248 210 CURVE SMOOTH",
"248 260 LINE",
"116 260 LINE",
"116 210 LINE SMOOTH",
"116 69 OFFCURVE",
"213 -14 OFFCURVE",
"369 -14 CURVE SMOOTH",
"518 -14 OFFCURVE",
"608 65 OFFCURVE",
"608 210 CURVE SMOOTH",
"608 580 LINE",
"688 580 LINE",
"688 700 LINE",
"396 700 LINE"
);
}
);
width = 730;
},
{
layerId = "CEFBB1E5-951F-4065-926E-8B9137F837F5";
paths = (
{
closed = 1;
nodes = (
"46 642 LINE",
"134 642 LINE",
"134 358 LINE",
"198 358 LINE",
"198 642 LINE",
"286 642 LINE",
"286 700 LINE",
"46 700 LINE"
);
},
{
closed = 1;
nodes = (
"426 641 LINE",
"514 641 LINE",
"514 215 LINE SMOOTH",
"514 113 OFFCURVE",
"475 43 OFFCURVE",
"362 43 CURVE SMOOTH",
"251 43 OFFCURVE",
"198 113 OFFCURVE",
"198 215 CURVE SMOOTH",
"198 228 LINE",
"134 228 LINE",
"134 215 LINE SMOOTH",
"134 65 OFFCURVE",
"221 -15 OFFCURVE",
"361 -15 CURVE SMOOTH",
"506 -15 OFFCURVE",
"578 65 OFFCURVE",
"578 215 CURVE SMOOTH",
"578 641 LINE",
"666 641 LINE",
"666 699 LINE",
"426 699 LINE"
);
}
);
width = 712;
}
);
leftKerningGroup = JSerif;
note = IJ;
rightKerningGroup = JSerif;
rightMetricsKey = J;
unicode = 0132;
},
{
glyphname = J;
lastChange = "2020-06-02 12:33:22 +0000";
layers = (
{
layerId = "5117E3E8-E17C-4812-BAF5-9E7064564A59";
paths = (
{
closed = 1;
nodes = (
"236 580 LINE",
"356 580 LINE",
"356 210 LINE SMOOTH",
"356 146 OFFCURVE",
"322 110 OFFCURVE",
"263 110 CURVE SMOOTH",
"200 110 OFFCURVE",
"164 147 OFFCURVE",
"164 210 CURVE SMOOTH",
"164 276 LINE",
"32 276 LINE",
"32 210 LINE SMOOTH",
"32 69 OFFCURVE",
"123 -14 OFFCURVE",
"267 -14 CURVE SMOOTH",
"404 -14 OFFCURVE",
"488 65 OFFCURVE",
"488 210 CURVE SMOOTH",
"488 580 LINE",
"568 580 LINE",
"568 700 LINE",
"236 700 LINE"
);
}
);
width = 610;
},
{
layerId = "CEFBB1E5-951F-4065-926E-8B9137F837F5";
paths = (
{
closed = 1;
nodes = (
"280 642 LINE",
"404 642 LINE",
"404 210 LINE SMOOTH",
"404 112 OFFCURVE",
"368 44 OFFCURVE",
"262 44 CURVE SMOOTH",
"158 44 OFFCURVE",
"108 112 OFFCURVE",
"108 210 CURVE SMOOTH",
"108 259 LINE",
"44 259 LINE",
"44 210 LINE SMOOTH",
"44 64 OFFCURVE",
"127 -14 OFFCURVE",
"261 -14 CURVE SMOOTH",
"399 -14 OFFCURVE",
"468 64 OFFCURVE",
"468 210 CURVE SMOOTH",
"468 642 LINE",
"542 642 LINE",
"542 700 LINE",
"280 700 LINE"
);
}
);
width = 588;
}
);
leftKerningGroup = J;
note = J;
rightKerningGroup = JSerif;
unicode = 004A;
},
{
glyphname = K;
lastChange = "2020-05-17 11:13:12 +0000";
layers = (
{
anchors = (
{
name = bottom;
position = "{311, 0}";
}
);
layerId = "5117E3E8-E17C-4812-BAF5-9E7064564A59";
paths = (
{
closed = 1;
nodes = (
"198 0 LINE",
"198 284 LINE",
"216 284 LINE",
"448 0 LINE",
"622 0 LINE",
"320 355 LINE",
"612 700 LINE",
"443 700 LINE",
"216 422 LINE",
"198 422 LINE",
"198 700 LINE",
"66 700 LINE",
"66 0 LINE"
);
}
);
width = 626;
},
{
anchors = (
{
name = bottom;
position = "{312, 0}";
}
);
layerId = "CEFBB1E5-951F-4065-926E-8B9137F837F5";
paths = (
{
closed = 1;
nodes = (
"150 0 LINE",
"150 322 LINE",
"162 322 LINE",
"497 0 LINE",
"588 0 LINE",
"214 354 LINE",
"576 700 LINE",
"486 700 LINE",
"162 384 LINE",
"150 384 LINE",
"150 700 LINE",
"86 700 LINE",
"86 0 LINE"
);
}
);
width = 604;
}
);
leftKerningGroup = H;
leftMetricsKey = I;
note = K;
rightKerningGroup = K;
unicode = 004B;
},
{
glyphname = L;
lastChange = "2020-05-16 12:02:19 +0000";
layers = (
{
anchors = (
{
name = bottom;
position = "{292, 0}";
},
{
name = caron;
position = "{198, 700}";
},
{
name = sidecaron;
position = "{198, 700}";
},
{
name = top;
position = "{132, 700}";
}
);
layerId = "5117E3E8-E17C-4812-BAF5-9E7064564A59";
paths = (
{
closed = 1;
nodes = (
"66 0 LINE",
"518 0 LINE",
"518 120 LINE",
"198 120 LINE",
"198 700 LINE",
"66 700 LINE"
);
}
);
width = 542;
},
{
anchors = (
{
name = bottom;
position = "{302, 0}";
},
{
name = caron;
position = "{149, 700}";
},
{
name = sidecaron;
position = "{150, 700}";
},
{
name = top;
position = "{117, 700}";
}
);
layerId = "CEFBB1E5-951F-4065-926E-8B9137F837F5";
paths = (
{
closed = 1;
nodes = (
"86 0 LINE",
"518 0 LINE",
"518 58 LINE",
"150 58 LINE",
"150 700 LINE",
"86 700 LINE"
);
}
);
width = 547;
}
);
leftKerningGroup = H;
leftMetricsKey = I;
note = L;
rightKerningGroup = L;
unicode = 004C;
},
{
glyphname = Lslash;
lastChange = "2020-06-02 13:50:14 +0000";
layers = (
{
layerId = "5117E3E8-E17C-4812-BAF5-9E7064564A59";
paths = (
{
closed = 1;
nodes = (
"136 0 LINE",
"588 0 LINE",
"588 120 LINE",
"268 120 LINE",
"268 700 LINE",
"136 700 LINE"
);
},
{
closed = 1;
nodes = (
"48 221 LINE",
"396 393 LINE",
"356 474 LINE",
"8 302 LINE"
);
}
);
width = 612;
},
{
layerId = "CEFBB1E5-951F-4065-926E-8B9137F837F5";
paths = (
{
closed = 1;
nodes = (
"134 0 LINE",
"566 0 LINE",
"566 58 LINE",
"198 58 LINE",
"198 700 LINE",
"134 700 LINE"
);
},
{
closed = 1;
nodes = (
"44 248 LINE",
"312 393 LINE",
"289 437 LINE",
"20 292 LINE"
);
}
);
width = 595;
}
);
note = Lslash;
rightKerningGroup = L;
rightMetricsKey = L;
unicode = 0141;
},
{
glyphname = M;
lastChange = "2020-05-17 11:16:23 +0000";
layers = (
{
layerId = "5117E3E8-E17C-4812-BAF5-9E7064564A59";
paths = (
{
closed = 1;
nodes = (
"66 0 LINE",
"194 0 LINE",
"194 603 LINE",
"212 603 LINE",
"332 0 LINE",
"550 0 LINE",
"670 603 LINE",
"688 603 LINE",
"688 0 LINE",
"816 0 LINE",
"816 700 LINE",
"571 700 LINE",
"450 90 LINE",
"432 90 LINE",
"311 700 LINE",
"66 700 LINE"
);
}
);
width = 882;
},
{
layerId = "CEFBB1E5-951F-4065-926E-8B9137F837F5";
paths = (
{
closed = 1;
nodes = (
"86 0 LINE",
"148 0 LINE",
"148 662 LINE",
"160 662 LINE",
"372 0 LINE",
"486 0 LINE",
"698 662 LINE",
"710 662 LINE",
"710 0 LINE",
"772 0 LINE",
"772 700 LINE",
"647 700 LINE",
"435 38 LINE",
"423 38 LINE",
"211 700 LINE",
"86 700 LINE"
);
}
);
width = 858;
}
);
leftKerningGroup = H;
leftMetricsKey = I;
note = M;
rightKerningGroup = H;
rightMetricsKey = I;
unicode = 004D;
},
{
glyphname = N;
lastChange = "2020-05-17 11:12:16 +0000";
layers = (
{
anchors = (
{
name = bottom;
position = "{336, 0}";
},
{
name = top;
position = "{334, 700}";
}
);
layerId = "5117E3E8-E17C-4812-BAF5-9E7064564A59";
paths = (
{
closed = 1;
nodes = (
"66 0 LINE",
"196 0 LINE",
"196 610 LINE",
"214 610 LINE",
"353 0 LINE",
"604 0 LINE",
"604 700 LINE",
"474 700 LINE",
"474 90 LINE",
"456 90 LINE",
"317 700 LINE",
"66 700 LINE"
);
}
);
width = 670;
},
{
anchors = (
{
name = bottom;
position = "{334, 0}";
},
{
name = top;
position = "{335, 700}";
}
);
layerId = "CEFBB1E5-951F-4065-926E-8B9137F837F5";
paths = (
{
closed = 1;
nodes = (
"86 0 LINE",
"150 0 LINE",
"150 663 LINE",
"162 663 LINE",
"448 0 LINE",
"575 0 LINE",
"575 700 LINE",
"511 700 LINE",
"511 38 LINE",
"499 38 LINE",
"213 700 LINE",
"86 700 LINE"
);
}
);
width = 661;
}
);
leftKerningGroup = H;
leftMetricsKey = I;
note = N;
rightKerningGroup = H;
rightMetricsKey = I;
unicode = 004E;
},
{
glyphname = Eng;
lastChange = "2020-05-17 11:16:23 +0000";
layers = (
{
layerId = "5117E3E8-E17C-4812-BAF5-9E7064564A59";
paths = (
{
closed = 1;
nodes = (
"66 0 LINE",
"198 0 LINE",
"198 610 LINE",
"216 610 LINE",
"353 0 LINE",
"604 0 LINE",
"604 700 LINE",
"472 700 LINE",
"472 90 LINE",
"454 90 LINE",
"317 700 LINE",
"66 700 LINE"
);
},
{
closed = 1;
nodes = (
"476 0 LINE",
"476 -66 LINE SMOOTH",
"476 -86 OFFCURVE",
"466 -96 OFFCURVE",
"448 -96 CURVE SMOOTH",
"354 -96 LINE",
"354 -200 LINE",
"494 -200 LINE SMOOTH",
"560 -200 OFFCURVE",
"604 -157 OFFCURVE",
"604 -88 CURVE SMOOTH",
"604 0 LINE"
);
}
);
width = 670;
},
{
layerId = "CEFBB1E5-951F-4065-926E-8B9137F837F5";
paths = (
{
closed = 1;
nodes = (
"86 0 LINE",
"150 0 LINE",
"150 663 LINE",
"162 663 LINE",
"448 0 LINE",
"575 0 LINE",
"575 700 LINE",
"511 700 LINE",
"511 38 LINE",
"499 38 LINE",
"213 700 LINE",
"86 700 LINE"
);
},
{
closed = 1;
nodes = (
"513 0 LINE",
"513 -116 LINE SMOOTH",
"513 -136 OFFCURVE",
"505 -146 OFFCURVE",
"484 -146 CURVE SMOOTH",
"376 -146 LINE",
"376 -200 LINE",
"499 -200 LINE SMOOTH",
"546 -200 OFFCURVE",
"575 -177 OFFCURVE",
"575 -126 CURVE SMOOTH",
"575 0 LINE"
);
}
);
width = 661;
}
);
leftKerningGroup = H;
leftMetricsKey = N;
note = Eng;
rightKerningGroup = H;
rightMetricsKey = N;
unicode = 014A;
},
{
glyphname = O;
lastChange = "2020-06-02 09:56:15 +0000";
layers = (
{
anchors = (
{
name = bottom;
position = "{338, 0}";
},
{
name = horn;
position = "{450, 700}";
},
{
name = top;
position = "{338, 700}";
}
);
layerId = "5117E3E8-E17C-4812-BAF5-9E7064564A59";
paths = (
{
closed = 1;
nodes = (
"50 266 LINE SMOOTH",
"50 86 OFFCURVE",
"162 -14 OFFCURVE",
"338 -14 CURVE SMOOTH",
"514 -14 OFFCURVE",
"626 86 OFFCURVE",
"626 266 CURVE SMOOTH",
"626 434 LINE SMOOTH",
"626 614 OFFCURVE",
"514 714 OFFCURVE",
"338 714 CURVE SMOOTH",
"162 714 OFFCURVE",
"50 614 OFFCURVE",
"50 434 CURVE SMOOTH"
);
},
{
closed = 1;
nodes = (
"182 534 OFFCURVE",
"240 596 OFFCURVE",
"338 596 CURVE SMOOTH",
"436 596 OFFCURVE",
"494 534 OFFCURVE",
"494 438 CURVE SMOOTH",
"494 262 LINE SMOOTH",
"494 166 OFFCURVE",
"436 104 OFFCURVE",
"338 104 CURVE SMOOTH",
"240 104 OFFCURVE",
"182 166 OFFCURVE",
"182 262 CURVE SMOOTH",
"182 438 LINE SMOOTH"
);
}
);
width = 676;
},
{
anchors = (
{
name = bottom;
position = "{333, 0}";
},
{
name = horn;
position = "{436, 700}";
},
{
name = top;
position = "{333, 700}";
}
);
layerId = "CEFBB1E5-951F-4065-926E-8B9137F837F5";
paths = (
{
closed = 1;
nodes = (
"64 271 LINE SMOOTH",
"64 84 OFFCURVE",
"169 -14 OFFCURVE",
"333 -14 CURVE SMOOTH",
"497 -14 OFFCURVE",
"602 84 OFFCURVE",
"602 271 CURVE SMOOTH",
"602 429 LINE SMOOTH",
"602 616 OFFCURVE",
"497 714 OFFCURVE",
"333 714 CURVE SMOOTH",
"169 714 OFFCURVE",
"64 616 OFFCURVE",
"64 429 CURVE SMOOTH"
);
},
{
closed = 1;
nodes = (
"128 574 OFFCURVE",
"203 656 OFFCURVE",
"333 656 CURVE SMOOTH",
"463 656 OFFCURVE",
"538 574 OFFCURVE",
"538 431 CURVE SMOOTH",
"538 269 LINE SMOOTH",
"538 126 OFFCURVE",
"463 44 OFFCURVE",
"333 44 CURVE SMOOTH",
"203 44 OFFCURVE",
"128 126 OFFCURVE",
"128 269 CURVE SMOOTH",
"128 431 LINE SMOOTH"
);
}
);
width = 666;
}
);
leftKerningGroup = O;
note = O;
rightKerningGroup = O;
unicode = 004F;
},
{
glyphname = OE;
lastChange = "2020-06-02 13:19:23 +0000";
layers = (
{
layerId = "5117E3E8-E17C-4812-BAF5-9E7064564A59";
paths = (
{
closed = 1;
nodes = (
"390 112 LINE",
"240 112 OFFCURVE",
"182 188 OFFCURVE",
"182 312 CURVE SMOOTH",
"182 388 LINE SMOOTH",
"182 512 OFFCURVE",
"240 588 OFFCURVE",
"390 588 CURVE",
"390 700 LINE",
"174 700 OFFCURVE",
"50 588 OFFCURVE",
"50 382 CURVE SMOOTH",
"50 318 LINE SMOOTH",
"50 112 OFFCURVE",
"174 0 OFFCURVE",
"390 0 CURVE"
);
},
{
closed = 1;
nodes = (
"390 0 LINE",
"804 0 LINE",
"804 120 LINE",
"520 120 LINE",
"520 293 LINE",
"770 293 LINE",
"770 413 LINE",
"520 413 LINE",
"520 580 LINE",
"798 580 LINE",
"798 700 LINE",
"390 700 LINE"
);
}
);
width = 836;
},
{
layerId = "CEFBB1E5-951F-4065-926E-8B9137F837F5";
paths = (
{
closed = 1;
nodes = (
"398 56 LINE",
"216 56 OFFCURVE",
"128 150 OFFCURVE",
"128 308 CURVE SMOOTH",
"128 392 LINE SMOOTH",
"128 549 OFFCURVE",
"217 644 OFFCURVE",
"398 644 CURVE",
"398 700 LINE",
"187 700 OFFCURVE",
"64 592 OFFCURVE",
"64 385 CURVE SMOOTH",
"64 315 LINE SMOOTH",
"64 108 OFFCURVE",
"187 0 OFFCURVE",
"398 0 CURVE"
);
},
{
closed = 1;
nodes = (
"398 0 LINE",
"785 0 LINE",
"785 58 LINE",
"462 58 LINE",
"462 322 LINE",
"753 322 LINE",
"753 380 LINE",
"462 380 LINE",
"462 642 LINE",
"781 642 LINE",
"781 700 LINE",
"398 700 LINE"
);
}
);
width = 839;
}
);
leftKerningGroup = O;
leftMetricsKey = O;
note = OE;
rightKerningGroup = E;
rightMetricsKey = E;
unicode = 0152;
},
{
glyphname = P;
lastChange = "2020-05-18 14:46:16 +0000";
layers = (
{
layerId = "5117E3E8-E17C-4812-BAF5-9E7064564A59";
paths = (
{
closed = 1;
nodes = (
"66 0 LINE",
"198 0 LINE",
"198 256 LINE",
"354 256 LINE SMOOTH",
"482 256 OFFCURVE",
"578 340 OFFCURVE",
"578 471 CURVE SMOOTH",
"578 485 LINE SMOOTH",
"578 616 OFFCURVE",
"486 700 OFFCURVE",
"354 700 CURVE SMOOTH",
"66 700 LINE"
);
},
{
closed = 1;
nodes = (
"341 580 LINE SMOOTH",
"404 580 OFFCURVE",
"446 543 OFFCURVE",
"446 483 CURVE SMOOTH",
"446 473 LINE SMOOTH",
"446 413 OFFCURVE",
"403 376 OFFCURVE",
"341 376 CURVE SMOOTH",
"198 376 LINE",
"198 580 LINE"
);
}
);
width = 604;
},
{
layerId = "CEFBB1E5-951F-4065-926E-8B9137F837F5";
paths = (
{
closed = 1;
nodes = (
"86 0 LINE",
"150 0 LINE",
"150 292 LINE",
"345 292 LINE SMOOTH",
"466 292 OFFCURVE",
"564 364 OFFCURVE",
"564 490 CURVE SMOOTH",
"564 502 LINE SMOOTH",
"564 628 OFFCURVE",
"468 700 OFFCURVE",
"345 700 CURVE SMOOTH",
"86 700 LINE"
);
},
{
closed = 1;
nodes = (
"338 642 LINE SMOOTH",
"440 642 OFFCURVE",
"500 591 OFFCURVE",
"500 501 CURVE SMOOTH",
"500 491 LINE SMOOTH",
"500 401 OFFCURVE",
"438 350 OFFCURVE",
"338 350 CURVE SMOOTH",
"150 350 LINE",
"150 642 LINE"
);
}
);
width = 600;
}
);
leftKerningGroup = H;
leftMetricsKey = I;
note = P;
rightKerningGroup = P;
unicode = 0050;
},
{
glyphname = Thorn;
lastChange = "2020-06-02 09:01:52 +0000";
layers = (
{
layerId = "5117E3E8-E17C-4812-BAF5-9E7064564A59";
paths = (
{
closed = 1;
nodes = (
"198 700 LINE",
"66 700 LINE",
"66 0 LINE",
"198 0 LINE"
);
},
{
closed = 1;
nodes = (
"198 462 LINE",
"341 462 LINE SMOOTH",
"404 462 OFFCURVE",
"446 425 OFFCURVE",
"446 365 CURVE SMOOTH",
"446 355 LINE SMOOTH",
"446 295 OFFCURVE",
"403 258 OFFCURVE",
"341 258 CURVE SMOOTH",
"198 258 LINE",
"198 138 LINE",
"354 138 LINE SMOOTH",
"482 138 OFFCURVE",
"578 222 OFFCURVE",
"578 353 CURVE SMOOTH",
"578 367 LINE SMOOTH",
"578 498 OFFCURVE",
"486 582 OFFCURVE",
"354 582 CURVE SMOOTH",
"198 582 LINE"
);
}
);
width = 604;
},
{
layerId = "CEFBB1E5-951F-4065-926E-8B9137F837F5";
paths = (
{
closed = 1;
nodes = (
"150 700 LINE",
"86 700 LINE",
"86 0 LINE",
"150 0 LINE"
);
},
{
closed = 1;
nodes = (
"150 507 LINE",
"338 507 LINE SMOOTH",
"440 507 OFFCURVE",
"500 456 OFFCURVE",
"500 366 CURVE SMOOTH",
"500 357 LINE SMOOTH",
"500 267 OFFCURVE",
"438 216 OFFCURVE",
"338 216 CURVE SMOOTH",
"150 216 LINE",
"150 158 LINE",
"345 158 LINE SMOOTH",
"466 158 OFFCURVE",
"564 230 OFFCURVE",
"564 356 CURVE SMOOTH",
"564 367 LINE SMOOTH",
"564 493 OFFCURVE",
"468 565 OFFCURVE",
"345 565 CURVE SMOOTH",
"150 565 LINE"
);
}
);
width = 600;
}
);
leftKerningGroup = H;
leftMetricsKey = I;
note = Thorn;
rightMetricsKey = P;
unicode = 00DE;
},
{
glyphname = Q;
lastChange = "2020-05-17 10:49:43 +0000";
layers = (
{
layerId = "5117E3E8-E17C-4812-BAF5-9E7064564A59";
paths = (
{
closed = 1;
nodes = (
"50 266 LINE SMOOTH",
"50 86 OFFCURVE",
"162 -14 OFFCURVE",
"338 -14 CURVE SMOOTH",
"514 -14 OFFCURVE",
"626 86 OFFCURVE",
"626 266 CURVE SMOOTH",
"626 434 LINE SMOOTH",
"626 614 OFFCURVE",
"514 714 OFFCURVE",
"338 714 CURVE SMOOTH",
"162 714 OFFCURVE",
"50 614 OFFCURVE",
"50 434 CURVE SMOOTH"
);
},
{
closed = 1;
nodes = (
"182 534 OFFCURVE",
"240 596 OFFCURVE",
"338 596 CURVE SMOOTH",
"436 596 OFFCURVE",
"494 534 OFFCURVE",
"494 438 CURVE SMOOTH",
"494 262 LINE SMOOTH",
"494 166 OFFCURVE",
"436 104 OFFCURVE",
"338 104 CURVE SMOOTH",
"240 104 OFFCURVE",
"182 166 OFFCURVE",
"182 262 CURVE SMOOTH",
"182 438 LINE SMOOTH"
);
},
{
closed = 1;
nodes = (
"274 -68 LINE SMOOTH",
"274 -136 OFFCURVE",
"318 -180 OFFCURVE",
"384 -180 CURVE SMOOTH",
"489 -180 LINE",
"489 -78 LINE",
"430 -78 LINE SMOOTH",
"412 -78 OFFCURVE",
"402 -68 OFFCURVE",
"402 -48 CURVE SMOOTH",
"402 0 LINE",
"274 0 LINE"
);
}
);
width = 676;
},
{
layerId = "CEFBB1E5-951F-4065-926E-8B9137F837F5";
paths = (
{
closed = 1;
nodes = (
"64 271 LINE SMOOTH",
"64 84 OFFCURVE",
"169 -14 OFFCURVE",
"333 -14 CURVE SMOOTH",
"497 -14 OFFCURVE",
"602 84 OFFCURVE",
"602 271 CURVE SMOOTH",
"602 429 LINE SMOOTH",
"602 616 OFFCURVE",
"497 714 OFFCURVE",
"333 714 CURVE SMOOTH",
"169 714 OFFCURVE",
"64 616 OFFCURVE",
"64 429 CURVE SMOOTH"
);
},
{
closed = 1;
nodes = (
"128 574 OFFCURVE",
"203 656 OFFCURVE",
"333 656 CURVE SMOOTH",
"463 656 OFFCURVE",
"538 574 OFFCURVE",
"538 431 CURVE SMOOTH",
"538 269 LINE SMOOTH",
"538 126 OFFCURVE",
"463 44 OFFCURVE",
"333 44 CURVE SMOOTH",
"203 44 OFFCURVE",
"128 126 OFFCURVE",
"128 269 CURVE SMOOTH",
"128 431 LINE SMOOTH"
);
},
{
closed = 1;
nodes = (
"301 -82 LINE SMOOTH",
"301 -127 OFFCURVE",
"328 -154 OFFCURVE",
"371 -154 CURVE SMOOTH",
"461 -154 LINE",
"461 -99 LINE",
"392 -99 LINE SMOOTH",
"374 -99 OFFCURVE",
"364 -89 OFFCURVE",
"364 -69 CURVE SMOOTH",
"364 0 LINE",
"301 0 LINE"
);
}
);
width = 666;
}
);
leftKerningGroup = O;
leftMetricsKey = O;
note = Q;
rightKerningGroup = O;
rightMetricsKey = O;
unicode = 0051;
},
{
glyphname = R;
lastChange = "2020-05-17 11:13:46 +0000";
layers = (
{
anchors = (
{
name = bottom;
position = "{313, 0}";
},
{
name = top;
position = "{301, 700}";
}
);
layerId = "5117E3E8-E17C-4812-BAF5-9E7064564A59";
paths = (
{
closed = 1;
nodes = (
"66 0 LINE",
"198 0 LINE",
"198 264 LINE",
"382 264 LINE SMOOTH",
"421 264 OFFCURVE",
"436 242 OFFCURVE",
"436 210 CURVE SMOOTH",
"436 0 LINE",
"568 0 LINE",
"568 229 LINE SMOOTH",
"568 285 OFFCURVE",
"537 321 OFFCURVE",
"484 324 CURVE",
"484 342 LINE",
"543 366 OFFCURVE",
"588 417 OFFCURVE",
"588 501 CURVE SMOOTH",
"588 513 LINE SMOOTH",
"588 626 OFFCURVE",
"501 700 OFFCURVE",
"370 700 CURVE SMOOTH",
"66 700 LINE"
);
},
{
closed = 1;
nodes = (
"356 580 LINE SMOOTH",
"420 580 OFFCURVE",
"456 543 OFFCURVE",
"456 487 CURVE SMOOTH",
"456 477 LINE SMOOTH",
"456 421 OFFCURVE",
"418 384 OFFCURVE",
"356 384 CURVE SMOOTH",
"198 384 LINE",
"198 580 LINE"
);
}
);
width = 632;
},
{
anchors = (
{
name = bottom;
position = "{319, 0}";
},
{
name = top;
position = "{310, 700}";
}
);
layerId = "CEFBB1E5-951F-4065-926E-8B9137F837F5";
paths = (
{
closed = 1;
nodes = (
"86 0 LINE",
"150 0 LINE",
"150 297 LINE",
"416 297 LINE SMOOTH",
"463 297 OFFCURVE",
"486 274 OFFCURVE",
"486 231 CURVE SMOOTH",
"486 0 LINE",
"550 0 LINE",
"550 238 LINE SMOOTH",
"550 299 OFFCURVE",
"513 325 OFFCURVE",
"467 327 CURVE",
"467 339 LINE",
"528 356 OFFCURVE",
"581 409 OFFCURVE",
"581 504 CURVE SMOOTH",
"581 514 LINE SMOOTH",
"581 632 OFFCURVE",
"489 700 OFFCURVE",
"360 700 CURVE SMOOTH",
"86 700 LINE"
);
},
{
closed = 1;
nodes = (
"354 642 LINE SMOOTH",
"460 642 OFFCURVE",
"517 592 OFFCURVE",
"517 501 CURVE SMOOTH",
"517 496 LINE SMOOTH",
"517 405 OFFCURVE",
"458 355 OFFCURVE",
"354 355 CURVE SMOOTH",
"150 355 LINE",
"150 642 LINE"
);
}
);
width = 631;
}
);
leftKerningGroup = H;
leftMetricsKey = I;
note = R;
rightKerningGroup = R;
unicode = 0052;
},
{
glyphname = S;
lastChange = "2020-06-02 09:56:31 +0000";
layers = (
{
anchors = (
{
name = bottom;
position = "{315, 0}";
},
{
name = top;
position = "{301, 700}";
}
);
layerId = "5117E3E8-E17C-4812-BAF5-9E7064564A59";
paths = (
{
closed = 1;
nodes = (
"147 714 OFFCURVE",
"50 638 OFFCURVE",
"50 510 CURVE SMOOTH",
"50 382 OFFCURVE",
"135 333 OFFCURVE",
"280 301 CURVE SMOOTH",
"303 296 LINE SMOOTH",
"393 276 OFFCURVE",
"444 256 OFFCURVE",
"444 198 CURVE SMOOTH",
"444 142 OFFCURVE",
"399 102 OFFCURVE",
"309 102 CURVE SMOOTH",
"219 102 OFFCURVE",
"164 144 OFFCURVE",
"164 228 CURVE SMOOTH",
"164 256 LINE",
"34 256 LINE",
"34 228 LINE SMOOTH",
"34 76 OFFCURVE",
"147 -14 OFFCURVE",
"309 -14 CURVE SMOOTH",
"471 -14 OFFCURVE",
"574 74 OFFCURVE",
"574 202 CURVE SMOOTH",
"574 330 OFFCURVE",
"475 382 OFFCURVE",
"326 414 CURVE SMOOTH",
"303 419 LINE SMOOTH",
"219 437 OFFCURVE",
"180 462 OFFCURVE",
"180 514 CURVE SMOOTH",
"180 566 OFFCURVE",
"217 598 OFFCURVE",
"297 598 CURVE SMOOTH",
"377 598 OFFCURVE",
"426 566 OFFCURVE",
"426 486 CURVE SMOOTH",
"426 456 LINE",
"556 456 LINE",
"556 486 LINE SMOOTH",
"556 638 OFFCURVE",
"447 714 OFFCURVE",
"297 714 CURVE SMOOTH"
);
}
);
width = 606;
},
{
anchors = (
{
name = bottom;
position = "{320, 0}";
},
{
name = top;
position = "{307, 700}";
}
);
layerId = "CEFBB1E5-951F-4065-926E-8B9137F837F5";
paths = (
{
closed = 1;
nodes = (
"166 714 OFFCURVE",
"71 642 OFFCURVE",
"71 528 CURVE SMOOTH",
"71 414 OFFCURVE",
"155 367 OFFCURVE",
"270 338 CURVE SMOOTH",
"334 322 LINE SMOOTH",
"430 298 OFFCURVE",
"496 270 OFFCURVE",
"496 186 CURVE SMOOTH",
"496 102 OFFCURVE",
"431 42 OFFCURVE",
"315 42 CURVE SMOOTH",
"200 42 OFFCURVE",
"118 102 OFFCURVE",
"118 232 CURVE SMOOTH",
"118 251 LINE",
"54 251 LINE",
"54 232 LINE SMOOTH",
"54 64 OFFCURVE",
"166 -14 OFFCURVE",
"315 -14 CURVE SMOOTH",
"463 -14 OFFCURVE",
"560 64 OFFCURVE",
"560 186 CURVE SMOOTH",
"560 308 OFFCURVE",
"466 351 OFFCURVE",
"357 378 CURVE SMOOTH",
"293 394 LINE SMOOTH",
"196 418 OFFCURVE",
"135 444 OFFCURVE",
"135 528 CURVE SMOOTH",
"135 612 OFFCURVE",
"205 658 OFFCURVE",
"303 658 CURVE SMOOTH",
"405 658 OFFCURVE",
"484 612 OFFCURVE",
"484 503 CURVE SMOOTH",
"484 456 LINE",
"548 456 LINE",
"548 503 LINE SMOOTH",
"548 642 OFFCURVE",
"440 714 OFFCURVE",
"303 714 CURVE SMOOTH"
);
}
);
width = 616;
}
);
leftKerningGroup = S;
note = S;
rightKerningGroup = S;
unicode = 0053;
},
{
glyphname = Germandbls;
lastChange = "2020-05-17 18:12:38 +0000";
layers = (
{
layerId = "5117E3E8-E17C-4812-BAF5-9E7064564A59";
paths = (
{
closed = 1;
nodes = (
"194 0 LINE",
"194 420 LINE SMOOTH",
"194 543 OFFCURVE",
"267 584 OFFCURVE",
"334 584 CURVE SMOOTH",
"466 584 LINE",
"466 568 LINE",
"365 479 LINE SMOOTH",
"323 442 OFFCURVE",
"303 404 OFFCURVE",
"303 358 CURVE SMOOTH",
"303 311 OFFCURVE",
"326 269 OFFCURVE",
"381 245 CURVE SMOOTH",
"429 224 LINE SMOOTH",
"463 209 OFFCURVE",
"493 194 OFFCURVE",
"493 159 CURVE SMOOTH",
"493 127 OFFCURVE",
"470 104 OFFCURVE",
"430 104 CURVE SMOOTH",
"390 104 OFFCURVE",
"362 127 OFFCURVE",
"362 168 CURVE",
"232 168 LINE",
"232 60 OFFCURVE",
"304 -14 OFFCURVE",
"430 -14 CURVE SMOOTH",
"556 -14 OFFCURVE",
"623 60 OFFCURVE",
"623 161 CURVE SMOOTH",
"623 257 OFFCURVE",
"567 302 OFFCURVE",
"496 331 CURVE SMOOTH",
"462 345 LINE SMOOTH",
"447 351 OFFCURVE",
"433 357 OFFCURVE",
"433 371 CURVE SMOOTH",
"433 385 OFFCURVE",
"442 393 OFFCURVE",
"452 402 CURVE SMOOTH",
"600 536 LINE",
"600 700 LINE",
"334 700 LINE SMOOTH",
"173 700 OFFCURVE",
"62 596 OFFCURVE",
"62 416 CURVE SMOOTH",
"62 0 LINE"
);
}
);
width = 651;
},
{
layerId = "CEFBB1E5-951F-4065-926E-8B9137F837F5";
paths = (
{
closed = 1;
nodes = (
"144 0 LINE",
"144 452 LINE SMOOTH",
"144 590 OFFCURVE",
"219 642 OFFCURVE",
"321 642 CURVE SMOOTH",
"507 642 LINE",
"507 632 LINE",
"361 494 LINE SMOOTH",
"324 459 OFFCURVE",
"299 430 OFFCURVE",
"299 383 CURVE SMOOTH",
"299 336 OFFCURVE",
"327 303 OFFCURVE",
"383 278 CURVE SMOOTH",
"430 257 LINE SMOOTH",
"479 235 OFFCURVE",
"524 209 OFFCURVE",
"524 147 CURVE SMOOTH",
"524 85 OFFCURVE",
"481 44 OFFCURVE",
"407 44 CURVE SMOOTH",
"333 44 OFFCURVE",
"282 85 OFFCURVE",
"282 168 CURVE",
"218 168 LINE",
"218 53 OFFCURVE",
"293 -14 OFFCURVE",
"407 -14 CURVE SMOOTH",
"521 -14 OFFCURVE",
"588 53 OFFCURVE",
"588 147 CURVE SMOOTH",
"588 241 OFFCURVE",
"522 281 OFFCURVE",
"458 310 CURVE SMOOTH",
"411 331 LINE SMOOTH",
"381 344 OFFCURVE",
"363 358 OFFCURVE",
"363 384 CURVE SMOOTH",
"363 408 OFFCURVE",
"375 425 OFFCURVE",
"395 444 CURVE SMOOTH",
"573 612 LINE",
"573 700 LINE",
"321 700 LINE SMOOTH",
"176 700 OFFCURVE",
"80 617 OFFCURVE",
"80 448 CURVE SMOOTH",
"80 0 LINE"
);
}
);
width = 625;
}
);
leftMetricsKey = U;
note = uni1E9E;
unicode = 1E9E;
},
{
glyphname = T;
lastChange = "2020-06-02 12:33:16 +0000";
layers = (
{
anchors = (
{
name = bottom;
position = "{294, 0}";
},
{
name = strokeC;
position = "{294, 496}";
},
{
name = top;
position = "{294, 700}";
}
);
layerId = "5117E3E8-E17C-4812-BAF5-9E7064564A59";
paths = (
{
closed = 1;
nodes = (
"24 580 LINE",
"228 580 LINE",
"228 0 LINE",
"360 0 LINE",
"360 580 LINE",
"564 580 LINE",
"564 700 LINE",
"24 700 LINE"
);
}
);
width = 588;
},
{
anchors = (
{
name = bottom;
position = "{295, 0}";
},
{
name = strokeC;
position = "{294, 486}";
},
{
name = top;
position = "{294, 700}";
}
);
layerId = "CEFBB1E5-951F-4065-926E-8B9137F837F5";
paths = (
{
closed = 1;
nodes = (
"28 642 LINE",
"262 642 LINE",
"262 0 LINE",
"326 0 LINE",
"326 642 LINE",
"560 642 LINE",
"560 700 LINE",
"28 700 LINE"
);
}
);
width = 588;
}
);
leftKerningGroup = T;
note = T;
rightKerningGroup = T;
unicode = 0054;
},
{
glyphname = U;
lastChange = "2020-05-16 12:19:50 +0000";
layers = (
{
anchors = (
{
name = bottom;
position = "{336, 0}";
},
{
name = horn;
position = "{610, 700}";
},
{
name = ogonek;
position = "{424, 0}";
},
{
name = top;
position = "{336, 700}";
}
);
layerId = "5117E3E8-E17C-4812-BAF5-9E7064564A59";
paths = (
{
closed = 1;
nodes = (
"62 246 LINE SMOOTH",
"62 86 OFFCURVE",
"164 -14 OFFCURVE",
"336 -14 CURVE SMOOTH",
"508 -14 OFFCURVE",
"610 86 OFFCURVE",
"610 246 CURVE SMOOTH",
"610 700 LINE",
"478 700 LINE",
"478 242 LINE SMOOTH",
"478 156 OFFCURVE",
"428 104 OFFCURVE",
"336 104 CURVE SMOOTH",
"244 104 OFFCURVE",
"194 156 OFFCURVE",
"194 242 CURVE SMOOTH",
"194 700 LINE",
"62 700 LINE"
);
}
);
width = 672;
},
{
anchors = (
{
name = bottom;
position = "{334, 0}";
},
{
name = horn;
position = "{584, 700}";
},
{
name = ogonek;
position = "{399, 0}";
},
{
name = top;
position = "{332, 700}";
}
);
layerId = "CEFBB1E5-951F-4065-926E-8B9137F837F5";
paths = (
{
closed = 1;
nodes = (
"80 229 LINE SMOOTH",
"80 65 OFFCURVE",
"182 -14 OFFCURVE",
"332 -14 CURVE SMOOTH",
"482 -14 OFFCURVE",
"584 65 OFFCURVE",
"584 229 CURVE SMOOTH",
"584 700 LINE",
"520 700 LINE",
"520 229 LINE SMOOTH",
"520 104 OFFCURVE",
"451 44 OFFCURVE",
"332 44 CURVE SMOOTH",
"213 44 OFFCURVE",
"144 104 OFFCURVE",
"144 229 CURVE SMOOTH",
"144 700 LINE",
"80 700 LINE"
);
}
);
width = 664;
}
);
leftKerningGroup = U;
note = U;
rightKerningGroup = U;
unicode = 0055;
},
{
glyphname = V;
lastChange = "2020-06-02 13:50:01 +0000";
layers = (
{
layerId = "5117E3E8-E17C-4812-BAF5-9E7064564A59";
paths = (
{
closed = 1;
nodes = (
"196 0 LINE",
"422 0 LINE",
"600 700 LINE",
"464 700 LINE",
"316 85 LINE",
"302 85 LINE",
"154 700 LINE",
"18 700 LINE"
);
}
);
width = 618;
},
{
layerId = "CEFBB1E5-951F-4065-926E-8B9137F837F5";
paths = (
{
closed = 1;
nodes = (
"253 0 LINE",
"367 0 LINE",
"592 700 LINE",
"525 700 LINE",
"316 37 LINE",
"304 37 LINE",
"95 700 LINE",
"28 700 LINE"
);
}
);
width = 620;
}
);
leftKerningGroup = V;
note = V;
rightKerningGroup = V;
unicode = 0056;
},
{
glyphname = W;
lastChange = "2020-06-02 13:49:57 +0000";
layers = (
{
anchors = (
{
name = top;
position = "{449, 700}";
}
);
layerId = "5117E3E8-E17C-4812-BAF5-9E7064564A59";
paths = (
{
closed = 1;
nodes = (
"122 0 LINE",
"350 0 LINE",
"440 622 LINE",
"458 622 LINE",
"548 0 LINE",
"776 0 LINE",
"868 700 LINE",
"737 700 LINE",
"669 92 LINE",
"651 92 LINE",
"563 700 LINE",
"335 700 LINE",
"247 92 LINE",
"229 92 LINE",
"161 700 LINE",
"30 700 LINE"
);
}
);
width = 898;
},
{
anchors = (
{
name = top;
position = "{433, 700}";
}
);
layerId = "CEFBB1E5-951F-4065-926E-8B9137F837F5";
paths = (
{
closed = 1;
nodes = (
"163 0 LINE",
"282 0 LINE",
"427 662 LINE",
"439 662 LINE",
"584 0 LINE",
"703 0 LINE",
"826 700 LINE",
"761 700 LINE",
"649 38 LINE",
"637 38 LINE",
"492 700 LINE",
"374 700 LINE",
"229 38 LINE",
"217 38 LINE",
"105 700 LINE",
"40 700 LINE"
);
}
);
width = 866;
}
);
leftKerningGroup = W;
note = W;
rightKerningGroup = W;
unicode = 0057;
},
{
glyphname = X;
lastChange = "2020-06-02 09:02:39 +0000";
layers = (
{
layerId = "5117E3E8-E17C-4812-BAF5-9E7064564A59";
paths = (
{
closed = 1;
nodes = (
"227 353 LINE",
"22 0 LINE",
"172 0 LINE",
"313 259 LINE",
"331 259 LINE",
"472 0 LINE",
"622 0 LINE",
"417 353 LINE",
"620 700 LINE",
"470 700 LINE",
"331 447 LINE",
"313 447 LINE",
"174 700 LINE",
"24 700 LINE"
);
}
);
width = 644;
},
{
layerId = "CEFBB1E5-951F-4065-926E-8B9137F837F5";
paths = (
{
closed = 1;
nodes = (
"270 353 LINE",
"36 0 LINE",
"113 0 LINE",
"311 309 LINE",
"323 309 LINE",
"522 0 LINE",
"599 0 LINE",
"365 353 LINE",
"595 700 LINE",
"518 700 LINE",
"323 397 LINE",
"311 397 LINE",
"117 700 LINE",
"40 700 LINE"
);
}
);
width = 635;
}
);
leftKerningGroup = X;
note = X;
rightKerningGroup = X;
unicode = 0058;
},
{
glyphname = Y;
lastChange = "2020-06-02 12:33:15 +0000";
layers = (
{
anchors = (
{
name = bottom;
position = "{312, 0}";
},
{
name = top;
position = "{312, 700}";
}
);
layerId = "5117E3E8-E17C-4812-BAF5-9E7064564A59";
paths = (
{
closed = 1;
nodes = (
"246 241 LINE",
"246 0 LINE",
"378 0 LINE",
"378 241 LINE",
"616 700 LINE",
"469 700 LINE",
"321 400 LINE",
"303 400 LINE",
"155 700 LINE",
"8 700 LINE"
);
}
);
width = 624;
},
{
anchors = (
{
name = bottom;
position = "{302, 0}";
},
{
name = top;
position = "{302, 700}";
}
);
layerId = "CEFBB1E5-951F-4065-926E-8B9137F837F5";
paths = (
{
closed = 1;
nodes = (
"270 277 LINE",
"270 0 LINE",
"334 0 LINE",
"334 277 LINE",
"588 700 LINE",
"512 700 LINE",
"308 350 LINE",
"296 350 LINE",
"92 700 LINE",
"16 700 LINE"
);
}
);
width = 604;
}
);
leftKerningGroup = Y;
note = Y;
rightKerningGroup = Y;
unicode = 0059;
},
{
glyphname = Z;
lastChange = "2020-06-02 09:02:50 +0000";
layers = (
{
anchors = (
{
name = bottom;
position = "{289, 0}";
},
{
name = top;
position = "{293, 700}";
}
);
layerId = "5117E3E8-E17C-4812-BAF5-9E7064564A59";
paths = (
{
closed = 1;
nodes = (
"56 582 LINE",
"392 582 LINE",
"392 566 LINE",
"46 168 LINE",
"46 0 LINE",
"532 0 LINE",
"532 118 LINE",
"184 118 LINE",
"184 134 LINE",
"530 532 LINE",
"530 700 LINE",
"56 700 LINE"
);
}
);
width = 576;
},
{
anchors = (
{
name = bottom;
position = "{284, 0}";
},
{
name = top;
position = "{283, 700}";
}
);
layerId = "CEFBB1E5-951F-4065-926E-8B9137F837F5";
paths = (
{
closed = 1;
nodes = (
"64 642 LINE",
"460 642 LINE",
"460 632 LINE",
"52 88 LINE",
"52 0 LINE",
"530 0 LINE",
"530 58 LINE",
"112 58 LINE",
"112 68 LINE",
"520 612 LINE",
"520 700 LINE",
"64 700 LINE"
);
}
);
width = 578;
}
);
leftKerningGroup = Z;
note = Z;
rightKerningGroup = Z;
unicode = 005A;
},
{
glyphname = B.ss02;
lastChange = "2020-05-17 11:14:44 +0000";
layers = (
{
layerId = "5117E3E8-E17C-4812-BAF5-9E7064564A59";
paths = (
{
closed = 1;
nodes = (
"66 0 LINE",
"384 0 LINE SMOOTH",
"509 0 OFFCURVE",
"596 68 OFFCURVE",
"596 185 CURVE SMOOTH",
"596 195 LINE SMOOTH",
"596 295 OFFCURVE",
"529 334 OFFCURVE",
"485 346 CURVE",
"485 364 LINE",
"528 377 OFFCURVE",
"592 416 OFFCURVE",
"592 513 CURVE SMOOTH",
"592 523 LINE SMOOTH",
"592 632 OFFCURVE",
"508 700 OFFCURVE",
"380 700 CURVE SMOOTH",
"66 700 LINE"
);
},
{
closed = 1;
nodes = (
"368 292 LINE SMOOTH",
"426 292 OFFCURVE",
"464 263 OFFCURVE",
"464 211 CURVE SMOOTH",
"464 201 LINE SMOOTH",
"464 149 OFFCURVE",
"425 120 OFFCURVE",
"368 120 CURVE SMOOTH",
"198 120 LINE",
"198 292 LINE"
);
},
{
closed = 1;
nodes = (
"366 580 LINE SMOOTH",
"422 580 OFFCURVE",
"460 551 OFFCURVE",
"460 501 CURVE SMOOTH",
"460 491 LINE SMOOTH",
"460 441 OFFCURVE",
"421 412 OFFCURVE",
"366 412 CURVE SMOOTH",
"198 412 LINE",
"198 580 LINE"
);
}
);
width = 638;
},
{
layerId = "CEFBB1E5-951F-4065-926E-8B9137F837F5";
paths = (
{
closed = 1;
nodes = (
"86 0 LINE",
"364 0 LINE SMOOTH",
"483 0 OFFCURVE",
"574 68 OFFCURVE",
"574 182 CURVE SMOOTH",
"574 192 LINE SMOOTH",
"574 290 OFFCURVE",
"508 335 OFFCURVE",
"456 348 CURVE",
"456 360 LINE",
"507 375 OFFCURVE",
"574 419 OFFCURVE",
"574 517 CURVE SMOOTH",
"574 525 LINE SMOOTH",
"574 629 OFFCURVE",
"487 700 OFFCURVE",
"367 700 CURVE SMOOTH",
"86 700 LINE"
);
},
{
closed = 1;
nodes = (
"358 324 LINE SMOOTH",
"458 324 OFFCURVE",
"510 274 OFFCURVE",
"510 195 CURVE SMOOTH",
"510 187 LINE SMOOTH",
"510 108 OFFCURVE",
"458 58 OFFCURVE",
"358 58 CURVE SMOOTH",
"150 58 LINE",
"150 324 LINE"
);
},
{
closed = 1;
nodes = (
"362 642 LINE SMOOTH",
"454 642 OFFCURVE",
"510 592 OFFCURVE",
"510 517 CURVE SMOOTH",
"510 507 LINE SMOOTH",
"510 432 OFFCURVE",
"454 382 OFFCURVE",
"362 382 CURVE SMOOTH",
"150 382 LINE",
"150 642 LINE"
);
}
);
width = 632;
}
);
leftKerningGroup = H;
leftMetricsKey = I;
note = B.alt;
rightKerningGroup = B;
rightMetricsKey = B;
},
{
glyphname = D.ss02;
lastChange = "2020-05-16 12:21:00 +0000";
layers = (
{
anchors = (
{
name = stroke;
position = "{66, 496}";
},
{
name = top;
position = "{301, 700}";
}
);
layerId = "5117E3E8-E17C-4812-BAF5-9E7064564A59";
paths = (
{
closed = 1;
nodes = (
"66 0 LINE",
"306 0 LINE SMOOTH",
"494 0 OFFCURVE",
"594 96 OFFCURVE",
"594 284 CURVE SMOOTH",
"594 416 LINE SMOOTH",
"594 604 OFFCURVE",
"494 700 OFFCURVE",
"306 700 CURVE SMOOTH",
"66 700 LINE"
);
},
{
closed = 1;
nodes = (
"308 580 LINE SMOOTH",
"414 580 OFFCURVE",
"462 522 OFFCURVE",
"462 420 CURVE SMOOTH",
"462 280 LINE SMOOTH",
"462 178 OFFCURVE",
"414 120 OFFCURVE",
"308 120 CURVE SMOOTH",
"198 120 LINE",
"198 580 LINE"
);
}
);
width = 644;
},
{
anchors = (
{
name = stroke;
position = "{86, 486}";
},
{
name = top;
position = "{295, 700}";
}
);
layerId = "CEFBB1E5-951F-4065-926E-8B9137F837F5";
paths = (
{
closed = 1;
nodes = (
"86 0 LINE",
"294 0 LINE SMOOTH",
"476 0 OFFCURVE",
"584 89 OFFCURVE",
"584 285 CURVE SMOOTH",
"584 414 LINE SMOOTH",
"584 610 OFFCURVE",
"476 700 OFFCURVE",
"294 700 CURVE SMOOTH",
"86 700 LINE"
);
},
{
closed = 1;
nodes = (
"294 641 LINE SMOOTH",
"440 641 OFFCURVE",
"520 575 OFFCURVE",
"520 417 CURVE SMOOTH",
"520 282 LINE SMOOTH",
"520 124 OFFCURVE",
"440 58 OFFCURVE",
"294 58 CURVE SMOOTH",
"150 58 LINE",
"150 641 LINE"
);
}
);
width = 648;
}
);
leftKerningGroup = H;
leftMetricsKey = I;
note = D.alt;
rightKerningGroup = O;
rightMetricsKey = O;
},
{
glyphname = IJ.ss02;
lastChange = "2020-05-16 12:27:50 +0000";
layers = (
{
layerId = "5117E3E8-E17C-4812-BAF5-9E7064564A59";
paths = (
{
closed = 1;
nodes = (
"62 342 LINE",
"194 342 LINE",
"194 700 LINE",
"62 700 LINE"
);
},
{
closed = 1;
nodes = (
"390 700 LINE",
"390 210 LINE SMOOTH",
"390 146 OFFCURVE",
"356 110 OFFCURVE",
"295 110 CURVE SMOOTH",
"230 110 OFFCURVE",
"194 147 OFFCURVE",
"194 210 CURVE SMOOTH",
"194 246 LINE",
"62 246 LINE",
"62 210 LINE SMOOTH",
"62 69 OFFCURVE",
"153 -14 OFFCURVE",
"299 -14 CURVE SMOOTH",
"438 -14 OFFCURVE",
"522 65 OFFCURVE",
"522 210 CURVE SMOOTH",
"522 700 LINE"
);
}
);
width = 584;
},
{
layerId = "CEFBB1E5-951F-4065-926E-8B9137F837F5";
paths = (
{
closed = 1;
nodes = (
"80 370 LINE",
"144 370 LINE",
"144 700 LINE",
"80 700 LINE"
);
},
{
closed = 1;
nodes = (
"460 700 LINE",
"460 216 LINE SMOOTH",
"460 114 OFFCURVE",
"421 44 OFFCURVE",
"308 44 CURVE SMOOTH",
"197 44 OFFCURVE",
"144 114 OFFCURVE",
"144 216 CURVE SMOOTH",
"144 259 LINE",
"80 259 LINE",
"80 216 LINE SMOOTH",
"80 66 OFFCURVE",
"167 -14 OFFCURVE",
"307 -14 CURVE SMOOTH",
"452 -14 OFFCURVE",
"524 66 OFFCURVE",
"524 216 CURVE SMOOTH",
"524 700 LINE"
);
}
);
width = 604;
}
);
leftKerningGroup = U;
leftMetricsKey = U;
note = IJ;
rightKerningGroup = U;
rightMetricsKey = U;
},
{
glyphname = J.ss02;
lastChange = "2020-05-16 12:24:01 +0000";
layers = (
{
layerId = "5117E3E8-E17C-4812-BAF5-9E7064564A59";
paths = (
{
closed = 1;
nodes = (
"356 700 LINE",
"356 210 LINE SMOOTH",
"356 144 OFFCURVE",
"322 106 OFFCURVE",
"263 106 CURVE SMOOTH",
"200 106 OFFCURVE",
"164 145 OFFCURVE",
"164 210 CURVE SMOOTH",
"164 276 LINE",
"32 276 LINE",
"32 210 LINE SMOOTH",
"32 69 OFFCURVE",
"123 -14 OFFCURVE",
"267 -14 CURVE SMOOTH",
"404 -14 OFFCURVE",
"488 65 OFFCURVE",
"488 210 CURVE SMOOTH",
"488 700 LINE"
);
}
);
width = 550;
},
{
layerId = "CEFBB1E5-951F-4065-926E-8B9137F837F5";
paths = (
{
closed = 1;
nodes = (
"404 700 LINE",
"404 210 LINE SMOOTH",
"404 112 OFFCURVE",
"368 44 OFFCURVE",
"262 44 CURVE SMOOTH",
"158 44 OFFCURVE",
"108 112 OFFCURVE",
"108 210 CURVE SMOOTH",
"108 259 LINE",
"44 259 LINE",
"44 210 LINE SMOOTH",
"44 64 OFFCURVE",
"127 -14 OFFCURVE",
"261 -14 CURVE SMOOTH",
"399 -14 OFFCURVE",
"468 64 OFFCURVE",
"468 210 CURVE SMOOTH",
"468 700 LINE"
);
}
);
width = 548;
}
);
leftKerningGroup = J;
leftMetricsKey = J;
note = J;
rightKerningGroup = U;
rightMetricsKey = U;
},
{
glyphname = I.ss03;
lastChange = "2020-05-16 12:15:20 +0000";
layers = (
{
anchors = (
{
name = bottom;
position = "{222, 0}";
},
{
name = ogonek;
position = "{222, 0}";
},
{
name = top;
position = "{222, 700}";
}
);
layerId = "5117E3E8-E17C-4812-BAF5-9E7064564A59";
paths = (
{
closed = 1;
nodes = (
"46 584 LINE",
"156 584 LINE",
"156 116 LINE",
"46 116 LINE",
"46 0 LINE",
"398 0 LINE",
"398 116 LINE",
"288 116 LINE",
"288 584 LINE",
"398 584 LINE",
"398 700 LINE",
"46 700 LINE"
);
}
);
width = 444;
},
{
anchors = (
{
name = bottom;
position = "{197, 0}";
},
{
name = ogonek;
position = "{197, 0}";
},
{
name = top;
position = "{197, 700}";
}
);
layerId = "CEFBB1E5-951F-4065-926E-8B9137F837F5";
paths = (
{
closed = 1;
nodes = (
"48 642 LINE",
"166 642 LINE",
"166 58 LINE",
"48 58 LINE",
"48 0 LINE",
"347 0 LINE",
"347 58 LINE",
"229 58 LINE",
"229 642 LINE",
"347 642 LINE",
"347 700 LINE",
"48 700 LINE"
);
}
);
width = 395;
}
);
leftKerningGroup = Serif;
note = I;
rightKerningGroup = Serif;
},
{
glyphname = a;
lastChange = "2020-06-02 18:35:44 +0000";
layers = (
{
anchors = (
{
name = bottom;
position = "{276, 0}";
},
{
name = ogonek;
position = "{468, 0}";
},
{
name = top;
position = "{281, 496}";
}
);
layerId = "5117E3E8-E17C-4812-BAF5-9E7064564A59";
paths = (
{
closed = 1;
nodes = (
"174 331 LINE",
"183 376 OFFCURVE",
"211 408 OFFCURVE",
"274 408 CURVE SMOOTH",
"338 408 OFFCURVE",
"366 374 OFFCURVE",
"366 328 CURVE SMOOTH",
"366 300 LINE",
"230 300 LINE SMOOTH",
"118 300 OFFCURVE",
"38 247 OFFCURVE",
"38 145 CURVE SMOOTH",
"38 43 OFFCURVE",
"118 -14 OFFCURVE",
"224 -14 CURVE SMOOTH",
"328 -14 OFFCURVE",
"359 42 OFFCURVE",
"368 67 CURVE",
"488 67 LINE",
"488 319 LINE SMOOTH",
"488 443 OFFCURVE",
"406 510 OFFCURVE",
"276 510 CURVE SMOOTH",
"147 510 OFFCURVE",
"82 445 OFFCURVE",
"58 370 CURVE"
);
},
{
closed = 1;
nodes = (
"164 185 OFFCURVE",
"192 206 OFFCURVE",
"239 206 CURVE SMOOTH",
"366 206 LINE",
"366 196 LINE SMOOTH",
"366 130 OFFCURVE",
"316 88 OFFCURVE",
"246 88 CURVE SMOOTH",
"192 88 OFFCURVE",
"164 113 OFFCURVE",
"164 149 CURVE SMOOTH"
);
},
{
closed = 1;
nodes = (
"384 162 LINE",
"384 92 LINE SMOOTH",
"384 36 OFFCURVE",
"418 0 OFFCURVE",
"472 0 CURVE SMOOTH",
"556 0 LINE",
"556 104 LINE",
"516 104 LINE SMOOTH",
"498 104 OFFCURVE",
"488 114 OFFCURVE",
"488 134 CURVE SMOOTH",
"488 162 LINE"
);
}
);
width = 578;
},
{
anchors = (
{
name = bottom;
position = "{287, 0}";
},
{
name = ogonek;
position = "{475, 0}";
},
{
name = top;
position = "{282, 486}";
}
);
layerId = "CEFBB1E5-951F-4065-926E-8B9137F837F5";
paths = (
{
closed = 1;
nodes = (
"128 330 LINE",
"145 400 OFFCURVE",
"194 446 OFFCURVE",
"280 446 CURVE SMOOTH",
"367 446 OFFCURVE",
"413 399 OFFCURVE",
"413 321 CURVE SMOOTH",
"413 282 LINE",
"235 282 LINE SMOOTH",
"134 282 OFFCURVE",
"55 234 OFFCURVE",
"55 137 CURVE SMOOTH",
"55 40 OFFCURVE",
"134 -14 OFFCURVE",
"237 -14 CURVE SMOOTH",
"337 -14 OFFCURVE",
"381 31 OFFCURVE",
"407 76 CURVE",
"473 78 LINE",
"473 318 LINE SMOOTH",
"473 432 OFFCURVE",
"402 500 OFFCURVE",
"280 500 CURVE SMOOTH",
"159 500 OFFCURVE",
"93 432 OFFCURVE",
"70 347 CURVE"
);
},
{
closed = 1;
nodes = (
"115 200 OFFCURVE",
"167 230 OFFCURVE",
"236 230 CURVE SMOOTH",
"413 230 LINE",
"413 218 LINE SMOOTH",
"413 105 OFFCURVE",
"344 40 OFFCURVE",
"241 40 CURVE SMOOTH",
"167 40 OFFCURVE",
"115 75 OFFCURVE",
"115 138 CURVE SMOOTH"
);
},
{
closed = 1;
nodes = (
"417 96 LINE",
"417 69 LINE SMOOTH",
"417 26 OFFCURVE",
"443 0 OFFCURVE",
"484 0 CURVE SMOOTH",
"548 0 LINE",
"548 52 LINE",
"501 52 LINE SMOOTH",
"483 52 OFFCURVE",
"473 62 OFFCURVE",
"473 82 CURVE SMOOTH",
"473 98 LINE"
);
}
);
width = 574;
}
);
leftKerningGroup = a;
note = a.alt;
rightKerningGroup = a;
unicode = 0061;
},
{
glyphname = ae;
lastChange = "2020-05-18 13:06:36 +0000";
layers = (
{
anchors = (
{
name = top;
position = "{444, 496}";
}
);
layerId = "5117E3E8-E17C-4812-BAF5-9E7064564A59";
paths = (
{
closed = 1;
nodes = (
"164 331 LINE",
"177 375 OFFCURVE",
"209 408 OFFCURVE",
"270 408 CURVE SMOOTH",
"334 408 OFFCURVE",
"368 373 OFFCURVE",
"368 328 CURVE SMOOTH",
"368 299 LINE",
"234 299 LINE SMOOTH",
"118 299 OFFCURVE",
"38 246 OFFCURVE",
"38 144 CURVE SMOOTH",
"38 42 OFFCURVE",
"120 -14 OFFCURVE",
"236 -14 CURVE SMOOTH",
"353 -14 OFFCURVE",
"399 45 OFFCURVE",
"417 75 CURVE",
"445 75 LINE",
"436 260 LINE",
"458 442 LINE",
"430 442 LINE",
"398 482 OFFCURVE",
"351 510 OFFCURVE",
"270 510 CURVE SMOOTH",
"145 510 OFFCURVE",
"79 445 OFFCURVE",
"52 370 CURVE"
);
},
{
closed = 1;
nodes = (
"162 185 OFFCURVE",
"192 205 OFFCURVE",
"243 205 CURVE SMOOTH",
"368 205 LINE",
"368 198 LINE SMOOTH",
"368 132 OFFCURVE",
"320 88 OFFCURVE",
"250 88 CURVE SMOOTH",
"192 88 OFFCURVE",
"162 113 OFFCURVE",
"162 149 CURVE SMOOTH"
);
},
{
closed = 1;
nodes = (
"378 106 OFFCURVE",
"473 -14 OFFCURVE",
"615 -14 CURVE SMOOTH",
"726 -14 OFFCURVE",
"780 39 OFFCURVE",
"819 94 CURVE",
"726 161 LINE",
"708 132 OFFCURVE",
"677 96 OFFCURVE",
"609 96 CURVE SMOOTH",
"539 96 OFFCURVE",
"494 142 OFFCURVE",
"491 205 CURVE",
"832 205 LINE",
"832 266 LINE SMOOTH",
"832 400 OFFCURVE",
"751 510 OFFCURVE",
"607 510 CURVE SMOOTH",
"473 510 OFFCURVE",
"378 398 OFFCURVE",
"378 252 CURVE SMOOTH"
);
},
{
closed = 1;
nodes = (
"494 360 OFFCURVE",
"535 400 OFFCURVE",
"602 400 CURVE SMOOTH",
"665 400 OFFCURVE",
"706 362 OFFCURVE",
"708 299 CURVE",
"492 299 LINE"
);
}
);
width = 874;
},
{
anchors = (
{
name = top;
position = "{480, 486}";
}
);
layerId = "CEFBB1E5-951F-4065-926E-8B9137F837F5";
paths = (
{
closed = 1;
nodes = (
"125 332 LINE",
"144 401 OFFCURVE",
"197 446 OFFCURVE",
"285 446 CURVE SMOOTH",
"372 446 OFFCURVE",
"425 399 OFFCURVE",
"425 321 CURVE SMOOTH",
"425 278 LINE",
"242 278 LINE SMOOTH",
"135 278 OFFCURVE",
"55 232 OFFCURVE",
"55 135 CURVE SMOOTH",
"55 38 OFFCURVE",
"137 -14 OFFCURVE",
"249 -14 CURVE SMOOTH",
"365 -14 OFFCURVE",
"425 44 OFFCURVE",
"451 110 CURVE",
"476 110 LINE",
"461 253 LINE",
"483 397 LINE",
"462 397 LINE",
"437 460 OFFCURVE",
"375 500 OFFCURVE",
"285 500 CURVE SMOOTH",
"162 500 OFFCURVE",
"92 432 OFFCURVE",
"69 349 CURVE"
);
},
{
closed = 1;
nodes = (
"114 197 OFFCURVE",
"170 227 OFFCURVE",
"243 227 CURVE SMOOTH",
"425 227 LINE",
"425 217 LINE SMOOTH",
"425 103 OFFCURVE",
"354 37 OFFCURVE",
"251 37 CURVE SMOOTH",
"172 37 OFFCURVE",
"114 74 OFFCURVE",
"114 136 CURVE SMOOTH"
);
},
{
closed = 1;
nodes = (
"430 100 OFFCURVE",
"524 -14 OFFCURVE",
"670 -14 CURVE SMOOTH",
"787 -14 OFFCURVE",
"840 49 OFFCURVE",
"876 119 CURVE",
"824 146 LINE",
"798 89 OFFCURVE",
"756 40 OFFCURVE",
"669 40 CURVE SMOOTH",
"563 40 OFFCURVE",
"492 111 OFFCURVE",
"486 227 CURVE",
"886 227 LINE",
"886 263 LINE SMOOTH",
"886 410 OFFCURVE",
"795 500 OFFCURVE",
"661 500 CURVE SMOOTH",
"526 500 OFFCURVE",
"430 390 OFFCURVE",
"430 247 CURVE SMOOTH"
);
},
{
closed = 1;
nodes = (
"497 382 OFFCURVE",
"565 445 OFFCURVE",
"661 445 CURVE SMOOTH",
"757 445 OFFCURVE",
"821 387 OFFCURVE",
"825 278 CURVE",
"486 278 LINE"
);
}
);
width = 946;
}
);
leftKerningGroup = a;
leftMetricsKey = a;
note = ae;
rightKerningGroup = o;
rightMetricsKey = e;
unicode = 00E6;
},
{
glyphname = b;
lastChange = "2020-05-18 13:06:32 +0000";
layers = (
{
layerId = "5117E3E8-E17C-4812-BAF5-9E7064564A59";
paths = (
{
closed = 1;
nodes = (
"70 0 LINE",
"194 0 LINE",
"194 60 LINE",
"212 60 LINE",
"235 22 OFFCURVE",
"278 -14 OFFCURVE",
"368 -14 CURVE SMOOTH",
"487 -14 OFFCURVE",
"592 78 OFFCURVE",
"592 240 CURVE SMOOTH",
"592 256 LINE SMOOTH",
"592 418 OFFCURVE",
"488 510 OFFCURVE",
"368 510 CURVE SMOOTH",
"278 510 OFFCURVE",
"235 474 OFFCURVE",
"214 439 CURVE",
"196 439 LINE",
"196 700 LINE",
"70 700 LINE"
);
},
{
closed = 1;
nodes = (
"408 400 OFFCURVE",
"466 349 OFFCURVE",
"466 253 CURVE SMOOTH",
"466 243 LINE SMOOTH",
"466 147 OFFCURVE",
"407 96 OFFCURVE",
"330 96 CURVE SMOOTH",
"253 96 OFFCURVE",
"194 147 OFFCURVE",
"194 243 CURVE SMOOTH",
"194 253 LINE SMOOTH",
"194 349 OFFCURVE",
"252 400 OFFCURVE",
"330 400 CURVE SMOOTH"
);
}
);
width = 638;
},
{
layerId = "CEFBB1E5-951F-4065-926E-8B9137F837F5";
paths = (
{
closed = 1;
nodes = (
"88 0 LINE",
"146 0 LINE",
"146 89 LINE",
"158 89 LINE",
"186 36 OFFCURVE",
"241 -14 OFFCURVE",
"348 -14 CURVE SMOOTH",
"478 -14 OFFCURVE",
"582 82 OFFCURVE",
"582 237 CURVE SMOOTH",
"582 249 LINE SMOOTH",
"582 403 OFFCURVE",
"479 500 OFFCURVE",
"348 500 CURVE SMOOTH",
"241 500 OFFCURVE",
"186 450 OFFCURVE",
"160 401 CURVE",
"148 401 LINE",
"148 700 LINE",
"88 700 LINE"
);
},
{
closed = 1;
nodes = (
"444 446 OFFCURVE",
"520 371 OFFCURVE",
"520 247 CURVE SMOOTH",
"520 239 LINE SMOOTH",
"520 115 OFFCURVE",
"444 40 OFFCURVE",
"334 40 CURVE SMOOTH",
"224 40 OFFCURVE",
"148 115 OFFCURVE",
"148 239 CURVE SMOOTH",
"148 247 LINE SMOOTH",
"148 371 OFFCURVE",
"224 446 OFFCURVE",
"334 446 CURVE SMOOTH"
);
}
);
width = 646;
}
);
leftKerningGroup = l;
leftMetricsKey = l;
note = b;
rightKerningGroup = o;
rightMetricsKey = o;
unicode = 0062;
},
{
glyphname = c;
lastChange = "2020-05-18 14:42:23 +0000";
layers = (
{
anchors = (
{
name = bottom;
position = "{303, 0}";
},
{
name = top;
position = "{303, 496}";
}
);
layerId = "5117E3E8-E17C-4812-BAF5-9E7064564A59";
rightMetricsKey = "=o-12";
paths = (
{
closed = 1;
nodes = (
"46 241 LINE SMOOTH",
"46 79 OFFCURVE",
"159 -14 OFFCURVE",
"303 -14 CURVE SMOOTH",
"445 -14 OFFCURVE",
"526 69 OFFCURVE",
"552 176 CURVE",
"430 205 LINE",
"419 141 OFFCURVE",
"382 98 OFFCURVE",
"306 98 CURVE SMOOTH",
"230 98 OFFCURVE",
"172 149 OFFCURVE",
"172 243 CURVE SMOOTH",
"172 253 LINE SMOOTH",
"172 347 OFFCURVE",
"230 398 OFFCURVE",
"306 398 CURVE SMOOTH",
"382 398 OFFCURVE",
"419 352 OFFCURVE",
"427 292 CURVE",
"549 318 LINE",
"528 428 OFFCURVE",
"445 510 OFFCURVE",
"303 510 CURVE SMOOTH",
"159 510 OFFCURVE",
"46 417 OFFCURVE",
"46 255 CURVE SMOOTH"
);
}
);
width = 586;
},
{
anchors = (
{
name = bottom;
position = "{310, 0}";
},
{
name = top;
position = "{310, 486}";
}
);
layerId = "CEFBB1E5-951F-4065-926E-8B9137F837F5";
paths = (
{
closed = 1;
nodes = (
"64 238 LINE SMOOTH",
"64 83 OFFCURVE",
"168 -14 OFFCURVE",
"310 -14 CURVE SMOOTH",
"450 -14 OFFCURVE",
"525 76 OFFCURVE",
"543 171 CURVE",
"484 183 LINE",
"471 103 OFFCURVE",
"416 40 OFFCURVE",
"310 40 CURVE SMOOTH",
"204 40 OFFCURVE",
"124 117 OFFCURVE",
"124 239 CURVE SMOOTH",
"124 247 LINE SMOOTH",
"124 369 OFFCURVE",
"204 446 OFFCURVE",
"310 446 CURVE SMOOTH",
"416 446 OFFCURVE",
"470 380 OFFCURVE",
"480 303 CURVE",
"539 315 LINE",
"525 409 OFFCURVE",
"450 500 OFFCURVE",
"310 500 CURVE SMOOTH",
"168 500 OFFCURVE",
"64 403 OFFCURVE",
"64 248 CURVE SMOOTH"
);
}
);
width = 603;
}
);
leftKerningGroup = o;
leftMetricsKey = o;
note = c;
rightKerningGroup = o;
rightMetricsKey = "=o-4";
unicode = 0063;
},
{
glyphname = d;
lastChange = "2020-06-02 08:48:13 +0000";
layers = (
{
anchors = (
{
name = sidecaron;
position = "{568, 700}";
},
{
name = strokeB;
position = "{568, 496}";
}
);
layerId = "5117E3E8-E17C-4812-BAF5-9E7064564A59";
paths = (
{
closed = 1;
nodes = (
"442 700 LINE",
"442 439 LINE",
"424 439 LINE",
"403 474 OFFCURVE",
"360 510 OFFCURVE",
"270 510 CURVE SMOOTH",
"150 510 OFFCURVE",
"46 418 OFFCURVE",
"46 256 CURVE SMOOTH",
"46 240 LINE SMOOTH",
"46 78 OFFCURVE",
"151 -14 OFFCURVE",
"270 -14 CURVE SMOOTH",
"360 -14 OFFCURVE",
"403 22 OFFCURVE",
"426 60 CURVE",
"444 60 LINE",
"444 0 LINE",
"568 0 LINE",
"568 700 LINE"
);
},
{
closed = 1;
nodes = (
"386 400 OFFCURVE",
"444 349 OFFCURVE",
"444 253 CURVE SMOOTH",
"444 243 LINE SMOOTH",
"444 147 OFFCURVE",
"385 96 OFFCURVE",
"308 96 CURVE SMOOTH",
"231 96 OFFCURVE",
"172 147 OFFCURVE",
"172 243 CURVE SMOOTH",
"172 253 LINE SMOOTH",
"172 349 OFFCURVE",
"230 400 OFFCURVE",
"308 400 CURVE SMOOTH"
);
}
);
width = 638;
},
{
anchors = (
{
name = sidecaron;
position = "{558, 700}";
},
{
name = strokeB;
position = "{558, 486}";
}
);
layerId = "CEFBB1E5-951F-4065-926E-8B9137F837F5";
paths = (
{
closed = 1;
nodes = (
"498 700 LINE",
"498 401 LINE",
"486 401 LINE",
"460 450 OFFCURVE",
"405 500 OFFCURVE",
"298 500 CURVE SMOOTH",
"167 500 OFFCURVE",
"64 403 OFFCURVE",
"64 249 CURVE SMOOTH",
"64 237 LINE SMOOTH",
"64 82 OFFCURVE",
"168 -14 OFFCURVE",
"298 -14 CURVE SMOOTH",
"405 -14 OFFCURVE",
"460 36 OFFCURVE",
"488 89 CURVE",
"500 89 LINE",
"500 0 LINE",
"558 0 LINE",
"558 700 LINE"
);
},
{
closed = 1;
nodes = (
"422 446 OFFCURVE",
"498 371 OFFCURVE",
"498 247 CURVE SMOOTH",
"498 239 LINE SMOOTH",
"498 115 OFFCURVE",
"422 40 OFFCURVE",
"312 40 CURVE SMOOTH",
"202 40 OFFCURVE",
"126 115 OFFCURVE",
"126 239 CURVE SMOOTH",
"126 247 LINE SMOOTH",
"126 371 OFFCURVE",
"202 446 OFFCURVE",
"312 446 CURVE SMOOTH"
);
}
);
width = 646;
}
);
leftKerningGroup = o;
leftMetricsKey = o;
note = d;
rightKerningGroup = l;
rightMetricsKey = l;
unicode = 0064;
},
{
glyphname = eth;
lastChange = "2020-06-02 09:12:58 +0000";
layers = (
{
layerId = "5117E3E8-E17C-4812-BAF5-9E7064564A59";
paths = (
{
closed = 1;
nodes = (
"317 623 OFFCURVE",
"406 545 OFFCURVE",
"431 440 CURVE",
"413 440 LINE",
"382 476 OFFCURVE",
"339 501 OFFCURVE",
"271 500 CURVE SMOOTH",
"149 498 OFFCURVE",
"46 401 OFFCURVE",
"46 252 CURVE SMOOTH",
"46 242 LINE SMOOTH",
"46 89 OFFCURVE",
"152 -16 OFFCURVE",
"307 -14 CURVE SMOOTH",
"462 -12 OFFCURVE",
"568 89 OFFCURVE",
"568 289 CURVE SMOOTH",
"568 513 OFFCURVE",
"451 695 OFFCURVE",
"228 770 CURVE",
"188 669 LINE"
);
},
{
closed = 1;
nodes = (
"172 343 OFFCURVE",
"228 396 OFFCURVE",
"306 396 CURVE SMOOTH",
"384 396 OFFCURVE",
"440 343 OFFCURVE",
"440 249 CURVE SMOOTH",
"440 245 LINE SMOOTH",
"440 151 OFFCURVE",
"383 98 OFFCURVE",
"306 98 CURVE SMOOTH",
"229 98 OFFCURVE",
"172 151 OFFCURVE",
"172 245 CURVE SMOOTH",
"172 249 LINE SMOOTH"
);
},
{
closed = 1;
nodes = (
"224 573 LINE",
"282 530 LINE",
"436 740 LINE",
"377 784 LINE"
);
}
);
width = 616;
},
{
layerId = "CEFBB1E5-951F-4065-926E-8B9137F837F5";
paths = (
{
closed = 1;
nodes = (
"365 621 OFFCURVE",
"447 533 OFFCURVE",
"474 431 CURVE",
"463 431 LINE",
"429 471 OFFCURVE",
"377 499 OFFCURVE",
"300 499 CURVE SMOOTH",
"161 499 OFFCURVE",
"64 399 OFFCURVE",
"64 249 CURVE SMOOTH",
"64 237 LINE SMOOTH",
"64 86 OFFCURVE",
"162 -14 OFFCURVE",
"310 -14 CURVE SMOOTH",
"459 -14 OFFCURVE",
"556 86 OFFCURVE",
"556 261 CURVE SMOOTH",
"556 517 OFFCURVE",
"434 651 OFFCURVE",
"229 711 CURVE",
"211 665 LINE"
);
},
{
closed = 1;
nodes = (
"124 366 OFFCURVE",
"196 446 OFFCURVE",
"310 446 CURVE SMOOTH",
"423 446 OFFCURVE",
"496 366 OFFCURVE",
"496 247 CURVE SMOOTH",
"496 239 LINE SMOOTH",
"496 120 OFFCURVE",
"422 40 OFFCURVE",
"310 40 CURVE SMOOTH",
"197 40 OFFCURVE",
"124 120 OFFCURVE",
"124 239 CURVE SMOOTH",
"124 247 LINE SMOOTH"
);
},
{
closed = 1;
nodes = (
"256 576 LINE",
"294 550 LINE",
"404 701 LINE",
"366 727 LINE"
);
}
);
width = 614;
}
);
leftKerningGroup = o;
leftMetricsKey = o;
note = eth;
rightKerningGroup = o;
unicode = 00F0;
},
{
glyphname = e;
lastChange = "2020-05-18 13:06:32 +0000";
layers = (
{
anchors = (
{
name = bottom;
position = "{296, 0}";
},
{
name = ogonek;
position = "{384, 0}";
},
{
name = top;
position = "{294, 496}";
}
);
layerId = "5117E3E8-E17C-4812-BAF5-9E7064564A59";
paths = (
{
closed = 1;
nodes = (
"46 242 LINE SMOOTH",
"46 86 OFFCURVE",
"147 -14 OFFCURVE",
"296 -14 CURVE SMOOTH",
"432 -14 OFFCURVE",
"491 63 OFFCURVE",
"519 116 CURVE",
"416 170 LINE",
"399 132 OFFCURVE",
"370 96 OFFCURVE",
"300 96 CURVE SMOOTH",
"230 96 OFFCURVE",
"177 143 OFFCURVE",
"174 211 CURVE",
"535 211 LINE",
"535 254 LINE SMOOTH",
"535 406 OFFCURVE",
"440 510 OFFCURVE",
"294 510 CURVE SMOOTH",
"146 510 OFFCURVE",
"46 410 OFFCURVE",
"46 254 CURVE SMOOTH"
);
},
{
closed = 1;
nodes = (
"184 362 OFFCURVE",
"225 400 OFFCURVE",
"293 400 CURVE SMOOTH",
"358 400 OFFCURVE",
"401 362 OFFCURVE",
"407 305 CURVE",
"175 305 LINE"
);
}
);
width = 577;
},
{
anchors = (
{
name = bottom;
position = "{312, 0}";
},
{
name = ogonek;
position = "{371, 0}";
},
{
name = top;
position = "{305, 486}";
}
);
layerId = "CEFBB1E5-951F-4065-926E-8B9137F837F5";
paths = (
{
closed = 1;
nodes = (
"64 237 LINE SMOOTH",
"64 88 OFFCURVE",
"162 -14 OFFCURVE",
"312 -14 CURVE SMOOTH",
"441 -14 OFFCURVE",
"498 57 OFFCURVE",
"529 123 CURVE",
"475 147 LINE",
"448 87 OFFCURVE",
"403 40 OFFCURVE",
"312 40 CURVE SMOOTH",
"205 40 OFFCURVE",
"128 109 OFFCURVE",
"124 230 CURVE",
"538 230 LINE",
"538 262 LINE SMOOTH",
"538 410 OFFCURVE",
"441 500 OFFCURVE",
"305 500 CURVE SMOOTH",
"165 500 OFFCURVE",
"64 398 OFFCURVE",
"64 249 CURVE SMOOTH"
);
},
{
closed = 1;
nodes = (
"139 387 OFFCURVE",
"208 446 OFFCURVE",
"305 446 CURVE SMOOTH",
"403 446 OFFCURVE",
"472 387 OFFCURVE",
"477 282 CURVE",
"125 282 LINE"
);
}
);
width = 598;
}
);
leftKerningGroup = o;
leftMetricsKey = o;
note = e;
rightKerningGroup = o;
rightMetricsKey = "=o-4";
unicode = 0065;
},
{
glyphname = f;
lastChange = "2020-06-02 08:50:21 +0000";
layers = (
{
layerId = "5117E3E8-E17C-4812-BAF5-9E7064564A59";
paths = (
{
closed = 1;
nodes = (
"26 392 LINE",
"152 392 LINE",
"152 0 LINE",
"278 0 LINE",
"278 392 LINE",
"408 392 LINE",
"408 496 LINE",
"278 496 LINE",
"278 566 LINE SMOOTH",
"278 586 OFFCURVE",
"288 596 OFFCURVE",
"306 596 CURVE SMOOTH",
"392 596 LINE",
"392 700 LINE",
"262 700 LINE SMOOTH",
"196 700 OFFCURVE",
"152 656 OFFCURVE",
"152 588 CURVE SMOOTH",
"152 496 LINE",
"26 496 LINE"
);
}
);
width = 436;
},
{
layerId = "CEFBB1E5-951F-4065-926E-8B9137F837F5";
paths = (
{
closed = 1;
nodes = (
"30 432 LINE",
"190 432 LINE",
"190 0 LINE",
"250 0 LINE",
"250 432 LINE",
"414 432 LINE",
"414 486 LINE",
"250 486 LINE",
"250 616 LINE SMOOTH",
"250 636 OFFCURVE",
"258 646 OFFCURVE",
"280 646 CURVE SMOOTH",
"388 646 LINE",
"388 700 LINE",
"268 700 LINE SMOOTH",
"216 700 OFFCURVE",
"190 672 OFFCURVE",
"190 624 CURVE SMOOTH",
"190 486 LINE",
"30 486 LINE"
);
}
);
width = 450;
}
);
leftKerningGroup = t;
note = f;
rightKerningGroup = f;
unicode = 0066;
},
{
glyphname = g;
lastChange = "2020-06-02 12:24:36 +0000";
layers = (
{
anchors = (
{
name = top;
position = "{324, 496}";
}
);
layerId = "5117E3E8-E17C-4812-BAF5-9E7064564A59";
paths = (
{
closed = 1;
nodes = (
"444 496 LINE",
"444 436 LINE",
"426 436 LINE",
"404 470 OFFCURVE",
"362 510 OFFCURVE",
"272 510 CURVE SMOOTH",
"149 510 OFFCURVE",
"46 418 OFFCURVE",
"46 262 CURVE SMOOTH",
"46 246 LINE SMOOTH",
"46 90 OFFCURVE",
"150 -2 OFFCURVE",
"272 -2 CURVE SMOOTH",
"363 -2 OFFCURVE",
"404 36 OFFCURVE",
"424 69 CURVE",
"442 69 LINE",
"442 0 LINE",
"568 0 LINE",
"568 496 LINE"
);
},
{
closed = 1;
nodes = (
"386 400 OFFCURVE",
"444 349 OFFCURVE",
"444 259 CURVE SMOOTH",
"444 249 LINE SMOOTH",
"444 159 OFFCURVE",
"385 108 OFFCURVE",
"308 108 CURVE SMOOTH",
"231 108 OFFCURVE",
"172 159 OFFCURVE",
"172 249 CURVE SMOOTH",
"172 259 LINE SMOOTH",
"172 349 OFFCURVE",
"230 400 OFFCURVE",
"308 400 CURVE SMOOTH"
);
},
{
closed = 1;
nodes = (
"126 -200 LINE",
"458 -200 LINE SMOOTH",
"524 -200 OFFCURVE",
"568 -156 OFFCURVE",
"568 -88 CURVE SMOOTH",
"568 0 LINE",
"442 0 LINE",
"442 -60 LINE SMOOTH",
"442 -80 OFFCURVE",
"432 -90 OFFCURVE",
"414 -90 CURVE SMOOTH",
"126 -90 LINE"
);
}
);
width = 638;
},
{
anchors = (
{
name = top;
position = "{328, 486}";
}
);
layerId = "CEFBB1E5-951F-4065-926E-8B9137F837F5";
paths = (
{
closed = 1;
nodes = (
"500 486 LINE",
"500 397 LINE",
"488 397 LINE",
"460 450 OFFCURVE",
"405 500 OFFCURVE",
"298 500 CURVE SMOOTH",
"168 500 OFFCURVE",
"64 406 OFFCURVE",
"64 253 CURVE SMOOTH",
"64 241 LINE SMOOTH",
"64 89 OFFCURVE",
"167 -6 OFFCURVE",
"298 -6 CURVE SMOOTH",
"405 -6 OFFCURVE",
"460 44 OFFCURVE",
"486 93 CURVE",
"498 93 LINE",
"497 0 LINE",
"557 0 LINE",
"558 486 LINE"
);
},
{
closed = 1;
nodes = (
"422 446 OFFCURVE",
"498 373 OFFCURVE",
"498 251 CURVE SMOOTH",
"498 243 LINE SMOOTH",
"498 121 OFFCURVE",
"422 48 OFFCURVE",
"312 48 CURVE SMOOTH",
"202 48 OFFCURVE",
"126 121 OFFCURVE",
"126 243 CURVE SMOOTH",
"126 251 LINE SMOOTH",
"126 373 OFFCURVE",
"202 446 OFFCURVE",
"312 446 CURVE SMOOTH"
);
},
{
closed = 1;
nodes = (
"147 -200 LINE",
"479 -200 LINE SMOOTH",
"531 -200 OFFCURVE",
"557 -172 OFFCURVE",
"557 -124 CURVE SMOOTH",
"557 0 LINE",
"497 0 LINE",
"497 -116 LINE SMOOTH",
"497 -136 OFFCURVE",
"489 -146 OFFCURVE",
"467 -146 CURVE SMOOTH",
"147 -146 LINE"
);
}
);
width = 646;
}
);
leftKerningGroup = o;
leftMetricsKey = o;
note = g;
rightKerningGroup = u;
rightMetricsKey = u;
unicode = 0067;
},
{
glyphname = h;
lastChange = "2020-05-17 18:51:28 +0000";
layers = (
{
anchors = (
{
name = strokeA;
position = "{70, 496}";
}
);
layerId = "5117E3E8-E17C-4812-BAF5-9E7064564A59";
paths = (
{
closed = 1;
nodes = (
"70 0 LINE",
"196 0 LINE",
"196 252 LINE SMOOTH",
"196 344 OFFCURVE",
"241 398 OFFCURVE",
"318 398 CURVE SMOOTH",
"386 398 OFFCURVE",
"424 361 OFFCURVE",
"424 286 CURVE SMOOTH",
"424 0 LINE",
"550 0 LINE",
"550 296 LINE SMOOTH",
"550 419 OFFCURVE",
"473 504 OFFCURVE",
"357 504 CURVE SMOOTH",
"269 504 OFFCURVE",
"230 467 OFFCURVE",
"214 435 CURVE",
"196 435 LINE",
"196 700 LINE",
"70 700 LINE"
);
}
);
width = 616;
},
{
anchors = (
{
name = strokeA;
position = "{88, 486}";
}
);
layerId = "CEFBB1E5-951F-4065-926E-8B9137F837F5";
paths = (
{
closed = 1;
nodes = (
"88 0 LINE",
"148 0 LINE",
"148 243 LINE SMOOTH",
"148 376 OFFCURVE",
"223 441 OFFCURVE",
"323 441 CURVE SMOOTH",
"412 441 OFFCURVE",
"470 398 OFFCURVE",
"470 292 CURVE SMOOTH",
"470 0 LINE",
"530 0 LINE",
"530 296 LINE SMOOTH",
"530 430 OFFCURVE",
"441 495 OFFCURVE",
"336 495 CURVE SMOOTH",
"232 495 OFFCURVE",
"184 448 OFFCURVE",
"160 401 CURVE",
"148 401 LINE",
"148 700 LINE",
"88 700 LINE"
);
}
);
width = 612;
}
);
leftKerningGroup = l;
leftMetricsKey = l;
note = h;
rightKerningGroup = n;
rightMetricsKey = n;
unicode = 0068;
},
{
glyphname = idotless;
lastChange = "2020-05-17 18:51:28 +0000";
layers = (
{
anchors = (
{
name = bottom;
position = "{133, 0}";
},
{
name = ogonek;
position = "{133, 0}";
},
{
name = top;
position = "{133, 496}";
}
);
layerId = "5117E3E8-E17C-4812-BAF5-9E7064564A59";
paths = (
{
closed = 1;
nodes = (
"70 496 LINE",
"70 0 LINE",
"196 0 LINE",
"196 496 LINE"
);
}
);
width = 266;
},
{
anchors = (
{
name = bottom;
position = "{118, 0}";
},
{
name = ogonek;
position = "{118, 0}";
},
{
name = top;
position = "{118, 486}";
}
);
layerId = "CEFBB1E5-951F-4065-926E-8B9137F837F5";
paths = (
{
closed = 1;
nodes = (
"88 486 LINE",
"88 0 LINE",
"148 0 LINE",
"148 486 LINE"
);
}
);
width = 236;
}
);
leftKerningGroup = n;
leftMetricsKey = l;
note = dotlessi;
rightKerningGroup = u;
rightMetricsKey = l;
unicode = 0131;
},
{
glyphname = jdotless;
lastChange = "2020-05-17 18:55:13 +0000";
layers = (
{
anchors = (
{
name = top;
position = "{135, 496}";
}
);
layerId = "5117E3E8-E17C-4812-BAF5-9E7064564A59";
paths = (
{
closed = 1;
nodes = (
"72 496 LINE",
"72 -62 LINE SMOOTH",
"72 -82 OFFCURVE",
"62 -92 OFFCURVE",
"44 -92 CURVE SMOOTH",
"-22 -92 LINE",
"-22 -200 LINE",
"88 -200 LINE SMOOTH",
"154 -200 OFFCURVE",
"198 -156 OFFCURVE",
"198 -88 CURVE SMOOTH",
"198 496 LINE"
);
}
);
width = 268;
},
{
anchors = (
{
name = top;
position = "{120, 486}";
}
);
layerId = "CEFBB1E5-951F-4065-926E-8B9137F837F5";
paths = (
{
closed = 1;
nodes = (
"90 486 LINE",
"90 -116 LINE SMOOTH",
"90 -136 OFFCURVE",
"82 -146 OFFCURVE",
"60 -146 CURVE SMOOTH",
"-10 -146 LINE",
"-10 -200 LINE",
"72 -200 LINE SMOOTH",
"124 -200 OFFCURVE",
"150 -172 OFFCURVE",
"150 -124 CURVE SMOOTH",
"150 486 LINE"
);
}
);
width = 238;
}
);
leftKerningGroup = n;
note = uni0237;
rightKerningGroup = u;
rightMetricsKey = idotless;
unicode = 0237;
},
{
glyphname = k;
lastChange = "2020-05-17 18:51:28 +0000";
layers = (
{
anchors = (
{
name = bottom;
position = "{283, 0}";
}
);
layerId = "5117E3E8-E17C-4812-BAF5-9E7064564A59";
paths = (
{
closed = 1;
nodes = (
"196 0 LINE",
"196 197 LINE",
"214 197 LINE",
"388 0 LINE",
"550 0 LINE",
"313 256 LINE",
"542 496 LINE",
"378 496 LINE",
"214 313 LINE",
"196 313 LINE",
"196 700 LINE",
"70 700 LINE",
"70 0 LINE"
);
}
);
width = 564;
},
{
anchors = (
{
name = bottom;
position = "{278, 0}";
}
);
layerId = "CEFBB1E5-951F-4065-926E-8B9137F837F5";
paths = (
{
closed = 1;
nodes = (
"148 0 LINE",
"148 223 LINE",
"160 223 LINE",
"418 0 LINE",
"505 0 LINE",
"209 253 LINE",
"490 486 LINE",
"402 486 LINE",
"160 282 LINE",
"148 282 LINE",
"148 700 LINE",
"88 700 LINE",
"88 0 LINE"
);
}
);
width = 527;
}
);
leftKerningGroup = l;
leftMetricsKey = l;
note = k;
rightKerningGroup = k;
unicode = 006B;
},
{
glyphname = l;
lastChange = "2020-05-17 18:51:28 +0000";
layers = (
{
anchors = (
{
name = bottom;
position = "{133, 0}";
},
{
name = sidecaron;
position = "{196, 700}";
},
{
name = top;
position = "{133, 700}";
}
);
layerId = "5117E3E8-E17C-4812-BAF5-9E7064564A59";
paths = (
{
closed = 1;
nodes = (
"70 700 LINE",
"70 0 LINE",
"196 0 LINE",
"196 700 LINE"
);
}
);
width = 266;
},
{
anchors = (
{
name = bottom;
position = "{118, 0}";
},
{
name = sidecaron;
position = "{148, 700}";
},
{
name = top;
position = "{118, 700}";
}
);
layerId = "CEFBB1E5-951F-4065-926E-8B9137F837F5";
paths = (
{
closed = 1;
nodes = (
"88 700 LINE",
"88 0 LINE",
"148 0 LINE",
"148 700 LINE"
);
}
);
width = 236;
}
);
leftKerningGroup = l;
note = l;
rightKerningGroup = l;
unicode = 006C;
},
{
glyphname = lslash;
lastChange = "2020-06-02 12:21:44 +0000";
layers = (
{
layerId = "5117E3E8-E17C-4812-BAF5-9E7064564A59";
paths = (
{
closed = 1;
nodes = (
"147 700 LINE",
"147 0 LINE",
"273 0 LINE",
"273 700 LINE"
);
},
{
closed = 1;
nodes = (
"53 187 LINE",
"404 359 LINE",
"367 434 LINE",
"16 262 LINE"
);
}
);
width = 420;
},
{
layerId = "CEFBB1E5-951F-4065-926E-8B9137F837F5";
paths = (
{
closed = 1;
nodes = (
"144 700 LINE",
"144 0 LINE",
"204 0 LINE",
"204 700 LINE"
);
},
{
closed = 1;
nodes = (
"50 204 LINE",
"320 349 LINE",
"298 390 LINE",
"28 245 LINE"
);
}
);
width = 348;
}
);
leftKerningGroup = lslash;
note = lslash;
rightKerningGroup = lslash;
unicode = 0142;
},
{
glyphname = m;
lastChange = "2020-05-17 18:51:28 +0000";
layers = (
{
layerId = "5117E3E8-E17C-4812-BAF5-9E7064564A59";
paths = (
{
closed = 1;
nodes = (
"70 0 LINE",
"196 0 LINE",
"196 293 LINE SMOOTH",
"196 361 OFFCURVE",
"228 399 OFFCURVE",
"286 399 CURVE SMOOTH",
"336 399 OFFCURVE",
"366 371 OFFCURVE",
"366 317 CURVE SMOOTH",
"366 0 LINE",
"492 0 LINE",
"492 293 LINE SMOOTH",
"492 361 OFFCURVE",
"524 399 OFFCURVE",
"582 399 CURVE SMOOTH",
"632 399 OFFCURVE",
"662 371 OFFCURVE",
"662 317 CURVE SMOOTH",
"662 0 LINE",
"788 0 LINE",
"788 326 LINE SMOOTH",
"788 446 OFFCURVE",
"714 504 OFFCURVE",
"622 504 CURVE SMOOTH",
"546 504 OFFCURVE",
"508 472 OFFCURVE",
"486 430 CURVE",
"468 430 LINE",
"445 474 OFFCURVE",
"405 504 OFFCURVE",
"334 504 CURVE SMOOTH",
"268 504 OFFCURVE",
"229 475 OFFCURVE",
"212 442 CURVE",
"194 442 LINE",
"194 496 LINE",
"70 496 LINE"
);
}
);
width = 854;
},
{
layerId = "CEFBB1E5-951F-4065-926E-8B9137F837F5";
paths = (
{
closed = 1;
nodes = (
"88 0 LINE",
"148 0 LINE",
"148 295 LINE SMOOTH",
"148 391 OFFCURVE",
"207 442 OFFCURVE",
"284 442 CURVE SMOOTH",
"360 442 OFFCURVE",
"404 396 OFFCURVE",
"404 327 CURVE SMOOTH",
"404 0 LINE",
"464 0 LINE",
"464 295 LINE SMOOTH",
"464 391 OFFCURVE",
"523 442 OFFCURVE",
"600 442 CURVE SMOOTH",
"676 442 OFFCURVE",
"720 396 OFFCURVE",
"720 327 CURVE SMOOTH",
"720 0 LINE",
"780 0 LINE",
"780 333 LINE SMOOTH",
"780 430 OFFCURVE",
"713 496 OFFCURVE",
"614 496 CURVE SMOOTH",
"527 496 OFFCURVE",
"482 455 OFFCURVE",
"460 404 CURVE",
"448 404 LINE",
"426 454 OFFCURVE",
"378 496 OFFCURVE",
"300 496 CURVE SMOOTH",
"218 496 OFFCURVE",
"178 458 OFFCURVE",
"158 422 CURVE",
"146 422 LINE",
"146 486 LINE",
"88 486 LINE"
);
}
);
width = 862;
}
);
leftKerningGroup = n;
leftMetricsKey = idotless;
note = m;
rightKerningGroup = n;
rightMetricsKey = n;
unicode = 006D;
},
{
glyphname = n;
lastChange = "2020-06-02 12:24:39 +0000";
layers = (
{
anchors = (
{
name = bottom;
position = "{310, 0}";
},
{
name = top;
position = "{303, 496}";
}
);
layerId = "5117E3E8-E17C-4812-BAF5-9E7064564A59";
paths = (
{
closed = 1;
nodes = (
"70 0 LINE",
"196 0 LINE",
"196 252 LINE SMOOTH",
"196 344 OFFCURVE",
"241 398 OFFCURVE",
"318 398 CURVE SMOOTH",
"386 398 OFFCURVE",
"424 361 OFFCURVE",
"424 286 CURVE SMOOTH",
"424 0 LINE",
"550 0 LINE",
"550 296 LINE SMOOTH",
"550 419 OFFCURVE",
"473 504 OFFCURVE",
"357 504 CURVE SMOOTH",
"268 504 OFFCURVE",
"228 465 OFFCURVE",
"212 431 CURVE",
"194 431 LINE",
"194 496 LINE",
"70 496 LINE"
);
}
);
width = 616;
},
{
anchors = (
{
name = bottom;
position = "{309, 0}";
},
{
name = top;
position = "{310, 486}";
}
);
layerId = "CEFBB1E5-951F-4065-926E-8B9137F837F5";
paths = (
{
closed = 1;
nodes = (
"88 0 LINE",
"148 0 LINE",
"148 243 LINE SMOOTH",
"148 376 OFFCURVE",
"223 442 OFFCURVE",
"323 442 CURVE SMOOTH",
"412 442 OFFCURVE",
"470 398 OFFCURVE",
"470 292 CURVE SMOOTH",
"470 0 LINE",
"530 0 LINE",
"530 296 LINE SMOOTH",
"530 430 OFFCURVE",
"441 496 OFFCURVE",
"336 496 CURVE SMOOTH",
"232 496 OFFCURVE",
"182 448 OFFCURVE",
"158 396 CURVE",
"146 396 LINE",
"146 486 LINE",
"88 486 LINE"
);
}
);
width = 612;
}
);
leftKerningGroup = n;
leftMetricsKey = idotless;
note = n;
rightKerningGroup = n;
unicode = 006E;
},
{
glyphname = eng;
lastChange = "2020-05-17 18:52:25 +0000";
layers = (
{
layerId = "5117E3E8-E17C-4812-BAF5-9E7064564A59";
paths = (
{
closed = 1;
nodes = (
"70 0 LINE",
"196 0 LINE",
"196 252 LINE SMOOTH",
"196 344 OFFCURVE",
"241 398 OFFCURVE",
"318 398 CURVE SMOOTH",
"386 398 OFFCURVE",
"424 361 OFFCURVE",
"424 286 CURVE SMOOTH",
"424 0 LINE",
"550 0 LINE",
"550 296 LINE SMOOTH",
"550 419 OFFCURVE",
"473 504 OFFCURVE",
"357 504 CURVE SMOOTH",
"268 504 OFFCURVE",
"228 465 OFFCURVE",
"212 431 CURVE",
"194 431 LINE",
"194 496 LINE",
"70 496 LINE"
);
},
{
closed = 1;
nodes = (
"424 0 LINE",
"424 -62 LINE SMOOTH",
"424 -82 OFFCURVE",
"414 -92 OFFCURVE",
"396 -92 CURVE SMOOTH",
"314 -92 LINE",
"314 -200 LINE",
"440 -200 LINE SMOOTH",
"506 -200 OFFCURVE",
"550 -155 OFFCURVE",
"550 -88 CURVE SMOOTH",
"550 0 LINE"
);
}
);
width = 616;
},
{
layerId = "CEFBB1E5-951F-4065-926E-8B9137F837F5";
paths = (
{
closed = 1;
nodes = (
"88 0 LINE",
"148 0 LINE",
"148 243 LINE SMOOTH",
"148 376 OFFCURVE",
"223 442 OFFCURVE",
"323 442 CURVE SMOOTH",
"412 442 OFFCURVE",
"470 398 OFFCURVE",
"470 292 CURVE SMOOTH",
"470 0 LINE",
"530 0 LINE",
"530 296 LINE SMOOTH",
"530 430 OFFCURVE",
"441 496 OFFCURVE",
"336 496 CURVE SMOOTH",
"232 496 OFFCURVE",
"182 448 OFFCURVE",
"158 396 CURVE",
"146 396 LINE",
"146 486 LINE",
"88 486 LINE"
);
},
{
closed = 1;
nodes = (
"470 0 LINE",
"470 -116 LINE SMOOTH",
"470 -136 OFFCURVE",
"460 -146 OFFCURVE",
"442 -146 CURVE SMOOTH",
"330 -146 LINE",
"330 -200 LINE",
"460 -200 LINE SMOOTH",
"504 -200 OFFCURVE",
"530 -174 OFFCURVE",
"530 -128 CURVE SMOOTH",
"530 0 LINE"
);
}
);
width = 612;
}
);
leftKerningGroup = n;
leftMetricsKey = n;
note = eng;
rightKerningGroup = n;
rightMetricsKey = n;
unicode = 014B;
},
{
glyphname = o;
lastChange = "2020-06-02 12:24:13 +0000";
layers = (
{
anchors = (
{
name = bottom;
position = "{306, 0}";
},
{
name = horn;
position = "{398, 496}";
},
{
name = top;
position = "{306, 496}";
}
);
layerId = "5117E3E8-E17C-4812-BAF5-9E7064564A59";
paths = (
{
closed = 1;
nodes = (
"46 240 LINE SMOOTH",
"46 80 OFFCURVE",
"158 -14 OFFCURVE",
"306 -14 CURVE SMOOTH",
"454 -14 OFFCURVE",
"566 80 OFFCURVE",
"566 240 CURVE SMOOTH",
"566 256 LINE SMOOTH",
"566 416 OFFCURVE",
"454 510 OFFCURVE",
"306 510 CURVE SMOOTH",
"158 510 OFFCURVE",
"46 416 OFFCURVE",
"46 256 CURVE SMOOTH"
);
},
{
closed = 1;
nodes = (
"172 346 OFFCURVE",
"228 398 OFFCURVE",
"306 398 CURVE SMOOTH",
"384 398 OFFCURVE",
"440 346 OFFCURVE",
"440 253 CURVE SMOOTH",
"440 243 LINE SMOOTH",
"440 150 OFFCURVE",
"383 98 OFFCURVE",
"306 98 CURVE SMOOTH",
"229 98 OFFCURVE",
"172 150 OFFCURVE",
"172 243 CURVE SMOOTH",
"172 253 LINE SMOOTH"
);
}
);
width = 612;
},
{
anchors = (
{
name = bottom;
position = "{310, 0}";
},
{
name = horn;
position = "{404, 486}";
},
{
name = top;
position = "{310, 486}";
}
);
layerId = "CEFBB1E5-951F-4065-926E-8B9137F837F5";
paths = (
{
closed = 1;
nodes = (
"64 237 LINE SMOOTH",
"64 87 OFFCURVE",
"162 -14 OFFCURVE",
"310 -14 CURVE SMOOTH",
"458 -14 OFFCURVE",
"556 87 OFFCURVE",
"556 237 CURVE SMOOTH",
"556 249 LINE SMOOTH",
"556 399 OFFCURVE",
"458 500 OFFCURVE",
"310 500 CURVE SMOOTH",
"162 500 OFFCURVE",
"64 399 OFFCURVE",
"64 249 CURVE SMOOTH"
);
},
{
closed = 1;
nodes = (
"124 367 OFFCURVE",
"196 446 OFFCURVE",
"310 446 CURVE SMOOTH",
"424 446 OFFCURVE",
"496 367 OFFCURVE",
"496 247 CURVE SMOOTH",
"496 239 LINE SMOOTH",
"496 119 OFFCURVE",
"424 40 OFFCURVE",
"310 40 CURVE SMOOTH",
"196 40 OFFCURVE",
"124 119 OFFCURVE",
"124 239 CURVE SMOOTH",
"124 247 LINE SMOOTH"
);
}
);
width = 620;
}
);
leftKerningGroup = o;
note = o;
rightKerningGroup = o;
unicode = 006F;
},
{
glyphname = oe;
lastChange = "2020-05-18 13:06:32 +0000";
layers = (
{
layerId = "5117E3E8-E17C-4812-BAF5-9E7064564A59";
paths = (
{
closed = 1;
nodes = (
"46 240 LINE SMOOTH",
"46 80 OFFCURVE",
"157 -14 OFFCURVE",
"299 -14 CURVE SMOOTH",
"393 -14 OFFCURVE",
"458 24 OFFCURVE",
"497 84 CURVE",
"515 84 LINE",
"548 25 OFFCURVE",
"618 -14 OFFCURVE",
"707 -14 CURVE SMOOTH",
"839 -14 OFFCURVE",
"898 63 OFFCURVE",
"926 116 CURVE",
"823 170 LINE",
"806 132 OFFCURVE",
"777 96 OFFCURVE",
"707 96 CURVE SMOOTH",
"637 96 OFFCURVE",
"584 143 OFFCURVE",
"581 211 CURVE",
"942 211 LINE",
"942 254 LINE SMOOTH",
"942 406 OFFCURVE",
"847 510 OFFCURVE",
"701 510 CURVE SMOOTH",
"621 510 OFFCURVE",
"555 472 OFFCURVE",
"515 412 CURVE",
"497 412 LINE",
"458 472 OFFCURVE",
"393 510 OFFCURVE",
"299 510 CURVE SMOOTH",
"157 510 OFFCURVE",
"46 416 OFFCURVE",
"46 256 CURVE SMOOTH"
);
},
{
closed = 1;
nodes = (
"172 346 OFFCURVE",
"228 398 OFFCURVE",
"306 398 CURVE SMOOTH",
"384 398 OFFCURVE",
"440 346 OFFCURVE",
"440 253 CURVE SMOOTH",
"440 243 LINE SMOOTH",
"440 150 OFFCURVE",
"383 98 OFFCURVE",
"306 98 CURVE SMOOTH",
"229 98 OFFCURVE",
"172 150 OFFCURVE",
"172 243 CURVE SMOOTH",
"172 253 LINE SMOOTH"
);
},
{
closed = 1;
nodes = (
"590 360 OFFCURVE",
"632 400 OFFCURVE",
"700 400 CURVE SMOOTH",
"765 400 OFFCURVE",
"808 362 OFFCURVE",
"814 305 CURVE",
"582 305 LINE"
);
}
);
width = 984;
},
{
layerId = "CEFBB1E5-951F-4065-926E-8B9137F837F5";
paths = (
{
closed = 1;
nodes = (
"64 236 LINE SMOOTH",
"64 87 OFFCURVE",
"161 -14 OFFCURVE",
"309 -14 CURVE SMOOTH",
"411 -14 OFFCURVE",
"487 36 OFFCURVE",
"522 123 CURVE",
"534 123 LINE",
"570 40 OFFCURVE",
"649 -14 OFFCURVE",
"753 -14 CURVE SMOOTH",
"882 -14 OFFCURVE",
"937 58 OFFCURVE",
"969 124 CURVE",
"914 147 LINE",
"887 87 OFFCURVE",
"843 40 OFFCURVE",
"752 40 CURVE SMOOTH",
"644 40 OFFCURVE",
"569 112 OFFCURVE",
"564 231 CURVE",
"977 231 LINE",
"977 262 LINE SMOOTH",
"977 410 OFFCURVE",
"881 500 OFFCURVE",
"746 500 CURVE SMOOTH",
"650 500 OFFCURVE",
"572 447 OFFCURVE",
"534 363 CURVE",
"522 363 LINE",
"487 449 OFFCURVE",
"411 500 OFFCURVE",
"309 500 CURVE SMOOTH",
"161 500 OFFCURVE",
"64 399 OFFCURVE",
"64 249 CURVE SMOOTH"
);
},
{
closed = 1;
nodes = (
"123 366 OFFCURVE",
"196 445 OFFCURVE",
"310 445 CURVE SMOOTH",
"423 445 OFFCURVE",
"496 366 OFFCURVE",
"496 247 CURVE SMOOTH",
"496 239 LINE SMOOTH",
"496 119 OFFCURVE",
"422 40 OFFCURVE",
"310 40 CURVE SMOOTH",
"197 40 OFFCURVE",
"123 119 OFFCURVE",
"123 239 CURVE SMOOTH",
"123 247 LINE SMOOTH"
);
},
{
closed = 1;
nodes = (
"576 382 OFFCURVE",
"647 445 OFFCURVE",
"745 445 CURVE SMOOTH",
"843 445 OFFCURVE",
"911 387 OFFCURVE",
"915 282 CURVE",
"565 282 LINE"
);
}
);
width = 1037;
}
);
leftKerningGroup = o;
leftMetricsKey = o;
note = oe;
rightKerningGroup = o;
rightMetricsKey = e;
unicode = 0153;
},
{
glyphname = p;
lastChange = "2020-05-18 13:06:32 +0000";
layers = (
{
layerId = "5117E3E8-E17C-4812-BAF5-9E7064564A59";
paths = (
{
closed = 1;
nodes = (
"196 -200 LINE",
"196 57 LINE",
"214 57 LINE",
"235 22 OFFCURVE",
"278 -14 OFFCURVE",
"368 -14 CURVE SMOOTH",
"488 -14 OFFCURVE",
"592 78 OFFCURVE",
"592 240 CURVE SMOOTH",
"592 256 LINE SMOOTH",
"592 418 OFFCURVE",
"487 510 OFFCURVE",
"368 510 CURVE SMOOTH",
"278 510 OFFCURVE",
"235 474 OFFCURVE",
"212 436 CURVE",
"194 436 LINE",
"194 496 LINE",
"70 496 LINE",
"70 -200 LINE"
);
},
{
closed = 1;
nodes = (
"252 96 OFFCURVE",
"194 147 OFFCURVE",
"194 243 CURVE SMOOTH",
"194 253 LINE SMOOTH",
"194 349 OFFCURVE",
"253 400 OFFCURVE",
"330 400 CURVE SMOOTH",
"407 400 OFFCURVE",
"466 349 OFFCURVE",
"466 253 CURVE SMOOTH",
"466 243 LINE SMOOTH",
"466 147 OFFCURVE",
"408 96 OFFCURVE",
"330 96 CURVE SMOOTH"
);
}
);
width = 638;
},
{
layerId = "CEFBB1E5-951F-4065-926E-8B9137F837F5";
paths = (
{
closed = 1;
nodes = (
"148 -200 LINE",
"148 85 LINE",
"160 85 LINE",
"186 36 OFFCURVE",
"241 -14 OFFCURVE",
"348 -14 CURVE SMOOTH",
"479 -14 OFFCURVE",
"582 83 OFFCURVE",
"582 237 CURVE SMOOTH",
"582 249 LINE SMOOTH",
"582 404 OFFCURVE",
"478 500 OFFCURVE",
"348 500 CURVE SMOOTH",
"241 500 OFFCURVE",
"186 450 OFFCURVE",
"158 397 CURVE",
"146 397 LINE",
"146 486 LINE",
"88 486 LINE",
"88 -200 LINE"
);
},
{
closed = 1;
nodes = (
"224 40 OFFCURVE",
"148 115 OFFCURVE",
"148 239 CURVE SMOOTH",
"148 247 LINE SMOOTH",
"148 371 OFFCURVE",
"224 446 OFFCURVE",
"334 446 CURVE SMOOTH",
"444 446 OFFCURVE",
"520 371 OFFCURVE",
"520 247 CURVE SMOOTH",
"520 239 LINE SMOOTH",
"520 115 OFFCURVE",
"444 40 OFFCURVE",
"334 40 CURVE SMOOTH"
);
}
);
width = 646;
}
);
leftKerningGroup = n;
leftMetricsKey = idotless;
note = p;
rightKerningGroup = o;
rightMetricsKey = o;
unicode = 0070;
},
{
glyphname = thorn;
lastChange = "2020-05-18 13:06:32 +0000";
layers = (
{
layerId = "5117E3E8-E17C-4812-BAF5-9E7064564A59";
paths = (
{
closed = 1;
nodes = (
"196 -200 LINE",
"196 57 LINE",
"214 57 LINE",
"235 22 OFFCURVE",
"278 -14 OFFCURVE",
"368 -14 CURVE SMOOTH",
"488 -14 OFFCURVE",
"592 78 OFFCURVE",
"592 240 CURVE SMOOTH",
"592 256 LINE SMOOTH",
"592 418 OFFCURVE",
"488 510 OFFCURVE",
"368 510 CURVE SMOOTH",
"278 510 OFFCURVE",
"235 474 OFFCURVE",
"214 439 CURVE",
"196 439 LINE",
"196 700 LINE",
"70 700 LINE",
"70 -200 LINE"
);
},
{
closed = 1;
nodes = (
"252 96 OFFCURVE",
"194 147 OFFCURVE",
"194 243 CURVE SMOOTH",
"194 253 LINE SMOOTH",
"194 349 OFFCURVE",
"252 400 OFFCURVE",
"330 400 CURVE SMOOTH",
"408 400 OFFCURVE",
"466 349 OFFCURVE",
"466 253 CURVE SMOOTH",
"466 243 LINE SMOOTH",
"466 147 OFFCURVE",
"408 96 OFFCURVE",
"330 96 CURVE SMOOTH"
);
}
);
width = 638;
},
{
layerId = "CEFBB1E5-951F-4065-926E-8B9137F837F5";
paths = (
{
closed = 1;
nodes = (
"147 -200 LINE",
"147 84 LINE",
"158 84 LINE",
"185 35 OFFCURVE",
"240 -14 OFFCURVE",
"347 -14 CURVE SMOOTH",
"478 -14 OFFCURVE",
"580 82 OFFCURVE",
"580 237 CURVE SMOOTH",
"580 249 LINE SMOOTH",
"580 403 OFFCURVE",
"478 500 OFFCURVE",
"347 500 CURVE SMOOTH",
"240 500 OFFCURVE",
"185 450 OFFCURVE",
"158 401 CURVE",
"147 401 LINE",
"147 700 LINE",
"88 700 LINE",
"88 -200 LINE"
);
},
{
closed = 1;
nodes = (
"225 40 OFFCURVE",
"147 115 OFFCURVE",
"147 239 CURVE SMOOTH",
"147 247 LINE SMOOTH",
"147 371 OFFCURVE",
"225 446 OFFCURVE",
"334 446 CURVE SMOOTH",
"444 446 OFFCURVE",
"519 371 OFFCURVE",
"519 247 CURVE SMOOTH",
"519 239 LINE SMOOTH",
"519 115 OFFCURVE",
"444 40 OFFCURVE",
"334 40 CURVE SMOOTH"
);
}
);
width = 644;
}
);
leftKerningGroup = l;
leftMetricsKey = l;
note = thorn;
rightKerningGroup = o;
rightMetricsKey = o;
unicode = 00FE;
},
{
glyphname = q;
lastChange = "2020-06-02 08:52:38 +0000";
layers = (
{
layerId = "5117E3E8-E17C-4812-BAF5-9E7064564A59";
paths = (
{
closed = 1;
nodes = (
"568 496 LINE",
"444 496 LINE",
"444 436 LINE",
"426 436 LINE",
"403 474 OFFCURVE",
"360 510 OFFCURVE",
"270 510 CURVE SMOOTH",
"151 510 OFFCURVE",
"46 418 OFFCURVE",
"46 256 CURVE SMOOTH",
"46 240 LINE SMOOTH",
"46 78 OFFCURVE",
"150 -14 OFFCURVE",
"270 -14 CURVE SMOOTH",
"360 -14 OFFCURVE",
"403 22 OFFCURVE",
"424 57 CURVE",
"442 57 LINE",
"442 -200 LINE",
"568 -200 LINE"
);
},
{
closed = 1;
nodes = (
"230 96 OFFCURVE",
"172 147 OFFCURVE",
"172 243 CURVE SMOOTH",
"172 253 LINE SMOOTH",
"172 349 OFFCURVE",
"231 400 OFFCURVE",
"308 400 CURVE SMOOTH",
"385 400 OFFCURVE",
"444 349 OFFCURVE",
"444 253 CURVE SMOOTH",
"444 243 LINE SMOOTH",
"444 147 OFFCURVE",
"386 96 OFFCURVE",
"308 96 CURVE SMOOTH"
);
}
);
width = 638;
},
{
layerId = "CEFBB1E5-951F-4065-926E-8B9137F837F5";
paths = (
{
closed = 1;
nodes = (
"558 486 LINE",
"500 486 LINE",
"500 397 LINE",
"488 397 LINE",
"460 450 OFFCURVE",
"405 500 OFFCURVE",
"298 500 CURVE SMOOTH",
"168 500 OFFCURVE",
"64 404 OFFCURVE",
"64 249 CURVE SMOOTH",
"64 237 LINE SMOOTH",
"64 83 OFFCURVE",
"167 -14 OFFCURVE",
"298 -14 CURVE SMOOTH",
"405 -14 OFFCURVE",
"460 36 OFFCURVE",
"486 85 CURVE",
"498 85 LINE",
"498 -200 LINE",
"558 -200 LINE"
);
},
{
closed = 1;
nodes = (
"202 40 OFFCURVE",
"126 115 OFFCURVE",
"126 239 CURVE SMOOTH",
"126 247 LINE SMOOTH",
"126 371 OFFCURVE",
"202 446 OFFCURVE",
"312 446 CURVE SMOOTH",
"422 446 OFFCURVE",
"498 371 OFFCURVE",
"498 247 CURVE SMOOTH",
"498 239 LINE SMOOTH",
"498 115 OFFCURVE",
"422 40 OFFCURVE",
"312 40 CURVE SMOOTH"
);
}
);
width = 646;
}
);
leftKerningGroup = o;
leftMetricsKey = o;
note = q;
rightKerningGroup = u;
rightMetricsKey = idotless;
unicode = 0071;
},
{
glyphname = r;
lastChange = "2020-05-17 19:10:45 +0000";
layers = (
{
anchors = (
{
name = bottom;
position = "{135, 0}";
},
{
name = top;
position = "{216, 496}";
}
);
layerId = "5117E3E8-E17C-4812-BAF5-9E7064564A59";
paths = (
{
closed = 1;
nodes = (
"70 496 LINE",
"70 0 LINE",
"196 0 LINE",
"196 282 LINE SMOOTH",
"196 352 OFFCURVE",
"242 386 OFFCURVE",
"306 386 CURVE SMOOTH",
"368 386 LINE",
"368 498 LINE",
"308 498 LINE SMOOTH",
"262 498 OFFCURVE",
"226 480 OFFCURVE",
"212 440 CURVE",
"194 440 LINE",
"194 496 LINE"
);
}
);
width = 396;
},
{
anchors = (
{
name = bottom;
position = "{118, 0}";
},
{
name = top;
position = "{211, 486}";
}
);
layerId = "CEFBB1E5-951F-4065-926E-8B9137F837F5";
paths = (
{
closed = 1;
nodes = (
"88 486 LINE",
"88 0 LINE",
"148 0 LINE",
"148 304 LINE SMOOTH",
"148 392 OFFCURVE",
"195 432 OFFCURVE",
"269 432 CURVE SMOOTH",
"333 432 LINE",
"333 488 LINE",
"276 488 LINE SMOOTH",
"211 488 OFFCURVE",
"176 469 OFFCURVE",
"158 425 CURVE",
"146 425 LINE",
"146 486 LINE"
);
}
);
width = 369;
}
);
leftKerningGroup = n;
leftMetricsKey = idotless;
note = r;
rightKerningGroup = r;
unicode = 0072;
},
{
glyphname = s;
lastChange = "2020-06-02 13:19:52 +0000";
layers = (
{
anchors = (
{
name = bottom;
position = "{265, 0}";
},
{
name = top;
position = "{261, 496}";
}
);
layerId = "5117E3E8-E17C-4812-BAF5-9E7064564A59";
paths = (
{
closed = 1;
nodes = (
"60 259 OFFCURVE",
"146 220 OFFCURVE",
"250 201 CURVE SMOOTH",
"278 196 LINE SMOOTH",
"337 185 OFFCURVE",
"362 171 OFFCURVE",
"362 140 CURVE SMOOTH",
"362 109 OFFCURVE",
"334 86 OFFCURVE",
"276 86 CURVE SMOOTH",
"218 86 OFFCURVE",
"171 108 OFFCURVE",
"158 178 CURVE",
"42 148 LINE",
"59 44 OFFCURVE",
"146 -14 OFFCURVE",
"276 -14 CURVE SMOOTH",
"402 -14 OFFCURVE",
"484 45 OFFCURVE",
"484 149 CURVE SMOOTH",
"484 253 OFFCURVE",
"396 285 OFFCURVE",
"284 305 CURVE SMOOTH",
"256 310 LINE SMOOTH",
"210 318 OFFCURVE",
"182 331 OFFCURVE",
"182 363 CURVE SMOOTH",
"182 392 OFFCURVE",
"208 410 OFFCURVE",
"256 410 CURVE SMOOTH",
"304 410 OFFCURVE",
"338 391 OFFCURVE",
"349 340 CURVE",
"466 376 LINE",
"443 456 OFFCURVE",
"367 510 OFFCURVE",
"256 510 CURVE SMOOTH",
"138 510 OFFCURVE",
"60 455 OFFCURVE",
"60 357 CURVE SMOOTH"
);
}
);
width = 524;
},
{
anchors = (
{
name = bottom;
position = "{274, 0}";
},
{
name = top;
position = "{261, 486}";
}
);
layerId = "CEFBB1E5-951F-4065-926E-8B9137F837F5";
paths = (
{
closed = 1;
nodes = (
"79 281 OFFCURVE",
"149 242 OFFCURVE",
"242 226 CURVE SMOOTH",
"288 218 LINE SMOOTH",
"364 205 OFFCURVE",
"414 188 OFFCURVE",
"414 130 CURVE SMOOTH",
"414 72 OFFCURVE",
"361 38 OFFCURVE",
"281 38 CURVE SMOOTH",
"201 38 OFFCURVE",
"128 72 OFFCURVE",
"113 178 CURVE",
"54 167 LINE",
"72 38 OFFCURVE",
"163 -14 OFFCURVE",
"281 -14 CURVE SMOOTH",
"399 -14 OFFCURVE",
"474 38 OFFCURVE",
"474 130 CURVE SMOOTH",
"474 222 OFFCURVE",
"396 254 OFFCURVE",
"297 271 CURVE SMOOTH",
"251 279 LINE SMOOTH",
"182 291 OFFCURVE",
"139 311 OFFCURVE",
"139 365 CURVE SMOOTH",
"139 419 OFFCURVE",
"186 448 OFFCURVE",
"260 448 CURVE SMOOTH",
"334 448 OFFCURVE",
"388 419 OFFCURVE",
"401 342 CURVE",
"457 354 LINE",
"439 449 OFFCURVE",
"370 500 OFFCURVE",
"260 500 CURVE SMOOTH",
"150 500 OFFCURVE",
"79 449 OFFCURVE",
"79 365 CURVE SMOOTH"
);
}
);
width = 528;
}
);
leftKerningGroup = s;
note = s;
rightKerningGroup = s;
unicode = 0073;
},
{
glyphname = germandbls;
lastChange = "2020-06-01 20:47:02 +0000";
layers = (
{
layerId = "5117E3E8-E17C-4812-BAF5-9E7064564A59";
paths = (
{
closed = 1;
nodes = (
"196 0 LINE",
"196 434 LINE SMOOTH",
"196 564 OFFCURVE",
"269 608 OFFCURVE",
"336 608 CURVE SMOOTH",
"390 608 OFFCURVE",
"428 581 OFFCURVE",
"428 543 CURVE SMOOTH",
"428 501 OFFCURVE",
"397 473 OFFCURVE",
"365 450 CURVE SMOOTH",
"322 419 OFFCURVE",
"300 393 OFFCURVE",
"300 347 CURVE SMOOTH",
"300 303 OFFCURVE",
"326 269 OFFCURVE",
"385 248 CURVE SMOOTH",
"427 233 LINE SMOOTH",
"474 216 OFFCURVE",
"503 199 OFFCURVE",
"503 159 CURVE SMOOTH",
"503 119 OFFCURVE",
"474 88 OFFCURVE",
"426 88 CURVE SMOOTH",
"372 88 OFFCURVE",
"343 119 OFFCURVE",
"333 164 CURVE",
"219 127 LINE",
"237 60 OFFCURVE",
"300 -14 OFFCURVE",
"426 -14 CURVE SMOOTH",
"552 -14 OFFCURVE",
"627 60 OFFCURVE",
"627 158 CURVE SMOOTH",
"627 256 OFFCURVE",
"564 298 OFFCURVE",
"480 328 CURVE SMOOTH",
"455 337 LINE SMOOTH",
"437 343 OFFCURVE",
"429 350 OFFCURVE",
"429 360 CURVE SMOOTH",
"429 369 OFFCURVE",
"435 375 OFFCURVE",
"446 382 CURVE SMOOTH",
"500 417 OFFCURVE",
"552 460 OFFCURVE",
"552 547 CURVE SMOOTH",
"552 643 OFFCURVE",
"460 714 OFFCURVE",
"336 714 CURVE SMOOTH",
"179 714 OFFCURVE",
"70 610 OFFCURVE",
"70 430 CURVE SMOOTH",
"70 0 LINE"
);
}
);
width = 651;
},
{
layerId = "CEFBB1E5-951F-4065-926E-8B9137F837F5";
paths = (
{
closed = 1;
nodes = (
"147 0 LINE",
"147 450 LINE SMOOTH",
"147 603 OFFCURVE",
"246 661 OFFCURVE",
"331 661 CURVE SMOOTH",
"401 661 OFFCURVE",
"458 626 OFFCURVE",
"458 564 CURVE SMOOTH",
"458 506 OFFCURVE",
"416 474 OFFCURVE",
"369 448 CURVE SMOOTH",
"330 427 OFFCURVE",
"301 405 OFFCURVE",
"301 361 CURVE SMOOTH",
"301 327 OFFCURVE",
"323 299 OFFCURVE",
"369 278 CURVE SMOOTH",
"405 261 LINE SMOOTH",
"466 233 OFFCURVE",
"528 204 OFFCURVE",
"528 140 CURVE SMOOTH",
"528 75 OFFCURVE",
"480 39 OFFCURVE",
"402 39 CURVE SMOOTH",
"323 39 OFFCURVE",
"266 75 OFFCURVE",
"250 161 CURVE",
"194 149 LINE",
"208 44 OFFCURVE",
"287 -14 OFFCURVE",
"402 -14 CURVE SMOOTH",
"514 -14 OFFCURVE",
"587 45 OFFCURVE",
"587 140 CURVE SMOOTH",
"587 234 OFFCURVE",
"513 270 OFFCURVE",
"437 305 CURVE SMOOTH",
"394 326 LINE SMOOTH",
"372 335 OFFCURVE",
"361 348 OFFCURVE",
"361 363 CURVE SMOOTH",
"361 378 OFFCURVE",
"369 389 OFFCURVE",
"392 401 CURVE SMOOTH",
"460 438 OFFCURVE",
"517 480 OFFCURVE",
"517 565 CURVE SMOOTH",
"517 647 OFFCURVE",
"444 714 OFFCURVE",
"331 714 CURVE SMOOTH",
"188 714 OFFCURVE",
"88 614 OFFCURVE",
"88 446 CURVE SMOOTH",
"88 0 LINE"
);
}
);
width = 618;
}
);
leftMetricsKey = n;
note = germandbls;
unicode = 00DF;
},
{
glyphname = t;
lastChange = "2020-06-02 12:23:57 +0000";
layers = (
{
anchors = (
{
name = bottom;
position = "{232, 0}";
},
{
name = sidecaron;
position = "{282, 743}";
}
);
layerId = "5117E3E8-E17C-4812-BAF5-9E7064564A59";
paths = (
{
closed = 1;
nodes = (
"150 392 LINE",
"150 112 LINE SMOOTH",
"150 44 OFFCURVE",
"194 0 OFFCURVE",
"260 0 CURVE SMOOTH",
"400 0 LINE",
"400 104 LINE",
"304 104 LINE SMOOTH",
"286 104 OFFCURVE",
"276 114 OFFCURVE",
"276 134 CURVE SMOOTH",
"276 392 LINE",
"412 392 LINE",
"412 496 LINE",
"276 496 LINE",
"276 650 LINE",
"150 650 LINE",
"150 496 LINE",
"26 496 LINE",
"26 392 LINE"
);
}
);
width = 456;
},
{
anchors = (
{
name = bottom;
position = "{261, 0}";
},
{
name = sidecaron;
position = "{268, 757}";
}
);
layerId = "CEFBB1E5-951F-4065-926E-8B9137F837F5";
paths = (
{
closed = 1;
nodes = (
"186 432 LINE",
"186 76 LINE SMOOTH",
"186 28 OFFCURVE",
"212 0 OFFCURVE",
"264 0 CURVE SMOOTH",
"390 0 LINE",
"390 54 LINE",
"276 54 LINE SMOOTH",
"254 54 OFFCURVE",
"246 64 OFFCURVE",
"246 84 CURVE SMOOTH",
"246 432 LINE",
"416 432 LINE",
"416 486 LINE",
"246 486 LINE",
"246 668 LINE",
"186 668 LINE",
"186 486 LINE",
"30 486 LINE",
"30 432 LINE"
);
}
);
width = 462;
}
);
leftKerningGroup = t;
note = t;
rightKerningGroup = t;
unicode = 0074;
},
{
glyphname = tbar;
lastChange = "2020-05-17 18:51:28 +0000";
layers = (
{
layerId = "5117E3E8-E17C-4812-BAF5-9E7064564A59";
paths = (
{
closed = 1;
nodes = (
"150 392 LINE",
"150 112 LINE SMOOTH",
"150 44 OFFCURVE",
"194 0 OFFCURVE",
"260 0 CURVE SMOOTH",
"400 0 LINE",
"400 104 LINE",
"304 104 LINE SMOOTH",
"286 104 OFFCURVE",
"276 114 OFFCURVE",
"276 134 CURVE SMOOTH",
"276 392 LINE",
"412 392 LINE",
"412 496 LINE",
"276 496 LINE",
"276 650 LINE",
"150 650 LINE",
"150 496 LINE",
"26 496 LINE",
"26 392 LINE"
);
},
{
closed = 1;
nodes = (
"26 292 LINE",
"26 208 LINE",
"412 208 LINE",
"412 292 LINE"
);
}
);
width = 456;
},
{
layerId = "CEFBB1E5-951F-4065-926E-8B9137F837F5";
paths = (
{
closed = 1;
nodes = (
"186 432 LINE",
"186 74 LINE SMOOTH",
"186 27 OFFCURVE",
"215 0 OFFCURVE",
"262 0 CURVE SMOOTH",
"390 0 LINE",
"390 54 LINE",
"275 54 LINE SMOOTH",
"255 54 OFFCURVE",
"246 64 OFFCURVE",
"246 84 CURVE SMOOTH",
"246 432 LINE",
"416 432 LINE",
"416 486 LINE",
"246 486 LINE",
"246 668 LINE",
"186 668 LINE",
"186 486 LINE",
"30 486 LINE",
"30 432 LINE"
);
},
{
closed = 1;
nodes = (
"30 272 LINE",
"30 224 LINE",
"416 224 LINE",
"416 272 LINE"
);
}
);
width = 462;
}
);
leftKerningGroup = t;
leftMetricsKey = t;
note = tbar;
rightKerningGroup = t;
rightMetricsKey = t;
unicode = 0167;
},
{
glyphname = u;
lastChange = "2020-06-02 12:24:38 +0000";
layers = (
{
anchors = (
{
name = bottom;
position = "{304, 0}";
},
{
name = horn;
position = "{546, 496}";
},
{
name = ogonek;
position = "{484, 0}";
},
{
name = top;
position = "{306, 496}";
}
);
layerId = "5117E3E8-E17C-4812-BAF5-9E7064564A59";
paths = (
{
closed = 1;
nodes = (
"546 496 LINE",
"420 496 LINE",
"420 244 LINE SMOOTH",
"420 152 OFFCURVE",
"375 98 OFFCURVE",
"298 98 CURVE SMOOTH",
"230 98 OFFCURVE",
"192 135 OFFCURVE",
"192 210 CURVE SMOOTH",
"192 496 LINE",
"66 496 LINE",
"66 200 LINE SMOOTH",
"66 77 OFFCURVE",
"143 -8 OFFCURVE",
"259 -8 CURVE SMOOTH",
"348 -8 OFFCURVE",
"388 31 OFFCURVE",
"404 65 CURVE",
"422 65 LINE",
"422 0 LINE",
"546 0 LINE"
);
}
);
width = 616;
},
{
anchors = (
{
name = bottom;
position = "{295, 0}";
},
{
name = horn;
position = "{523, 486}";
},
{
name = ogonek;
position = "{493, 0}";
},
{
name = top;
position = "{302, 486}";
}
);
layerId = "CEFBB1E5-951F-4065-926E-8B9137F837F5";
paths = (
{
closed = 1;
nodes = (
"523 486 LINE",
"463 486 LINE",
"463 243 LINE SMOOTH",
"463 110 OFFCURVE",
"388 44 OFFCURVE",
"288 44 CURVE SMOOTH",
"199 44 OFFCURVE",
"141 88 OFFCURVE",
"141 194 CURVE SMOOTH",
"141 486 LINE",
"81 486 LINE",
"81 190 LINE SMOOTH",
"81 56 OFFCURVE",
"170 -10 OFFCURVE",
"275 -10 CURVE SMOOTH",
"379 -10 OFFCURVE",
"429 38 OFFCURVE",
"453 90 CURVE",
"465 90 LINE",
"465 0 LINE",
"523 0 LINE"
);
}
);
width = 611;
}
);
leftKerningGroup = u;
note = u;
rightKerningGroup = u;
rightMetricsKey = idotless;
unicode = 0075;
},
{
glyphname = v;
lastChange = "2020-06-02 09:57:53 +0000";
layers = (
{
layerId = "5117E3E8-E17C-4812-BAF5-9E7064564A59";
paths = (
{
closed = 1;
nodes = (
"174 0 LINE",
"374 0 LINE",
"532 496 LINE",
"398 496 LINE",
"283 92 LINE",
"265 92 LINE",
"150 496 LINE",
"16 496 LINE"
);
}
);
width = 548;
},
{
layerId = "CEFBB1E5-951F-4065-926E-8B9137F837F5";
paths = (
{
closed = 1;
nodes = (
"220 0 LINE",
"316 0 LINE",
"498 486 LINE",
"434 486 LINE",
"274 46 LINE",
"262 46 LINE",
"102 486 LINE",
"38 486 LINE"
);
}
);
width = 536;
}
);
leftKerningGroup = v;
note = v;
rightKerningGroup = v;
unicode = 0076;
},
{
glyphname = w;
lastChange = "2020-06-02 09:57:57 +0000";
layers = (
{
anchors = (
{
name = top;
position = "{392, 496}";
}
);
layerId = "5117E3E8-E17C-4812-BAF5-9E7064564A59";
paths = (
{
closed = 1;
nodes = (
"110 0 LINE",
"319 0 LINE",
"383 411 LINE",
"401 411 LINE",
"465 0 LINE",
"674 0 LINE",
"744 496 LINE",
"619 496 LINE",
"575 85 LINE",
"557 85 LINE",
"493 496 LINE",
"291 496 LINE",
"227 85 LINE",
"209 85 LINE",
"165 496 LINE",
"40 496 LINE"
);
}
);
width = 784;
},
{
anchors = (
{
name = top;
position = "{404, 486}";
}
);
layerId = "CEFBB1E5-951F-4065-926E-8B9137F837F5";
paths = (
{
closed = 1;
nodes = (
"168 0 LINE",
"273 0 LINE",
"398 446 LINE",
"410 446 LINE",
"535 0 LINE",
"640 0 LINE",
"750 486 LINE",
"688 486 LINE",
"592 40 LINE",
"580 40 LINE",
"455 486 LINE",
"353 486 LINE",
"228 40 LINE",
"216 40 LINE",
"120 486 LINE",
"58 486 LINE"
);
}
);
width = 808;
}
);
leftKerningGroup = w;
note = w;
rightKerningGroup = w;
unicode = 0077;
},
{
glyphname = x;
lastChange = "2020-06-02 09:57:48 +0000";
layers = (
{
layerId = "5117E3E8-E17C-4812-BAF5-9E7064564A59";
paths = (
{
closed = 1;
nodes = (
"206 250 LINE",
"26 0 LINE",
"174 0 LINE",
"287 167 LINE",
"305 167 LINE",
"418 0 LINE",
"566 0 LINE",
"386 250 LINE",
"564 496 LINE",
"418 496 LINE",
"305 331 LINE",
"287 331 LINE",
"174 496 LINE",
"28 496 LINE"
);
}
);
width = 592;
},
{
layerId = "CEFBB1E5-951F-4065-926E-8B9137F837F5";
paths = (
{
closed = 1;
nodes = (
"253 247 LINE",
"50 0 LINE",
"126 0 LINE",
"291 207 LINE",
"303 207 LINE",
"468 0 LINE",
"544 0 LINE",
"341 247 LINE",
"537 486 LINE",
"462 486 LINE",
"303 287 LINE",
"291 287 LINE",
"132 486 LINE",
"57 486 LINE"
);
}
);
width = 594;
}
);
leftKerningGroup = x;
note = x;
rightKerningGroup = x;
unicode = 0078;
},
{
glyphname = y;
lastChange = "2020-05-17 18:56:21 +0000";
layers = (
{
anchors = (
{
name = bottom;
position = "{660, 0}";
},
{
name = top;
position = "{306, 496}";
}
);
layerId = "5117E3E8-E17C-4812-BAF5-9E7064564A59";
paths = (
{
closed = 1;
nodes = (
"546 496 LINE",
"420 496 LINE",
"420 244 LINE SMOOTH",
"420 152 OFFCURVE",
"375 98 OFFCURVE",
"298 98 CURVE SMOOTH",
"230 98 OFFCURVE",
"192 135 OFFCURVE",
"192 210 CURVE SMOOTH",
"192 496 LINE",
"66 496 LINE",
"66 200 LINE SMOOTH",
"66 77 OFFCURVE",
"143 -8 OFFCURVE",
"259 -8 CURVE SMOOTH",
"348 -8 OFFCURVE",
"388 31 OFFCURVE",
"404 65 CURVE",
"422 65 LINE",
"422 0 LINE",
"546 0 LINE"
);
},
{
closed = 1;
nodes = (
"124 -200 LINE",
"436 -200 LINE SMOOTH",
"502 -200 OFFCURVE",
"546 -156 OFFCURVE",
"546 -88 CURVE SMOOTH",
"546 0 LINE",
"422 0 LINE",
"422 -60 LINE SMOOTH",
"422 -80 OFFCURVE",
"412 -90 OFFCURVE",
"394 -90 CURVE SMOOTH",
"124 -90 LINE"
);
}
);
width = 616;
},
{
anchors = (
{
name = top;
position = "{274, 496}";
}
);
associatedMasterId = "5117E3E8-E17C-4812-BAF5-9E7064564A59";
layerId = "9D0E3B52-0C7F-449D-9D20-01CA693A13A8";
name = "Sep 28 19, 01:54";
paths = (
{
closed = 1;
nodes = (
"156 0 LINE",
"306 0 LINE",
"331 -200 LINE",
"544 496 LINE",
"408 496 LINE",
"280 40 LINE",
"268 40 LINE",
"140 496 LINE",
"4 496 LINE"
);
},
{
closed = 1;
nodes = (
"331 -200 LINE",
"544 496 LINE",
"408 496 LINE",
"280 40 LINE",
"264 0 LINE",
"195 -200 LINE"
);
}
);
width = 548;
},
{
anchors = (
{
name = bottom;
position = "{609, -42}";
},
{
name = top;
position = "{303, 486}";
}
);
layerId = "CEFBB1E5-951F-4065-926E-8B9137F837F5";
paths = (
{
closed = 1;
nodes = (
"523 486 LINE",
"463 486 LINE",
"463 242 LINE SMOOTH",
"463 109 OFFCURVE",
"388 44 OFFCURVE",
"288 44 CURVE SMOOTH",
"199 44 OFFCURVE",
"141 87 OFFCURVE",
"141 193 CURVE SMOOTH",
"141 486 LINE",
"81 486 LINE",
"81 189 LINE SMOOTH",
"81 55 OFFCURVE",
"170 -10 OFFCURVE",
"275 -10 CURVE SMOOTH",
"379 -10 OFFCURVE",
"427 37 OFFCURVE",
"451 84 CURVE",
"463 84 LINE",
"463 0 LINE",
"523 0 LINE"
);
},
{
closed = 1;
nodes = (
"149 -200 LINE",
"445 -200 LINE SMOOTH",
"497 -200 OFFCURVE",
"523 -172 OFFCURVE",
"523 -124 CURVE SMOOTH",
"523 0 LINE",
"463 0 LINE",
"463 -116 LINE SMOOTH",
"463 -136 OFFCURVE",
"455 -146 OFFCURVE",
"433 -146 CURVE SMOOTH",
"149 -146 LINE"
);
}
);
width = 611;
}
);
leftKerningGroup = u;
leftMetricsKey = u;
note = y;
rightKerningGroup = u;
rightMetricsKey = u;
unicode = 0079;
},
{
glyphname = z;
lastChange = "2020-06-02 09:26:00 +0000";
layers = (
{
anchors = (
{
name = top;
position = "{260, 496}";
}
);
layerId = "5117E3E8-E17C-4812-BAF5-9E7064564A59";
paths = (
{
closed = 1;
nodes = (
"62 392 LINE",
"324 392 LINE",
"324 376 LINE",
"52 150 LINE",
"52 0 LINE",
"470 0 LINE",
"470 104 LINE",
"190 104 LINE",
"190 120 LINE",
"462 346 LINE",
"462 496 LINE",
"62 496 LINE"
);
}
);
width = 518;
},
{
anchors = (
{
name = top;
position = "{253, 486}";
}
);
layerId = "CEFBB1E5-951F-4065-926E-8B9137F837F5";
paths = (
{
closed = 1;
nodes = (
"74 432 LINE",
"391 432 LINE",
"391 422 LINE",
"64 82 LINE",
"64 0 LINE",
"460 0 LINE",
"460 54 LINE",
"124 54 LINE",
"124 64 LINE",
"452 404 LINE",
"452 486 LINE",
"74 486 LINE"
);
}
);
width = 522;
}
);
leftKerningGroup = z;
note = z;
rightKerningGroup = z;
unicode = 007A;
},
{
glyphname = a.ss01;
lastChange = "2020-05-17 18:51:28 +0000";
layers = (
{
anchors = (
{
name = bottom;
position = "{311, 0}";
},
{
name = ogonek;
position = "{546, 0}";
},
{
name = top;
position = "{320, 496}";
}
);
layerId = "5117E3E8-E17C-4812-BAF5-9E7064564A59";
paths = (
{
closed = 1;
nodes = (
"568 496 LINE",
"444 496 LINE",
"444 436 LINE",
"426 436 LINE",
"403 474 OFFCURVE",
"360 510 OFFCURVE",
"270 510 CURVE SMOOTH",
"151 510 OFFCURVE",
"46 418 OFFCURVE",
"46 256 CURVE SMOOTH",
"46 240 LINE SMOOTH",
"46 78 OFFCURVE",
"150 -14 OFFCURVE",
"270 -14 CURVE SMOOTH",
"367 -14 OFFCURVE",
"412 27 OFFCURVE",
"435 76 CURVE",
"568 76 LINE"
);
},
{
closed = 1;
nodes = (
"230 96 OFFCURVE",
"172 147 OFFCURVE",
"172 243 CURVE SMOOTH",
"172 253 LINE SMOOTH",
"172 349 OFFCURVE",
"231 400 OFFCURVE",
"308 400 CURVE SMOOTH",
"385 400 OFFCURVE",
"444 349 OFFCURVE",
"444 253 CURVE SMOOTH",
"444 243 LINE SMOOTH",
"444 147 OFFCURVE",
"386 96 OFFCURVE",
"308 96 CURVE SMOOTH"
);
},
{
closed = 1;
nodes = (
"452 162 LINE",
"452 92 LINE SMOOTH",
"452 36 OFFCURVE",
"486 0 OFFCURVE",
"540 0 CURVE SMOOTH",
"636 0 LINE",
"636 104 LINE",
"596 104 LINE SMOOTH",
"578 104 OFFCURVE",
"568 114 OFFCURVE",
"568 134 CURVE SMOOTH",
"568 162 LINE"
);
}
);
width = 660;
},
{
anchors = (
{
name = bottom;
position = "{318, 0}";
},
{
name = ogonek;
position = "{560, 0}";
},
{
name = top;
position = "{329, 486}";
}
);
layerId = "CEFBB1E5-951F-4065-926E-8B9137F837F5";
paths = (
{
closed = 1;
nodes = (
"558 486 LINE",
"500 486 LINE",
"500 397 LINE",
"488 397 LINE",
"460 450 OFFCURVE",
"405 500 OFFCURVE",
"298 500 CURVE SMOOTH",
"168 500 OFFCURVE",
"64 404 OFFCURVE",
"64 249 CURVE SMOOTH",
"64 237 LINE SMOOTH",
"64 83 OFFCURVE",
"167 -14 OFFCURVE",
"298 -14 CURVE SMOOTH",
"405 -14 OFFCURVE",
"460 36 OFFCURVE",
"488 89 CURVE",
"558 89 LINE"
);
},
{
closed = 1;
nodes = (
"202 40 OFFCURVE",
"126 115 OFFCURVE",
"126 239 CURVE SMOOTH",
"126 247 LINE SMOOTH",
"126 371 OFFCURVE",
"202 446 OFFCURVE",
"312 446 CURVE SMOOTH",
"422 446 OFFCURVE",
"498 371 OFFCURVE",
"498 247 CURVE SMOOTH",
"498 239 LINE SMOOTH",
"498 115 OFFCURVE",
"422 40 OFFCURVE",
"312 40 CURVE SMOOTH"
);
},
{
closed = 1;
nodes = (
"500 96 LINE",
"500 73 LINE SMOOTH",
"500 28 OFFCURVE",
"526 0 OFFCURVE",
"569 0 CURVE SMOOTH",
"633 0 LINE",
"633 52 LINE",
"586 52 LINE SMOOTH",
"568 52 OFFCURVE",
"558 62 OFFCURVE",
"558 82 CURVE SMOOTH",
"558 98 LINE"
);
}
);
width = 664;
}
);
leftKerningGroup = o;
leftMetricsKey = o;
note = a;
rightKerningGroup = a.ss01;
},
{
glyphname = f_f.liga;
lastChange = "2020-05-17 19:02:17 +0000";
layers = (
{
anchors = (
{
name = caret_1;
position = "{378, 0}";
}
);
layerId = "5117E3E8-E17C-4812-BAF5-9E7064564A59";
paths = (
{
closed = 1;
nodes = (
"26 392 LINE",
"152 392 LINE",
"152 0 LINE",
"278 0 LINE",
"278 392 LINE",
"378 392 LINE",
"378 496 LINE",
"278 496 LINE",
"278 566 LINE SMOOTH",
"278 586 OFFCURVE",
"288 596 OFFCURVE",
"306 596 CURVE SMOOTH",
"392 596 LINE",
"392 700 LINE",
"262 700 LINE SMOOTH",
"196 700 OFFCURVE",
"152 656 OFFCURVE",
"152 588 CURVE SMOOTH",
"152 496 LINE",
"26 496 LINE"
);
},
{
closed = 1;
nodes = (
"378 392 LINE",
"478 392 LINE",
"478 0 LINE",
"604 0 LINE",
"604 392 LINE",
"734 392 LINE",
"734 496 LINE",
"604 496 LINE",
"604 566 LINE SMOOTH",
"604 586 OFFCURVE",
"614 596 OFFCURVE",
"632 596 CURVE SMOOTH",
"718 596 LINE",
"718 700 LINE",
"588 700 LINE SMOOTH",
"522 700 OFFCURVE",
"478 656 OFFCURVE",
"478 588 CURVE SMOOTH",
"478 496 LINE",
"378 496 LINE"
);
}
);
width = 762;
},
{
anchors = (
{
name = caret_1;
position = "{388, 0}";
}
);
layerId = "CEFBB1E5-951F-4065-926E-8B9137F837F5";
paths = (
{
closed = 1;
nodes = (
"30 432 LINE",
"190 432 LINE",
"190 0 LINE",
"250 0 LINE",
"250 432 LINE",
"382 432 LINE",
"382 486 LINE",
"250 486 LINE",
"250 616 LINE SMOOTH",
"250 636 OFFCURVE",
"258 646 OFFCURVE",
"280 646 CURVE SMOOTH",
"388 646 LINE",
"388 700 LINE",
"268 700 LINE SMOOTH",
"216 700 OFFCURVE",
"190 672 OFFCURVE",
"190 624 CURVE SMOOTH",
"190 486 LINE",
"30 486 LINE"
);
},
{
closed = 1;
nodes = (
"382 432 LINE",
"510 432 LINE",
"510 0 LINE",
"570 0 LINE",
"570 432 LINE",
"734 432 LINE",
"734 486 LINE",
"570 486 LINE",
"570 616 LINE SMOOTH",
"570 636 OFFCURVE",
"578 646 OFFCURVE",
"600 646 CURVE SMOOTH",
"708 646 LINE",
"708 700 LINE",
"588 700 LINE SMOOTH",
"536 700 OFFCURVE",
"510 672 OFFCURVE",
"510 624 CURVE SMOOTH",
"510 486 LINE",
"382 486 LINE"
);
}
);
width = 770;
}
);
leftKerningGroup = t;
leftMetricsKey = f;
note = fi;
rightKerningGroup = f;
rightMetricsKey = f;
},
{
glyphname = f_f_i.liga;
lastChange = "2020-06-02 18:20:40 +0000";
layers = (
{
anchors = (
{
name = caret_1;
position = "{378, 0}";
},
{
name = caret_2;
position = "{708, 0}";
}
);
layerId = "5117E3E8-E17C-4812-BAF5-9E7064564A59";
paths = (
{
closed = 1;
nodes = (
"26 392 LINE",
"152 392 LINE",
"152 0 LINE",
"278 0 LINE",
"278 392 LINE",
"378 392 LINE",
"378 496 LINE",
"278 496 LINE",
"278 566 LINE SMOOTH",
"278 586 OFFCURVE",
"288 596 OFFCURVE",
"306 596 CURVE SMOOTH",
"392 596 LINE",
"392 700 LINE",
"262 700 LINE SMOOTH",
"196 700 OFFCURVE",
"152 656 OFFCURVE",
"152 588 CURVE SMOOTH",
"152 496 LINE",
"26 496 LINE"
);
},
{
closed = 1;
nodes = (
"378 392 LINE",
"478 392 LINE",
"478 0 LINE",
"604 0 LINE",
"604 392 LINE",
"804 392 LINE",
"804 496 LINE",
"604 496 LINE",
"604 566 LINE SMOOTH",
"604 586 OFFCURVE",
"614 596 OFFCURVE",
"632 596 CURVE SMOOTH",
"708 596 LINE",
"708 700 LINE",
"588 700 LINE SMOOTH",
"522 700 OFFCURVE",
"478 656 OFFCURVE",
"478 588 CURVE SMOOTH",
"478 496 LINE",
"378 496 LINE"
);
},
{
closed = 1;
nodes = (
"804 496 LINE",
"804 0 LINE",
"930 0 LINE",
"930 496 LINE"
);
},
{
closed = 1;
nodes = (
"786 582 OFFCURVE",
"821 550 OFFCURVE",
"867 550 CURVE SMOOTH",
"913 550 OFFCURVE",
"948 582 OFFCURVE",
"948 630 CURVE SMOOTH",
"948 678 OFFCURVE",
"913 710 OFFCURVE",
"867 710 CURVE SMOOTH",
"821 710 OFFCURVE",
"786 678 OFFCURVE",
"786 630 CURVE SMOOTH"
);
}
);
width = 1000;
},
{
anchors = (
{
name = caret_1;
position = "{388, 0}";
},
{
name = caret_2;
position = "{708, 0}";
}
);
layerId = "CEFBB1E5-951F-4065-926E-8B9137F837F5";
paths = (
{
closed = 1;
nodes = (
"30 432 LINE",
"190 432 LINE",
"190 0 LINE",
"250 0 LINE",
"250 432 LINE",
"382 432 LINE",
"382 486 LINE",
"250 486 LINE",
"250 616 LINE SMOOTH",
"250 636 OFFCURVE",
"258 646 OFFCURVE",
"280 646 CURVE SMOOTH",
"388 646 LINE",
"388 700 LINE",
"268 700 LINE SMOOTH",
"216 700 OFFCURVE",
"190 672 OFFCURVE",
"190 624 CURVE SMOOTH",
"190 486 LINE",
"30 486 LINE"
);
},
{
closed = 1;
nodes = (
"382 432 LINE",
"510 432 LINE",
"510 0 LINE",
"570 0 LINE",
"570 432 LINE",
"830 432 LINE",
"830 486 LINE",
"570 486 LINE",
"570 616 LINE SMOOTH",
"570 636 OFFCURVE",
"578 646 OFFCURVE",
"600 646 CURVE SMOOTH",
"708 646 LINE",
"708 700 LINE",
"588 700 LINE SMOOTH",
"536 700 OFFCURVE",
"510 672 OFFCURVE",
"510 624 CURVE SMOOTH",
"510 486 LINE",
"382 486 LINE"
);
},
{
closed = 1;
nodes = (
"830 486 LINE",
"830 0 LINE",
"890 0 LINE",
"890 486 LINE"
);
},
{
closed = 1;
nodes = (
"808 592 OFFCURVE",
"830 570 OFFCURVE",
"860 570 CURVE SMOOTH",
"890 570 OFFCURVE",
"912 592 OFFCURVE",
"912 622 CURVE SMOOTH",
"912 652 OFFCURVE",
"890 674 OFFCURVE",
"860 674 CURVE SMOOTH",
"830 674 OFFCURVE",
"808 652 OFFCURVE",
"808 622 CURVE SMOOTH"
);
}
);
width = 978;
}
);
leftKerningGroup = t;
leftMetricsKey = f;
note = fi;
rightKerningGroup = i;
rightMetricsKey = i;
},
{
glyphname = f_f_j.liga;
lastChange = "2020-06-02 18:20:43 +0000";
layers = (
{
anchors = (
{
name = caret_1;
position = "{378, 0}";
},
{
name = caret_2;
position = "{708, 0}";
}
);
layerId = "5117E3E8-E17C-4812-BAF5-9E7064564A59";
paths = (
{
closed = 1;
nodes = (
"26 392 LINE",
"152 392 LINE",
"152 0 LINE",
"278 0 LINE",
"278 392 LINE",
"378 392 LINE",
"378 496 LINE",
"278 496 LINE",
"278 566 LINE SMOOTH",
"278 586 OFFCURVE",
"288 596 OFFCURVE",
"306 596 CURVE SMOOTH",
"392 596 LINE",
"392 700 LINE",
"262 700 LINE SMOOTH",
"196 700 OFFCURVE",
"152 656 OFFCURVE",
"152 588 CURVE SMOOTH",
"152 496 LINE",
"26 496 LINE"
);
},
{
closed = 1;
nodes = (
"378 392 LINE",
"478 392 LINE",
"478 0 LINE",
"604 0 LINE",
"604 392 LINE",
"804 392 LINE",
"804 496 LINE",
"604 496 LINE",
"604 566 LINE SMOOTH",
"604 586 OFFCURVE",
"614 596 OFFCURVE",
"632 596 CURVE SMOOTH",
"708 596 LINE",
"708 700 LINE",
"588 700 LINE SMOOTH",
"522 700 OFFCURVE",
"478 656 OFFCURVE",
"478 588 CURVE SMOOTH",
"478 496 LINE",
"378 496 LINE"
);
},
{
closed = 1;
nodes = (
"804 496 LINE",
"804 -62 LINE SMOOTH",
"804 -82 OFFCURVE",
"794 -92 OFFCURVE",
"776 -92 CURVE SMOOTH",
"710 -92 LINE",
"710 -200 LINE",
"820 -200 LINE SMOOTH",
"886 -200 OFFCURVE",
"930 -156 OFFCURVE",
"930 -88 CURVE SMOOTH",
"930 496 LINE"
);
},
{
closed = 1;
nodes = (
"786 582 OFFCURVE",
"821 550 OFFCURVE",
"867 550 CURVE SMOOTH",
"913 550 OFFCURVE",
"948 582 OFFCURVE",
"948 630 CURVE SMOOTH",
"948 678 OFFCURVE",
"913 710 OFFCURVE",
"867 710 CURVE SMOOTH",
"821 710 OFFCURVE",
"786 678 OFFCURVE",
"786 630 CURVE SMOOTH"
);
}
);
width = 1000;
},
{
anchors = (
{
name = caret_1;
position = "{388, 0}";
},
{
name = caret_2;
position = "{708, 0}";
}
);
layerId = "CEFBB1E5-951F-4065-926E-8B9137F837F5";
paths = (
{
closed = 1;
nodes = (
"30 432 LINE",
"190 432 LINE",
"190 0 LINE",
"250 0 LINE",
"250 432 LINE",
"382 432 LINE",
"382 486 LINE",
"250 486 LINE",
"250 616 LINE SMOOTH",
"250 636 OFFCURVE",
"258 646 OFFCURVE",
"280 646 CURVE SMOOTH",
"388 646 LINE",
"388 700 LINE",
"268 700 LINE SMOOTH",
"216 700 OFFCURVE",
"190 672 OFFCURVE",
"190 624 CURVE SMOOTH",
"190 486 LINE",
"30 486 LINE"
);
},
{
closed = 1;
nodes = (
"382 432 LINE",
"510 432 LINE",
"510 0 LINE",
"570 0 LINE",
"570 432 LINE",
"830 432 LINE",
"830 486 LINE",
"570 486 LINE",
"570 616 LINE SMOOTH",
"570 636 OFFCURVE",
"578 646 OFFCURVE",
"600 646 CURVE SMOOTH",
"708 646 LINE",
"708 700 LINE",
"588 700 LINE SMOOTH",
"536 700 OFFCURVE",
"510 672 OFFCURVE",
"510 624 CURVE SMOOTH",
"510 486 LINE",
"382 486 LINE"
);
},
{
closed = 1;
nodes = (
"830 486 LINE",
"830 -116 LINE SMOOTH",
"830 -136 OFFCURVE",
"822 -146 OFFCURVE",
"800 -146 CURVE SMOOTH",
"730 -146 LINE",
"730 -200 LINE",
"812 -200 LINE SMOOTH",
"864 -200 OFFCURVE",
"890 -172 OFFCURVE",
"890 -124 CURVE SMOOTH",
"890 486 LINE"
);
},
{
closed = 1;
nodes = (
"808 592 OFFCURVE",
"830 570 OFFCURVE",
"860 570 CURVE SMOOTH",
"890 570 OFFCURVE",
"912 592 OFFCURVE",
"912 622 CURVE SMOOTH",
"912 652 OFFCURVE",
"890 674 OFFCURVE",
"860 674 CURVE SMOOTH",
"830 674 OFFCURVE",
"808 652 OFFCURVE",
"808 622 CURVE SMOOTH"
);
}
);
width = 978;
}
);
leftKerningGroup = t;
leftMetricsKey = f;
note = fi;
rightKerningGroup = i;
rightMetricsKey = j;
},
{
glyphname = f_i.liga;
lastChange = "2020-06-02 18:20:55 +0000";
layers = (
{
anchors = (
{
name = caret_1;
position = "{382, 0}";
}
);
layerId = "5117E3E8-E17C-4812-BAF5-9E7064564A59";
paths = (
{
closed = 1;
nodes = (
"26 392 LINE",
"152 392 LINE",
"152 0 LINE",
"278 0 LINE",
"278 392 LINE",
"478 392 LINE",
"478 496 LINE",
"278 496 LINE",
"278 566 LINE SMOOTH",
"278 586 OFFCURVE",
"288 596 OFFCURVE",
"306 596 CURVE SMOOTH",
"382 596 LINE",
"382 700 LINE",
"262 700 LINE SMOOTH",
"196 700 OFFCURVE",
"152 656 OFFCURVE",
"152 588 CURVE SMOOTH",
"152 496 LINE",
"26 496 LINE"
);
},
{
closed = 1;
nodes = (
"478 496 LINE",
"478 0 LINE",
"604 0 LINE",
"604 496 LINE"
);
},
{
closed = 1;
nodes = (
"460 582 OFFCURVE",
"495 550 OFFCURVE",
"541 550 CURVE SMOOTH",
"587 550 OFFCURVE",
"622 582 OFFCURVE",
"622 630 CURVE SMOOTH",
"622 678 OFFCURVE",
"587 710 OFFCURVE",
"541 710 CURVE SMOOTH",
"495 710 OFFCURVE",
"460 678 OFFCURVE",
"460 630 CURVE SMOOTH"
);
}
);
width = 674;
},
{
anchors = (
{
name = caret_1;
position = "{388, 0}";
}
);
layerId = "CEFBB1E5-951F-4065-926E-8B9137F837F5";
paths = (
{
closed = 1;
nodes = (
"30 432 LINE",
"190 432 LINE",
"190 0 LINE",
"250 0 LINE",
"250 432 LINE",
"510 432 LINE",
"510 486 LINE",
"250 486 LINE",
"250 616 LINE SMOOTH",
"250 636 OFFCURVE",
"258 646 OFFCURVE",
"280 646 CURVE SMOOTH",
"388 646 LINE",
"388 700 LINE",
"268 700 LINE SMOOTH",
"216 700 OFFCURVE",
"190 672 OFFCURVE",
"190 624 CURVE SMOOTH",
"190 486 LINE",
"30 486 LINE"
);
},
{
closed = 1;
nodes = (
"510 486 LINE",
"510 0 LINE",
"570 0 LINE",
"570 486 LINE"
);
},
{
closed = 1;
nodes = (
"488 592 OFFCURVE",
"510 570 OFFCURVE",
"540 570 CURVE SMOOTH",
"570 570 OFFCURVE",
"592 592 OFFCURVE",
"592 622 CURVE SMOOTH",
"592 652 OFFCURVE",
"570 674 OFFCURVE",
"540 674 CURVE SMOOTH",
"510 674 OFFCURVE",
"488 652 OFFCURVE",
"488 622 CURVE SMOOTH"
);
}
);
width = 658;
}
);
leftKerningGroup = t;
leftMetricsKey = f;
note = fi;
rightKerningGroup = i;
rightMetricsKey = i;
},
{
glyphname = f_j.liga;
lastChange = "2020-06-02 18:21:00 +0000";
layers = (
{
anchors = (
{
name = caret_1;
position = "{382, 0}";
}
);
layerId = "5117E3E8-E17C-4812-BAF5-9E7064564A59";
paths = (
{
closed = 1;
nodes = (
"26 392 LINE",
"152 392 LINE",
"152 0 LINE",
"278 0 LINE",
"278 392 LINE",
"478 392 LINE",
"478 496 LINE",
"278 496 LINE",
"278 566 LINE SMOOTH",
"278 586 OFFCURVE",
"288 596 OFFCURVE",
"306 596 CURVE SMOOTH",
"382 596 LINE",
"382 700 LINE",
"262 700 LINE SMOOTH",
"196 700 OFFCURVE",
"152 656 OFFCURVE",
"152 588 CURVE SMOOTH",
"152 496 LINE",
"26 496 LINE"
);
},
{
closed = 1;
nodes = (
"478 496 LINE",
"478 -62 LINE SMOOTH",
"478 -82 OFFCURVE",
"468 -92 OFFCURVE",
"450 -92 CURVE SMOOTH",
"384 -92 LINE",
"384 -200 LINE",
"494 -200 LINE SMOOTH",
"560 -200 OFFCURVE",
"604 -156 OFFCURVE",
"604 -88 CURVE SMOOTH",
"604 496 LINE"
);
},
{
closed = 1;
nodes = (
"460 582 OFFCURVE",
"495 550 OFFCURVE",
"541 550 CURVE SMOOTH",
"587 550 OFFCURVE",
"622 582 OFFCURVE",
"622 630 CURVE SMOOTH",
"622 678 OFFCURVE",
"587 710 OFFCURVE",
"541 710 CURVE SMOOTH",
"495 710 OFFCURVE",
"460 678 OFFCURVE",
"460 630 CURVE SMOOTH"
);
}
);
width = 674;
},
{
anchors = (
{
name = caret_1;
position = "{388, 0}";
}
);
layerId = "CEFBB1E5-951F-4065-926E-8B9137F837F5";
paths = (
{
closed = 1;
nodes = (
"30 432 LINE",
"190 432 LINE",
"190 0 LINE",
"250 0 LINE",
"250 432 LINE",
"510 432 LINE",
"510 486 LINE",
"250 486 LINE",
"250 616 LINE SMOOTH",
"250 636 OFFCURVE",
"258 646 OFFCURVE",
"280 646 CURVE SMOOTH",
"388 646 LINE",
"388 700 LINE",
"268 700 LINE SMOOTH",
"216 700 OFFCURVE",
"190 672 OFFCURVE",
"190 624 CURVE SMOOTH",
"190 486 LINE",
"30 486 LINE"
);
},
{
closed = 1;
nodes = (
"510 486 LINE",
"510 -116 LINE SMOOTH",
"510 -136 OFFCURVE",
"502 -146 OFFCURVE",
"480 -146 CURVE SMOOTH",
"410 -146 LINE",
"410 -200 LINE",
"492 -200 LINE SMOOTH",
"544 -200 OFFCURVE",
"570 -172 OFFCURVE",
"570 -124 CURVE SMOOTH",
"570 486 LINE"
);
},
{
closed = 1;
nodes = (
"488 592 OFFCURVE",
"510 570 OFFCURVE",
"540 570 CURVE SMOOTH",
"570 570 OFFCURVE",
"592 592 OFFCURVE",
"592 622 CURVE SMOOTH",
"592 652 OFFCURVE",
"570 674 OFFCURVE",
"540 674 CURVE SMOOTH",
"510 674 OFFCURVE",
"488 652 OFFCURVE",
"488 622 CURVE SMOOTH"
);
}
);
width = 658;
}
);
leftKerningGroup = t;
leftMetricsKey = f;
note = fi;
rightKerningGroup = i;
rightMetricsKey = j;
},
{
glyphname = f_l.liga;
lastChange = "2020-05-17 19:02:17 +0000";
layers = (
{
anchors = (
{
name = caret_1;
position = "{408, 0}";
}
);
layerId = "5117E3E8-E17C-4812-BAF5-9E7064564A59";
paths = (
{
closed = 1;
nodes = (
"26 392 LINE",
"152 392 LINE",
"152 0 LINE",
"278 0 LINE",
"278 392 LINE",
"408 392 LINE",
"408 496 LINE",
"278 496 LINE",
"278 566 LINE SMOOTH",
"278 586 OFFCURVE",
"288 596 OFFCURVE",
"306 596 CURVE SMOOTH",
"392 596 LINE",
"392 700 LINE",
"262 700 LINE SMOOTH",
"196 700 OFFCURVE",
"152 656 OFFCURVE",
"152 588 CURVE SMOOTH",
"152 496 LINE",
"26 496 LINE"
);
},
{
closed = 1;
nodes = (
"478 700 LINE",
"478 0 LINE",
"604 0 LINE",
"604 700 LINE"
);
}
);
width = 674;
},
{
anchors = (
{
name = caret_1;
position = "{414, 0}";
}
);
layerId = "CEFBB1E5-951F-4065-926E-8B9137F837F5";
paths = (
{
closed = 1;
nodes = (
"30 432 LINE",
"190 432 LINE",
"190 0 LINE",
"250 0 LINE",
"250 432 LINE",
"414 432 LINE",
"414 486 LINE",
"250 486 LINE",
"250 616 LINE SMOOTH",
"250 636 OFFCURVE",
"258 646 OFFCURVE",
"280 646 CURVE SMOOTH",
"388 646 LINE",
"388 700 LINE",
"268 700 LINE SMOOTH",
"216 700 OFFCURVE",
"190 672 OFFCURVE",
"190 624 CURVE SMOOTH",
"190 486 LINE",
"30 486 LINE"
);
},
{
closed = 1;
nodes = (
"510 700 LINE",
"510 0 LINE",
"570 0 LINE",
"570 700 LINE"
);
}
);
width = 658;
}
);
leftKerningGroup = t;
leftMetricsKey = f;
note = fl;
rightKerningGroup = l;
rightMetricsKey = l;
},
{
glyphname = f_lcaron.liga;
lastChange = "2020-06-02 12:33:27 +0000";
layers = (
{
anchors = (
{
name = caret_1;
position = "{408, 0}";
}
);
layerId = "5117E3E8-E17C-4812-BAF5-9E7064564A59";
paths = (
{
closed = 1;
nodes = (
"26 392 LINE",
"152 392 LINE",
"152 0 LINE",
"278 0 LINE",
"278 392 LINE",
"408 392 LINE",
"408 496 LINE",
"278 496 LINE",
"278 566 LINE SMOOTH",
"278 586 OFFCURVE",
"288 596 OFFCURVE",
"306 596 CURVE SMOOTH",
"392 596 LINE",
"392 700 LINE",
"262 700 LINE SMOOTH",
"196 700 OFFCURVE",
"152 656 OFFCURVE",
"152 588 CURVE SMOOTH",
"152 496 LINE",
"26 496 LINE"
);
},
{
closed = 1;
nodes = (
"478 700 LINE",
"478 0 LINE",
"604 0 LINE",
"604 700 LINE"
);
},
{
closed = 1;
nodes = (
"658 518 LINE",
"744 518 LINE",
"788 700 LINE",
"666 700 LINE"
);
}
);
width = 764;
},
{
anchors = (
{
name = caret_1;
position = "{414, 0}";
}
);
layerId = "CEFBB1E5-951F-4065-926E-8B9137F837F5";
paths = (
{
closed = 1;
nodes = (
"30 432 LINE",
"190 432 LINE",
"190 0 LINE",
"250 0 LINE",
"250 432 LINE",
"414 432 LINE",
"414 486 LINE",
"250 486 LINE",
"250 616 LINE SMOOTH",
"250 636 OFFCURVE",
"258 646 OFFCURVE",
"280 646 CURVE SMOOTH",
"388 646 LINE",
"388 700 LINE",
"268 700 LINE SMOOTH",
"216 700 OFFCURVE",
"190 672 OFFCURVE",
"190 624 CURVE SMOOTH",
"190 486 LINE",
"30 486 LINE"
);
},
{
closed = 1;
nodes = (
"510 700 LINE",
"510 0 LINE",
"570 0 LINE",
"570 700 LINE"
);
},
{
closed = 1;
nodes = (
"650 525 LINE",
"698 525 LINE",
"724 700 LINE",
"659 700 LINE"
);
}
);
width = 716;
}
);
leftKerningGroup = t;
leftMetricsKey = f;
note = fl;
rightKerningGroup = lcaron;
rightMetricsKey = lcaron;
},
{
glyphname = t_t.liga;
lastChange = "2020-05-17 19:02:17 +0000";
layers = (
{
anchors = (
{
name = caret_1;
position = "{438, 0}";
}
);
layerId = "5117E3E8-E17C-4812-BAF5-9E7064564A59";
paths = (
{
closed = 1;
nodes = (
"150 392 LINE",
"150 112 LINE SMOOTH",
"150 44 OFFCURVE",
"194 0 OFFCURVE",
"260 0 CURVE SMOOTH",
"400 0 LINE",
"400 104 LINE",
"304 104 LINE SMOOTH",
"286 104 OFFCURVE",
"276 114 OFFCURVE",
"276 134 CURVE SMOOTH",
"276 392 LINE",
"382 392 LINE",
"382 496 LINE",
"276 496 LINE",
"276 650 LINE",
"150 650 LINE",
"150 496 LINE",
"26 496 LINE",
"26 392 LINE"
);
},
{
closed = 1;
nodes = (
"476 392 LINE",
"476 112 LINE SMOOTH",
"476 44 OFFCURVE",
"520 0 OFFCURVE",
"586 0 CURVE SMOOTH",
"726 0 LINE",
"726 104 LINE",
"630 104 LINE SMOOTH",
"612 104 OFFCURVE",
"602 114 OFFCURVE",
"602 134 CURVE SMOOTH",
"602 392 LINE",
"738 392 LINE",
"738 496 LINE",
"602 496 LINE",
"602 650 LINE",
"476 650 LINE",
"476 496 LINE",
"382 496 LINE",
"382 392 LINE"
);
}
);
width = 782;
},
{
anchors = (
{
name = caret_1;
position = "{448, 0}";
}
);
layerId = "CEFBB1E5-951F-4065-926E-8B9137F837F5";
paths = (
{
closed = 1;
nodes = (
"186 432 LINE",
"186 76 LINE SMOOTH",
"186 28 OFFCURVE",
"212 0 OFFCURVE",
"264 0 CURVE SMOOTH",
"390 0 LINE",
"390 54 LINE",
"276 54 LINE SMOOTH",
"254 54 OFFCURVE",
"246 64 OFFCURVE",
"246 84 CURVE SMOOTH",
"246 432 LINE",
"383 432 LINE",
"383 486 LINE",
"246 486 LINE",
"246 668 LINE",
"186 668 LINE",
"186 486 LINE",
"30 486 LINE",
"30 432 LINE"
);
},
{
closed = 1;
nodes = (
"506 432 LINE",
"506 76 LINE SMOOTH",
"506 28 OFFCURVE",
"532 0 OFFCURVE",
"584 0 CURVE SMOOTH",
"710 0 LINE",
"710 54 LINE",
"596 54 LINE SMOOTH",
"574 54 OFFCURVE",
"566 64 OFFCURVE",
"566 84 CURVE SMOOTH",
"566 432 LINE",
"736 432 LINE",
"736 486 LINE",
"566 486 LINE",
"566 668 LINE",
"506 668 LINE",
"506 486 LINE",
"383 486 LINE",
"383 432 LINE"
);
}
);
width = 782;
}
);
leftMetricsKey = t;
rightMetricsKey = t;
},
{
glyphname = ordfeminine;
lastChange = "2020-05-17 19:09:29 +0000";
layers = (
{
background = {
paths = (
{
closed = 1;
nodes = (
"104 577 LINE",
"111 611 OFFCURVE",
"134 639 OFFCURVE",
"182 639 CURVE SMOOTH",
"228 639 OFFCURVE",
"247 613 OFFCURVE",
"247 584 CURVE SMOOTH",
"247 576 LINE",
"140 560 LINE SMOOTH",
"66 549 OFFCURVE",
"12 518 OFFCURVE",
"12 455 CURVE SMOOTH",
"12 391 OFFCURVE",
"66 354 OFFCURVE",
"137 354 CURVE SMOOTH",
"203 354 OFFCURVE",
"231 388 OFFCURVE",
"241 406 CURVE",
"248 406 LINE",
"248 364 LINE",
"337 364 LINE",
"337 577 LINE SMOOTH",
"337 662 OFFCURVE",
"277 712 OFFCURVE",
"186 712 CURVE SMOOTH",
"95 712 OFFCURVE",
"39 662 OFFCURVE",
"15 607 CURVE"
);
},
{
closed = 1;
nodes = (
"104 480 OFFCURVE",
"120 492 OFFCURVE",
"150 497 CURVE SMOOTH",
"247 512 LINE",
"247 505 LINE SMOOTH",
"247 459 OFFCURVE",
"213 424 OFFCURVE",
"158 424 CURVE SMOOTH",
"120 424 OFFCURVE",
"104 442 OFFCURVE",
"104 460 CURVE SMOOTH"
);
}
);
};
layerId = "5117E3E8-E17C-4812-BAF5-9E7064564A59";
paths = (
{
closed = 1;
nodes = (
"28 379 OFFCURVE",
"83 340 OFFCURVE",
"157 340 CURVE SMOOTH",
"224 340 OFFCURVE",
"252 377 OFFCURVE",
"258 395 CURVE",
"270 395 LINE",
"272 367 OFFCURVE",
"294 350 OFFCURVE",
"329 350 CURVE SMOOTH",
"395 350 LINE",
"395 422 LINE",
"364 422 LINE SMOOTH",
"352 422 OFFCURVE",
"345 429 OFFCURVE",
"345 443 CURVE SMOOTH",
"345 574 LINE SMOOTH",
"345 666 OFFCURVE",
"283 710 OFFCURVE",
"195 710 CURVE SMOOTH",
"107 710 OFFCURVE",
"56 666 OFFCURVE",
"41 613 CURVE",
"124 586 LINE",
"130 612 OFFCURVE",
"151 636 OFFCURVE",
"192 636 CURVE SMOOTH",
"234 636 OFFCURVE",
"251 612 OFFCURVE",
"251 578 CURVE SMOOTH",
"251 562 LINE",
"162 562 LINE SMOOTH",
"84 562 OFFCURVE",
"28 523 OFFCURVE",
"28 452 CURVE SMOOTH"
);
},
{
closed = 1;
nodes = (
"122 479 OFFCURVE",
"141 496 OFFCURVE",
"171 496 CURVE SMOOTH",
"251 496 LINE",
"251 485 LINE SMOOTH",
"251 436 OFFCURVE",
"221 414 OFFCURVE",
"175 414 CURVE SMOOTH",
"141 414 OFFCURVE",
"122 432 OFFCURVE",
"122 456 CURVE SMOOTH"
);
}
);
userData = {
RMXScaler = {
adjustSpace = 10;
height = 68;
verticalShift = 364;
weight = -190;
width = 70;
};
};
width = 401;
},
{
layerId = "CEFBB1E5-951F-4065-926E-8B9137F837F5";
paths = (
{
closed = 1;
nodes = (
"44 376 OFFCURVE",
"106 340 OFFCURVE",
"180 340 CURVE SMOOTH",
"249 340 OFFCURVE",
"279 371 OFFCURVE",
"294 401 CURVE",
"306 401 LINE",
"306 368 OFFCURVE",
"328 350 OFFCURVE",
"363 350 CURVE SMOOTH",
"404 350 LINE",
"404 394 LINE",
"372 394 LINE SMOOTH",
"359 394 OFFCURVE",
"352 401 OFFCURVE",
"352 416 CURVE SMOOTH",
"352 572 LINE SMOOTH",
"352 656 OFFCURVE",
"297 706 OFFCURVE",
"208 706 CURVE SMOOTH",
"119 706 OFFCURVE",
"70 656 OFFCURVE",
"54 599 CURVE",
"105 587 LINE",
"115 628 OFFCURVE",
"145 660 OFFCURVE",
"208 660 CURVE SMOOTH",
"270 660 OFFCURVE",
"300 628 OFFCURVE",
"300 574 CURVE SMOOTH",
"300 550 LINE",
"178 550 LINE SMOOTH",
"107 550 OFFCURVE",
"44 520 OFFCURVE",
"44 448 CURVE SMOOTH"
);
},
{
closed = 1;
nodes = (
"96 490 OFFCURVE",
"130 506 OFFCURVE",
"180 506 CURVE SMOOTH",
"300 506 LINE",
"300 497 LINE SMOOTH",
"300 422 OFFCURVE",
"257 386 OFFCURVE",
"184 386 CURVE SMOOTH",
"130 386 OFFCURVE",
"96 406 OFFCURVE",
"96 448 CURVE SMOOTH"
);
}
);
width = 415;
}
);
unicode = 00AA;
userData = {
RMXScaler = {
source = a;
};
};
},
{
glyphname = ordmasculine;
lastChange = "2020-05-17 19:09:29 +0000";
layers = (
{
background = {
paths = (
{
closed = 1;
nodes = (
"24 418 OFFCURVE",
"103 350 OFFCURVE",
"204 350 CURVE SMOOTH",
"306 350 OFFCURVE",
"385 418 OFFCURVE",
"385 529 CURVE SMOOTH",
"385 640 OFFCURVE",
"307 708 OFFCURVE",
"204 708 CURVE SMOOTH",
"102 708 OFFCURVE",
"24 640 OFFCURVE",
"24 529 CURVE SMOOTH"
);
},
{
closed = 1;
nodes = (
"116 592 OFFCURVE",
"153 628 OFFCURVE",
"204 628 CURVE SMOOTH",
"255 628 OFFCURVE",
"293 592 OFFCURVE",
"293 529 CURVE SMOOTH",
"293 466 OFFCURVE",
"255 431 OFFCURVE",
"204 431 CURVE SMOOTH",
"153 431 OFFCURVE",
"116 467 OFFCURVE",
"116 529 CURVE SMOOTH"
);
}
);
};
layerId = "5117E3E8-E17C-4812-BAF5-9E7064564A59";
paths = (
{
closed = 1;
nodes = (
"24 407 OFFCURVE",
"98 340 OFFCURVE",
"204 340 CURVE SMOOTH",
"310 340 OFFCURVE",
"384 407 OFFCURVE",
"384 525 CURVE SMOOTH",
"384 643 OFFCURVE",
"310 710 OFFCURVE",
"204 710 CURVE SMOOTH",
"98 710 OFFCURVE",
"24 643 OFFCURVE",
"24 525 CURVE SMOOTH"
);
},
{
closed = 1;
nodes = (
"118 597 OFFCURVE",
"154 634 OFFCURVE",
"204 634 CURVE SMOOTH",
"254 634 OFFCURVE",
"290 597 OFFCURVE",
"290 525 CURVE SMOOTH",
"290 453 OFFCURVE",
"254 416 OFFCURVE",
"204 416 CURVE SMOOTH",
"154 416 OFFCURVE",
"118 453 OFFCURVE",
"118 525 CURVE SMOOTH"
);
}
);
userData = {
RMXScaler = {
adjustSpace = 10;
height = 68;
verticalShift = 360;
weight = -190;
width = 69;
};
};
width = 408;
},
{
layerId = "CEFBB1E5-951F-4065-926E-8B9137F837F5";
paths = (
{
closed = 1;
nodes = (
"38 408 OFFCURVE",
"107 340 OFFCURVE",
"213 340 CURVE SMOOTH",
"319 340 OFFCURVE",
"388 408 OFFCURVE",
"388 523 CURVE SMOOTH",
"388 638 OFFCURVE",
"319 706 OFFCURVE",
"213 706 CURVE SMOOTH",
"107 706 OFFCURVE",
"38 638 OFFCURVE",
"38 523 CURVE SMOOTH"
);
},
{
closed = 1;
nodes = (
"90 607 OFFCURVE",
"138 662 OFFCURVE",
"213 662 CURVE SMOOTH",
"288 662 OFFCURVE",
"336 607 OFFCURVE",
"336 523 CURVE SMOOTH",
"336 439 OFFCURVE",
"288 384 OFFCURVE",
"213 384 CURVE SMOOTH",
"138 384 OFFCURVE",
"90 439 OFFCURVE",
"90 523 CURVE SMOOTH"
);
}
);
width = 426;
}
);
unicode = 00BA;
userData = {
RMXScaler = {
source = o;
};
};
},
{
glyphname = pi;
lastChange = "2020-05-18 13:00:46 +0000";
layers = (
{
layerId = "5117E3E8-E17C-4812-BAF5-9E7064564A59";
paths = (
{
closed = 1;
nodes = (
"230 392 LINE",
"336 392 LINE",
"336 112 LINE SMOOTH",
"336 44 OFFCURVE",
"380 0 OFFCURVE",
"446 0 CURVE SMOOTH",
"540 0 LINE",
"540 104 LINE",
"490 104 LINE SMOOTH",
"472 104 OFFCURVE",
"462 114 OFFCURVE",
"462 134 CURVE SMOOTH",
"462 392 LINE",
"540 392 LINE",
"540 496 LINE",
"26 496 LINE",
"26 392 LINE",
"104 392 LINE",
"104 0 LINE",
"230 0 LINE"
);
}
);
width = 578;
},
{
layerId = "CEFBB1E5-951F-4065-926E-8B9137F837F5";
paths = (
{
closed = 1;
nodes = (
"194 432 LINE",
"400 432 LINE",
"400 76 LINE SMOOTH",
"400 28 OFFCURVE",
"426 0 OFFCURVE",
"478 0 CURVE SMOOTH",
"530 0 LINE",
"530 54 LINE",
"490 54 LINE SMOOTH",
"468 54 OFFCURVE",
"460 64 OFFCURVE",
"460 84 CURVE SMOOTH",
"460 432 LINE",
"530 432 LINE",
"530 486 LINE",
"64 486 LINE",
"64 432 LINE",
"134 432 LINE",
"134 0 LINE",
"194 0 LINE"
);
}
);
width = 606;
}
);
note = pi;
unicode = 03C0;
},
{
glyphname = zero;
lastChange = "2020-06-02 09:59:13 +0000";
layers = (
{
layerId = "5117E3E8-E17C-4812-BAF5-9E7064564A59";
paths = (
{
closed = 1;
nodes = (
"50 262 LINE SMOOTH",
"50 76 OFFCURVE",
"158 -14 OFFCURVE",
"324 -14 CURVE SMOOTH",
"490 -14 OFFCURVE",
"598 76 OFFCURVE",
"598 262 CURVE SMOOTH",
"598 438 LINE SMOOTH",
"598 618 OFFCURVE",
"490 714 OFFCURVE",
"324 714 CURVE SMOOTH",
"158 714 OFFCURVE",
"50 618 OFFCURVE",
"50 438 CURVE SMOOTH"
);
},
{
closed = 1;
nodes = (
"178 543 OFFCURVE",
"232 600 OFFCURVE",
"324 600 CURVE SMOOTH",
"413 600 OFFCURVE",
"470 547 OFFCURVE",
"470 444 CURVE SMOOTH",
"470 258 LINE SMOOTH",
"470 157 OFFCURVE",
"424 100 OFFCURVE",
"324 100 CURVE SMOOTH",
"227 100 OFFCURVE",
"178 153 OFFCURVE",
"178 258 CURVE SMOOTH",
"178 444 LINE SMOOTH"
);
}
);
width = 648;
},
{
layerId = "CEFBB1E5-951F-4065-926E-8B9137F837F5";
paths = (
{
closed = 1;
nodes = (
"64 270 LINE SMOOTH",
"64 82 OFFCURVE",
"162 -14 OFFCURVE",
"319 -14 CURVE SMOOTH",
"476 -14 OFFCURVE",
"574 82 OFFCURVE",
"574 270 CURVE SMOOTH",
"574 430 LINE SMOOTH",
"574 618 OFFCURVE",
"476 714 OFFCURVE",
"319 714 CURVE SMOOTH",
"162 714 OFFCURVE",
"64 618 OFFCURVE",
"64 430 CURVE SMOOTH"
);
},
{
closed = 1;
nodes = (
"126 574 OFFCURVE",
"191 658 OFFCURVE",
"319 658 CURVE SMOOTH",
"447 658 OFFCURVE",
"512 574 OFFCURVE",
"512 434 CURVE SMOOTH",
"512 266 LINE SMOOTH",
"512 126 OFFCURVE",
"447 42 OFFCURVE",
"319 42 CURVE SMOOTH",
"191 42 OFFCURVE",
"126 126 OFFCURVE",
"126 266 CURVE SMOOTH",
"126 434 LINE SMOOTH"
);
}
);
width = 638;
}
);
leftKerningGroup = zero;
leftMetricsKey = O;
note = zero;
rightKerningGroup = zero;
rightMetricsKey = O;
unicode = 0030;
},
{
glyphname = one;
lastChange = "2020-06-02 10:02:19 +0000";
layers = (
{
layerId = "5117E3E8-E17C-4812-BAF5-9E7064564A59";
paths = (
{
closed = 1;
nodes = (
"12 384 LINE",
"146 384 LINE",
"240 606 LINE",
"258 606 LINE",
"258 0 LINE",
"386 0 LINE",
"386 700 LINE",
"155 700 LINE"
);
}
);
width = 452;
},
{
layerId = "CEFBB1E5-951F-4065-926E-8B9137F837F5";
paths = (
{
closed = 1;
nodes = (
"20 402 LINE",
"90 402 LINE",
"243 662 LINE",
"256 662 LINE",
"256 0 LINE",
"318 0 LINE",
"318 700 LINE",
"197 700 LINE"
);
}
);
width = 404;
}
);
leftKerningGroup = one;
note = one;
rightKerningGroup = one;
rightMetricsKey = I;
unicode = 0031;
},
{
glyphname = two;
lastChange = "2020-06-02 10:02:24 +0000";
layers = (
{
layerId = "5117E3E8-E17C-4812-BAF5-9E7064564A59";
paths = (
{
closed = 1;
nodes = (
"44 460 LINE",
"172 460 LINE",
"172 478 LINE SMOOTH",
"172 557 OFFCURVE",
"223 600 OFFCURVE",
"301 600 CURVE SMOOTH",
"379 600 OFFCURVE",
"428 557 OFFCURVE",
"428 491 CURVE SMOOTH",
"428 487 LINE SMOOTH",
"428 423 OFFCURVE",
"387 381 OFFCURVE",
"314 358 CURVE SMOOTH",
"247 337 LINE SMOOTH",
"115 296 OFFCURVE",
"42 230 OFFCURVE",
"42 84 CURVE SMOOTH",
"42 0 LINE",
"550 0 LINE",
"550 114 LINE",
"173 114 LINE",
"173 118 LINE SMOOTH",
"173 169 OFFCURVE",
"197 198 OFFCURVE",
"283 225 CURVE SMOOTH",
"347 245 LINE SMOOTH",
"466 282 OFFCURVE",
"556 348 OFFCURVE",
"556 483 CURVE SMOOTH",
"556 493 LINE SMOOTH",
"556 627 OFFCURVE",
"445 714 OFFCURVE",
"301 714 CURVE SMOOTH",
"157 714 OFFCURVE",
"44 627 OFFCURVE",
"44 476 CURVE SMOOTH"
);
}
);
width = 594;
},
{
layerId = "CEFBB1E5-951F-4065-926E-8B9137F837F5";
paths = (
{
closed = 1;
nodes = (
"63 465 LINE",
"123 465 LINE",
"123 478 LINE SMOOTH",
"123 599 OFFCURVE",
"201 658 OFFCURVE",
"312 658 CURVE SMOOTH",
"416 658 OFFCURVE",
"491 598 OFFCURVE",
"491 501 CURVE SMOOTH",
"491 497 LINE SMOOTH",
"491 392 OFFCURVE",
"423 349 OFFCURVE",
"325 319 CURVE SMOOTH",
"275 303 LINE SMOOTH",
"143 262 OFFCURVE",
"58 219 OFFCURVE",
"58 69 CURVE SMOOTH",
"58 0 LINE",
"547 0 LINE",
"547 56 LINE",
"120 56 LINE",
"120 79 LINE SMOOTH",
"120 187 OFFCURVE",
"181 214 OFFCURVE",
"289 248 CURVE SMOOTH",
"339 263 LINE SMOOTH",
"469 304 OFFCURVE",
"553 358 OFFCURVE",
"553 494 CURVE SMOOTH",
"553 503 LINE SMOOTH",
"553 629 OFFCURVE",
"456 714 OFFCURVE",
"312 714 CURVE SMOOTH",
"168 714 OFFCURVE",
"63 630 OFFCURVE",
"63 478 CURVE SMOOTH"
);
}
);
width = 606;
}
);
leftKerningGroup = two;
note = two;
rightKerningGroup = two;
unicode = 0032;
},
{
glyphname = three;
lastChange = "2020-05-18 15:03:10 +0000";
layers = (
{
layerId = "5117E3E8-E17C-4812-BAF5-9E7064564A59";
paths = (
{
closed = 1;
nodes = (
"52 586 LINE",
"406 586 LINE",
"406 570 LINE",
"180 450 LINE",
"180 310 LINE",
"320 310 LINE SMOOTH",
"388 310 OFFCURVE",
"440 283 OFFCURVE",
"440 219 CURVE SMOOTH",
"440 209 LINE SMOOTH",
"440 146 OFFCURVE",
"390 100 OFFCURVE",
"304 100 CURVE SMOOTH",
"218 100 OFFCURVE",
"162 148 OFFCURVE",
"162 223 CURVE SMOOTH",
"162 237 LINE",
"34 237 LINE",
"34 219 LINE SMOOTH",
"34 75 OFFCURVE",
"146 -14 OFFCURVE",
"304 -14 CURVE SMOOTH",
"462 -14 OFFCURVE",
"568 73 OFFCURVE",
"568 210 CURVE SMOOTH",
"568 222 LINE SMOOTH",
"568 348 OFFCURVE",
"467 402 OFFCURVE",
"374 402 CURVE SMOOTH",
"337 402 LINE",
"337 418 LINE",
"548 530 LINE",
"548 700 LINE",
"52 700 LINE"
);
}
);
width = 608;
},
{
layerId = "CEFBB1E5-951F-4065-926E-8B9137F837F5";
paths = (
{
closed = 1;
nodes = (
"66 644 LINE",
"484 644 LINE",
"484 634 LINE",
"200 441 LINE",
"200 357 LINE",
"303 357 LINE SMOOTH",
"403 357 OFFCURVE",
"485 313 OFFCURVE",
"485 210 CURVE SMOOTH",
"485 204 LINE SMOOTH",
"485 111 OFFCURVE",
"417 42 OFFCURVE",
"303 42 CURVE SMOOTH",
"189 42 OFFCURVE",
"112 111 OFFCURVE",
"112 224 CURVE SMOOTH",
"112 244 LINE",
"50 244 LINE",
"50 225 LINE SMOOTH",
"50 72 OFFCURVE",
"156 -14 OFFCURVE",
"303 -14 CURVE SMOOTH",
"451 -14 OFFCURVE",
"547 72 OFFCURVE",
"547 202 CURVE SMOOTH",
"547 212 LINE SMOOTH",
"547 341 OFFCURVE",
"449 409 OFFCURVE",
"320 409 CURVE SMOOTH",
"265 409 LINE",
"265 419 LINE",
"546 610 LINE",
"546 700 LINE",
"66 700 LINE"
);
}
);
width = 603;
}
);
leftKerningGroup = three;
note = three;
rightKerningGroup = three;
unicode = 0033;
},
{
glyphname = four;
lastChange = "2020-06-02 09:59:57 +0000";
layers = (
{
layerId = "5117E3E8-E17C-4812-BAF5-9E7064564A59";
paths = (
{
closed = 1;
nodes = (
"26 252 LINE",
"26 142 LINE",
"374 142 LINE",
"374 0 LINE",
"502 0 LINE",
"502 142 LINE",
"618 142 LINE",
"618 256 LINE",
"502 256 LINE",
"502 700 LINE",
"271 700 LINE"
);
},
{
closed = 1;
nodes = (
"374 618 LINE",
"374 256 LINE",
"158 256 LINE",
"356 618 LINE"
);
}
);
width = 640;
},
{
layerId = "CEFBB1E5-951F-4065-926E-8B9137F837F5";
paths = (
{
closed = 1;
nodes = (
"33 198 LINE",
"33 144 LINE",
"413 144 LINE",
"413 0 LINE",
"475 0 LINE",
"475 144 LINE",
"597 144 LINE",
"597 200 LINE",
"475 200 LINE",
"475 700 LINE",
"355 700 LINE"
);
},
{
closed = 1;
nodes = (
"413 664 LINE",
"413 200 LINE",
"103 200 LINE",
"401 664 LINE"
);
}
);
width = 624;
}
);
leftKerningGroup = four;
note = four;
rightKerningGroup = four;
unicode = 0034;
},
{
glyphname = five;
lastChange = "2020-05-18 15:03:58 +0000";
layers = (
{
layerId = "5117E3E8-E17C-4812-BAF5-9E7064564A59";
paths = (
{
closed = 1;
nodes = (
"60 308 LINE",
"215 308 LINE",
"230 332 OFFCURVE",
"256 360 OFFCURVE",
"314 360 CURVE SMOOTH",
"385 360 OFFCURVE",
"438 312 OFFCURVE",
"438 238 CURVE SMOOTH",
"438 228 LINE SMOOTH",
"438 152 OFFCURVE",
"389 100 OFFCURVE",
"301 100 CURVE SMOOTH",
"213 100 OFFCURVE",
"168 154 OFFCURVE",
"168 221 CURVE SMOOTH",
"168 230 LINE",
"38 230 LINE",
"38 220 LINE SMOOTH",
"38 79 OFFCURVE",
"139 -14 OFFCURVE",
"303 -14 CURVE SMOOTH",
"467 -14 OFFCURVE",
"566 79 OFFCURVE",
"566 227 CURVE SMOOTH",
"566 239 LINE SMOOTH",
"566 386 OFFCURVE",
"464 466 OFFCURVE",
"341 466 CURVE SMOOTH",
"266 466 OFFCURVE",
"225 438 OFFCURVE",
"206 413 CURVE",
"188 413 LINE",
"188 584 LINE",
"538 584 LINE",
"538 700 LINE",
"60 700 LINE"
);
}
);
width = 600;
},
{
layerId = "CEFBB1E5-951F-4065-926E-8B9137F837F5";
paths = (
{
closed = 1;
nodes = (
"77 327 LINE",
"169 327 LINE",
"188 364 OFFCURVE",
"225 416 OFFCURVE",
"314 416 CURVE SMOOTH",
"415 416 OFFCURVE",
"483 346 OFFCURVE",
"483 235 CURVE SMOOTH",
"483 227 LINE SMOOTH",
"483 111 OFFCURVE",
"414 42 OFFCURVE",
"300 42 CURVE SMOOTH",
"193 42 OFFCURVE",
"118 102 OFFCURVE",
"118 222 CURVE SMOOTH",
"118 232 LINE",
"56 232 LINE",
"56 219 LINE SMOOTH",
"56 80 OFFCURVE",
"153 -14 OFFCURVE",
"301 -14 CURVE SMOOTH",
"452 -14 OFFCURVE",
"545 86 OFFCURVE",
"545 226 CURVE SMOOTH",
"545 236 LINE SMOOTH",
"545 380 OFFCURVE",
"449 470 OFFCURVE",
"328 470 CURVE SMOOTH",
"222 470 OFFCURVE",
"172 418 OFFCURVE",
"151 373 CURVE",
"139 373 LINE",
"139 644 LINE",
"529 644 LINE",
"529 700 LINE",
"77 700 LINE"
);
}
);
width = 598;
}
);
leftKerningGroup = five;
note = five;
rightKerningGroup = five;
unicode = 0035;
},
{
glyphname = six;
lastChange = "2020-06-02 09:59:03 +0000";
layers = (
{
layerId = "5117E3E8-E17C-4812-BAF5-9E7064564A59";
paths = (
{
closed = 1;
nodes = (
"178 468 LINE SMOOTH",
"178 550 OFFCURVE",
"228 600 OFFCURVE",
"318 600 CURVE SMOOTH",
"408 600 OFFCURVE",
"444 552 OFFCURVE",
"444 496 CURVE",
"574 496 LINE",
"574 632 OFFCURVE",
"474 714 OFFCURVE",
"318 714 CURVE SMOOTH",
"162 714 OFFCURVE",
"50 630 OFFCURVE",
"50 460 CURVE SMOOTH",
"50 221 LINE SMOOTH",
"50 83 OFFCURVE",
"152 -14 OFFCURVE",
"312 -14 CURVE SMOOTH",
"472 -14 OFFCURVE",
"578 80 OFFCURVE",
"578 219 CURVE SMOOTH",
"578 231 LINE SMOOTH",
"578 371 OFFCURVE",
"471 452 OFFCURVE",
"350 452 CURVE SMOOTH",
"260 452 OFFCURVE",
"219 423 OFFCURVE",
"196 396 CURVE",
"178 396 LINE"
);
},
{
closed = 1;
nodes = (
"397 350 OFFCURVE",
"450 303 OFFCURVE",
"450 229 CURVE SMOOTH",
"450 221 LINE SMOOTH",
"450 147 OFFCURVE",
"398 100 OFFCURVE",
"314 100 CURVE SMOOTH",
"230 100 OFFCURVE",
"178 147 OFFCURVE",
"178 221 CURVE SMOOTH",
"178 229 LINE SMOOTH",
"178 303 OFFCURVE",
"231 350 OFFCURVE",
"314 350 CURVE SMOOTH"
);
}
);
width = 618;
},
{
layerId = "CEFBB1E5-951F-4065-926E-8B9137F837F5";
paths = (
{
closed = 1;
nodes = (
"126 476 LINE SMOOTH",
"126 589 OFFCURVE",
"193 658 OFFCURVE",
"311 658 CURVE SMOOTH",
"425 658 OFFCURVE",
"486 597 OFFCURVE",
"486 505 CURVE",
"548 505 LINE",
"548 622 OFFCURVE",
"465 714 OFFCURVE",
"311 714 CURVE SMOOTH",
"155 714 OFFCURVE",
"64 620 OFFCURVE",
"64 469 CURVE SMOOTH",
"64 222 LINE SMOOTH",
"64 73 OFFCURVE",
"170 -14 OFFCURVE",
"309 -14 CURVE SMOOTH",
"447 -14 OFFCURVE",
"554 74 OFFCURVE",
"554 217 CURVE SMOOTH",
"554 229 LINE SMOOTH",
"554 370 OFFCURVE",
"453 460 OFFCURVE",
"324 460 CURVE SMOOTH",
"220 460 OFFCURVE",
"163 414 OFFCURVE",
"138 369 CURVE",
"126 369 LINE"
);
},
{
closed = 1;
nodes = (
"416 406 OFFCURVE",
"492 335 OFFCURVE",
"492 226 CURVE SMOOTH",
"492 218 LINE SMOOTH",
"492 109 OFFCURVE",
"417 42 OFFCURVE",
"309 42 CURVE SMOOTH",
"201 42 OFFCURVE",
"126 109 OFFCURVE",
"126 218 CURVE SMOOTH",
"126 226 LINE SMOOTH",
"126 335 OFFCURVE",
"202 406 OFFCURVE",
"309 406 CURVE SMOOTH"
);
}
);
width = 610;
}
);
leftKerningGroup = six;
leftMetricsKey = O;
note = six;
rightKerningGroup = six;
unicode = 0036;
},
{
glyphname = seven;
lastChange = "2020-06-02 10:02:26 +0000";
layers = (
{
layerId = "5117E3E8-E17C-4812-BAF5-9E7064564A59";
paths = (
{
closed = 1;
nodes = (
"26 586 LINE",
"398 586 LINE",
"398 570 LINE",
"163 155 LINE SMOOTH",
"136 108 OFFCURVE",
"131 78 OFFCURVE",
"131 26 CURVE SMOOTH",
"131 0 LINE",
"259 0 LINE",
"259 20 LINE SMOOTH",
"259 55 OFFCURVE",
"265 74 OFFCURVE",
"282 105 CURVE SMOOTH",
"530 548 LINE",
"530 700 LINE",
"26 700 LINE"
);
}
);
width = 554;
},
{
layerId = "CEFBB1E5-951F-4065-926E-8B9137F837F5";
paths = (
{
closed = 1;
nodes = (
"35 644 LINE",
"468 644 LINE",
"468 635 LINE",
"189 135 LINE SMOOTH",
"166 92 OFFCURVE",
"160 69 OFFCURVE",
"160 24 CURVE SMOOTH",
"160 0 LINE",
"222 0 LINE",
"222 24 LINE SMOOTH",
"222 59 OFFCURVE",
"227 76 OFFCURVE",
"242 103 CURVE SMOOTH",
"534 627 LINE",
"534 700 LINE",
"35 700 LINE"
);
}
);
width = 568;
}
);
leftKerningGroup = seven;
note = seven;
rightKerningGroup = seven;
unicode = 0037;
},
{
glyphname = eight;
lastChange = "2020-06-02 09:59:06 +0000";
layers = (
{
layerId = "5117E3E8-E17C-4812-BAF5-9E7064564A59";
paths = (
{
closed = 1;
nodes = (
"142 714 OFFCURVE",
"38 638 OFFCURVE",
"38 529 CURVE SMOOTH",
"38 517 LINE SMOOTH",
"38 432 OFFCURVE",
"89 387 OFFCURVE",
"136 371 CURVE",
"136 353 LINE",
"89 339 OFFCURVE",
"28 294 OFFCURVE",
"28 199 CURVE SMOOTH",
"28 187 LINE SMOOTH",
"28 62 OFFCURVE",
"140 -14 OFFCURVE",
"300 -14 CURVE SMOOTH",
"460 -14 OFFCURVE",
"572 62 OFFCURVE",
"572 187 CURVE SMOOTH",
"572 199 LINE SMOOTH",
"572 294 OFFCURVE",
"511 339 OFFCURVE",
"464 353 CURVE",
"464 371 LINE",
"511 387 OFFCURVE",
"562 432 OFFCURVE",
"562 517 CURVE SMOOTH",
"562 529 LINE SMOOTH",
"562 638 OFFCURVE",
"458 714 OFFCURVE",
"300 714 CURVE SMOOTH"
);
},
{
closed = 1;
nodes = (
"394 302 OFFCURVE",
"444 264 OFFCURVE",
"444 205 CURVE SMOOTH",
"444 197 LINE SMOOTH",
"444 138 OFFCURVE",
"392 100 OFFCURVE",
"300 100 CURVE SMOOTH",
"208 100 OFFCURVE",
"156 138 OFFCURVE",
"156 197 CURVE SMOOTH",
"156 205 LINE SMOOTH",
"156 264 OFFCURVE",
"206 302 OFFCURVE",
"300 302 CURVE SMOOTH"
);
},
{
closed = 1;
nodes = (
"383 600 OFFCURVE",
"434 568 OFFCURVE",
"434 512 CURVE SMOOTH",
"434 504 LINE SMOOTH",
"434 448 OFFCURVE",
"385 416 OFFCURVE",
"300 416 CURVE SMOOTH",
"215 416 OFFCURVE",
"166 448 OFFCURVE",
"166 504 CURVE SMOOTH",
"166 512 LINE SMOOTH",
"166 568 OFFCURVE",
"217 600 OFFCURVE",
"300 600 CURVE SMOOTH"
);
}
);
width = 600;
},
{
layerId = "CEFBB1E5-951F-4065-926E-8B9137F837F5";
paths = (
{
closed = 1;
nodes = (
"174 714 OFFCURVE",
"68 648 OFFCURVE",
"68 533 CURVE SMOOTH",
"68 523 LINE SMOOTH",
"68 430 OFFCURVE",
"139 384 OFFCURVE",
"198 370 CURVE",
"198 358 LINE",
"139 349 OFFCURVE",
"54 301 OFFCURVE",
"54 193 CURVE SMOOTH",
"54 183 LINE SMOOTH",
"54 65 OFFCURVE",
"152 -14 OFFCURVE",
"316 -14 CURVE SMOOTH",
"479 -14 OFFCURVE",
"578 65 OFFCURVE",
"578 183 CURVE SMOOTH",
"578 193 LINE SMOOTH",
"578 301 OFFCURVE",
"493 349 OFFCURVE",
"434 358 CURVE",
"434 370 LINE",
"493 384 OFFCURVE",
"564 430 OFFCURVE",
"564 523 CURVE SMOOTH",
"564 533 LINE SMOOTH",
"564 648 OFFCURVE",
"458 714 OFFCURVE",
"316 714 CURVE SMOOTH"
);
},
{
closed = 1;
nodes = (
"437 334 OFFCURVE",
"516 286 OFFCURVE",
"516 192 CURVE SMOOTH",
"516 184 LINE SMOOTH",
"516 90 OFFCURVE",
"437 42 OFFCURVE",
"316 42 CURVE SMOOTH",
"195 42 OFFCURVE",
"116 90 OFFCURVE",
"116 184 CURVE SMOOTH",
"116 192 LINE SMOOTH",
"116 286 OFFCURVE",
"194 334 OFFCURVE",
"316 334 CURVE SMOOTH"
);
},
{
closed = 1;
nodes = (
"431 658 OFFCURVE",
"502 611 OFFCURVE",
"502 528 CURVE SMOOTH",
"502 520 LINE SMOOTH",
"502 437 OFFCURVE",
"431 390 OFFCURVE",
"316 390 CURVE SMOOTH",
"201 390 OFFCURVE",
"130 437 OFFCURVE",
"130 520 CURVE SMOOTH",
"130 528 LINE SMOOTH",
"130 611 OFFCURVE",
"201 658 OFFCURVE",
"316 658 CURVE SMOOTH"
);
}
);
width = 632;
}
);
leftKerningGroup = eight;
note = eight;
rightKerningGroup = eight;
unicode = 0038;
},
{
glyphname = nine;
lastChange = "2020-06-02 09:59:23 +0000";
layers = (
{
layerId = "5117E3E8-E17C-4812-BAF5-9E7064564A59";
paths = (
{
closed = 1;
nodes = (
"440 232 LINE SMOOTH",
"440 150 OFFCURVE",
"390 100 OFFCURVE",
"300 100 CURVE SMOOTH",
"210 100 OFFCURVE",
"174 148 OFFCURVE",
"174 204 CURVE",
"44 204 LINE",
"44 68 OFFCURVE",
"144 -14 OFFCURVE",
"300 -14 CURVE SMOOTH",
"456 -14 OFFCURVE",
"568 70 OFFCURVE",
"568 240 CURVE SMOOTH",
"568 479 LINE SMOOTH",
"568 617 OFFCURVE",
"466 714 OFFCURVE",
"306 714 CURVE SMOOTH",
"146 714 OFFCURVE",
"40 620 OFFCURVE",
"40 481 CURVE SMOOTH",
"40 469 LINE SMOOTH",
"40 329 OFFCURVE",
"147 248 OFFCURVE",
"268 248 CURVE SMOOTH",
"358 248 OFFCURVE",
"399 277 OFFCURVE",
"422 304 CURVE",
"440 304 LINE"
);
},
{
closed = 1;
nodes = (
"221 350 OFFCURVE",
"168 397 OFFCURVE",
"168 471 CURVE SMOOTH",
"168 479 LINE SMOOTH",
"168 553 OFFCURVE",
"220 600 OFFCURVE",
"304 600 CURVE SMOOTH",
"388 600 OFFCURVE",
"440 553 OFFCURVE",
"440 479 CURVE SMOOTH",
"440 471 LINE SMOOTH",
"440 397 OFFCURVE",
"387 350 OFFCURVE",
"304 350 CURVE SMOOTH"
);
}
);
width = 618;
},
{
layerId = "CEFBB1E5-951F-4065-926E-8B9137F837F5";
paths = (
{
closed = 1;
nodes = (
"484 224 LINE SMOOTH",
"484 111 OFFCURVE",
"417 42 OFFCURVE",
"299 42 CURVE SMOOTH",
"185 42 OFFCURVE",
"124 103 OFFCURVE",
"124 195 CURVE",
"62 195 LINE",
"62 78 OFFCURVE",
"145 -14 OFFCURVE",
"299 -14 CURVE SMOOTH",
"455 -14 OFFCURVE",
"546 80 OFFCURVE",
"546 231 CURVE SMOOTH",
"546 478 LINE SMOOTH",
"546 627 OFFCURVE",
"440 714 OFFCURVE",
"301 714 CURVE SMOOTH",
"163 714 OFFCURVE",
"56 626 OFFCURVE",
"56 483 CURVE SMOOTH",
"56 471 LINE SMOOTH",
"56 330 OFFCURVE",
"157 240 OFFCURVE",
"286 240 CURVE SMOOTH",
"390 240 OFFCURVE",
"447 286 OFFCURVE",
"472 331 CURVE",
"484 331 LINE"
);
},
{
closed = 1;
nodes = (
"194 294 OFFCURVE",
"118 365 OFFCURVE",
"118 474 CURVE SMOOTH",
"118 482 LINE SMOOTH",
"118 591 OFFCURVE",
"193 658 OFFCURVE",
"301 658 CURVE SMOOTH",
"409 658 OFFCURVE",
"484 591 OFFCURVE",
"484 482 CURVE SMOOTH",
"484 474 LINE SMOOTH",
"484 365 OFFCURVE",
"408 294 OFFCURVE",
"301 294 CURVE SMOOTH"
);
}
);
width = 610;
}
);
leftKerningGroup = nine;
note = nine;
rightKerningGroup = nine;
rightMetricsKey = O;
unicode = 0039;
},
{
glyphname = zero.zero;
lastChange = "2020-05-18 15:05:41 +0000";
layers = (
{
layerId = "5117E3E8-E17C-4812-BAF5-9E7064564A59";
paths = (
{
closed = 1;
nodes = (
"50 262 LINE SMOOTH",
"50 76 OFFCURVE",
"158 -14 OFFCURVE",
"324 -14 CURVE SMOOTH",
"490 -14 OFFCURVE",
"598 76 OFFCURVE",
"598 262 CURVE SMOOTH",
"598 438 LINE SMOOTH",
"598 618 OFFCURVE",
"490 714 OFFCURVE",
"324 714 CURVE SMOOTH",
"158 714 OFFCURVE",
"50 618 OFFCURVE",
"50 438 CURVE SMOOTH"
);
},
{
closed = 1;
nodes = (
"178 543 OFFCURVE",
"232 600 OFFCURVE",
"324 600 CURVE SMOOTH",
"413 600 OFFCURVE",
"470 547 OFFCURVE",
"470 444 CURVE SMOOTH",
"470 258 LINE SMOOTH",
"470 157 OFFCURVE",
"424 100 OFFCURVE",
"324 100 CURVE SMOOTH",
"227 100 OFFCURVE",
"178 153 OFFCURVE",
"178 258 CURVE SMOOTH",
"178 444 LINE SMOOTH"
);
},
{
closed = 1;
nodes = (
"125 253 LINE",
"171 187 LINE",
"523 447 LINE",
"477 513 LINE"
);
}
);
width = 648;
},
{
layerId = "CEFBB1E5-951F-4065-926E-8B9137F837F5";
paths = (
{
closed = 1;
nodes = (
"64 271 LINE SMOOTH",
"64 83 OFFCURVE",
"162 -14 OFFCURVE",
"319 -14 CURVE SMOOTH",
"476 -14 OFFCURVE",
"574 83 OFFCURVE",
"574 271 CURVE SMOOTH",
"574 429 LINE SMOOTH",
"574 616 OFFCURVE",
"476 714 OFFCURVE",
"319 714 CURVE SMOOTH",
"162 714 OFFCURVE",
"64 616 OFFCURVE",
"64 429 CURVE SMOOTH"
);
},
{
closed = 1;
nodes = (
"126 573 OFFCURVE",
"194 658 OFFCURVE",
"319 658 CURVE SMOOTH",
"444 658 OFFCURVE",
"512 574 OFFCURVE",
"512 434 CURVE SMOOTH",
"512 267 LINE SMOOTH",
"512 127 OFFCURVE",
"445 42 OFFCURVE",
"319 42 CURVE SMOOTH",
"193 42 OFFCURVE",
"126 126 OFFCURVE",
"126 267 CURVE SMOOTH",
"126 434 LINE SMOOTH"
);
},
{
closed = 1;
nodes = (
"103 228 LINE",
"128 186 LINE",
"534 472 LINE",
"509 514 LINE"
);
}
);
width = 638;
}
);
leftKerningGroup = zero;
leftMetricsKey = O;
note = zero;
rightKerningGroup = zero;
rightMetricsKey = O;
},
{
glyphname = zero.osf;
lastChange = "2020-05-17 19:22:01 +0000";
layers = (
{
layerId = "5117E3E8-E17C-4812-BAF5-9E7064564A59";
paths = (
{
closed = 1;
nodes = (
"46 90 OFFCURVE",
"158 -14 OFFCURVE",
"312 -14 CURVE SMOOTH",
"466 -14 OFFCURVE",
"578 90 OFFCURVE",
"578 248 CURVE SMOOTH",
"578 406 OFFCURVE",
"466 510 OFFCURVE",
"312 510 CURVE SMOOTH",
"158 510 OFFCURVE",
"46 406 OFFCURVE",
"46 248 CURVE SMOOTH"
);
},
{
closed = 1;
nodes = (
"172 334 OFFCURVE",
"228 398 OFFCURVE",
"312 398 CURVE SMOOTH",
"396 398 OFFCURVE",
"452 334 OFFCURVE",
"452 248 CURVE SMOOTH",
"452 162 OFFCURVE",
"396 98 OFFCURVE",
"312 98 CURVE SMOOTH",
"228 98 OFFCURVE",
"172 162 OFFCURVE",
"172 248 CURVE SMOOTH"
);
}
);
width = 624;
},
{
layerId = "CEFBB1E5-951F-4065-926E-8B9137F837F5";
paths = (
{
closed = 1;
nodes = (
"64 91 OFFCURVE",
"166 -14 OFFCURVE",
"318 -14 CURVE SMOOTH",
"471 -14 OFFCURVE",
"572 91 OFFCURVE",
"572 243 CURVE SMOOTH",
"572 395 OFFCURVE",
"471 500 OFFCURVE",
"318 500 CURVE SMOOTH",
"166 500 OFFCURVE",
"64 395 OFFCURVE",
"64 243 CURVE SMOOTH"
);
},
{
closed = 1;
nodes = (
"124 363 OFFCURVE",
"200 446 OFFCURVE",
"318 446 CURVE SMOOTH",
"436 446 OFFCURVE",
"512 363 OFFCURVE",
"512 243 CURVE SMOOTH",
"512 123 OFFCURVE",
"436 40 OFFCURVE",
"318 40 CURVE SMOOTH",
"200 40 OFFCURVE",
"124 123 OFFCURVE",
"124 243 CURVE SMOOTH"
);
}
);
width = 636;
}
);
leftKerningGroup = zero.osf;
leftMetricsKey = o;
note = zero.tosn;
rightKerningGroup = zero.osf;
rightMetricsKey = o;
},
{
glyphname = one.osf;
lastChange = "2020-05-17 22:41:01 +0000";
layers = (
{
layerId = "5117E3E8-E17C-4812-BAF5-9E7064564A59";
paths = (
{
closed = 1;
nodes = (
"18 274 LINE",
"146 274 LINE",
"197 406 LINE",
"215 406 LINE",
"215 0 LINE",
"341 0 LINE",
"341 496 LINE",
"114 496 LINE"
);
}
);
width = 411;
},
{
layerId = "CEFBB1E5-951F-4065-926E-8B9137F837F5";
paths = (
{
closed = 1;
nodes = (
"38 272 LINE",
"108 272 LINE",
"219 439 LINE",
"230 439 LINE",
"230 0 LINE",
"290 0 LINE",
"290 486 LINE",
"182 486 LINE"
);
}
);
width = 378;
}
);
leftKerningGroup = one.osf;
note = one.tosn;
rightKerningGroup = one.osf;
rightMetricsKey = u;
},
{
glyphname = two.osf;
lastChange = "2020-05-17 22:41:01 +0000";
layers = (
{
layerId = "5117E3E8-E17C-4812-BAF5-9E7064564A59";
paths = (
{
closed = 1;
nodes = (
"170 312 LINE",
"175 383 OFFCURVE",
"231 408 OFFCURVE",
"298 408 CURVE SMOOTH",
"365 408 OFFCURVE",
"410 383 OFFCURVE",
"410 337 CURVE SMOOTH",
"410 291 OFFCURVE",
"367 269 OFFCURVE",
"306 260 CURVE SMOOTH",
"248 251 LINE SMOOTH",
"126 232 OFFCURVE",
"46 170 OFFCURVE",
"46 64 CURVE SMOOTH",
"46 0 LINE",
"528 0 LINE",
"528 102 LINE",
"186 102 LINE",
"186 130 OFFCURVE",
"219 143 OFFCURVE",
"263 150 CURVE SMOOTH",
"335 161 LINE SMOOTH",
"449 178 OFFCURVE",
"534 222 OFFCURVE",
"534 337 CURVE SMOOTH",
"534 452 OFFCURVE",
"432 510 OFFCURVE",
"298 510 CURVE SMOOTH",
"166 510 OFFCURVE",
"62 451 OFFCURVE",
"48 332 CURVE"
);
}
);
width = 580;
},
{
layerId = "CEFBB1E5-951F-4065-926E-8B9137F837F5";
paths = (
{
closed = 1;
nodes = (
"125 319 LINE",
"139 410 OFFCURVE",
"208 446 OFFCURVE",
"300 446 CURVE SMOOTH",
"392 446 OFFCURVE",
"449 410 OFFCURVE",
"449 344 CURVE SMOOTH",
"449 278 OFFCURVE",
"395 250 OFFCURVE",
"313 235 CURVE SMOOTH",
"239 221 LINE SMOOTH",
"130 201 OFFCURVE",
"66 142 OFFCURVE",
"66 40 CURVE SMOOTH",
"66 0 LINE",
"509 0 LINE",
"509 54 LINE",
"128 54 LINE",
"128 120 OFFCURVE",
"179 155 OFFCURVE",
"248 168 CURVE SMOOTH",
"324 181 LINE SMOOTH",
"437 200 OFFCURVE",
"511 244 OFFCURVE",
"511 344 CURVE SMOOTH",
"511 444 OFFCURVE",
"424 500 OFFCURVE",
"300 500 CURVE SMOOTH",
"176 500 OFFCURVE",
"81 444 OFFCURVE",
"64 330 CURVE"
);
}
);
width = 570;
}
);
leftKerningGroup = two.osf;
note = two.tosn;
rightKerningGroup = two.osf;
},
{
glyphname = three.osf;
lastChange = "2020-05-17 22:41:01 +0000";
layers = (
{
layerId = "5117E3E8-E17C-4812-BAF5-9E7064564A59";
paths = (
{
closed = 1;
nodes = (
"26 -5 LINE",
"36 -122 OFFCURVE",
"138 -214 OFFCURVE",
"288 -214 CURVE SMOOTH",
"446 -214 OFFCURVE",
"541 -121 OFFCURVE",
"541 1 CURVE SMOOTH",
"541 13 LINE SMOOTH",
"541 139 OFFCURVE",
"443 202 OFFCURVE",
"343 202 CURVE SMOOTH",
"316 202 LINE",
"316 218 LINE",
"528 348 LINE",
"528 496 LINE",
"42 496 LINE",
"42 390 LINE",
"378 390 LINE",
"378 374 LINE",
"168 244 LINE",
"168 114 LINE",
"301 114 LINE SMOOTH",
"365 114 OFFCURVE",
"415 80 OFFCURVE",
"415 13 CURVE SMOOTH",
"415 5 LINE SMOOTH",
"415 -61 OFFCURVE",
"369 -106 OFFCURVE",
"288 -106 CURVE SMOOTH",
"210 -106 OFFCURVE",
"157 -62 OFFCURVE",
"151 13 CURVE"
);
}
);
width = 581;
},
{
layerId = "CEFBB1E5-951F-4065-926E-8B9137F837F5";
paths = (
{
closed = 1;
nodes = (
"50 -1 LINE",
"58 -138 OFFCURVE",
"157 -214 OFFCURVE",
"297 -214 CURVE SMOOTH",
"429 -214 OFFCURVE",
"526 -127 OFFCURVE",
"526 -3 CURVE SMOOTH",
"526 9 LINE SMOOTH",
"526 136 OFFCURVE",
"429 206 OFFCURVE",
"308 206 CURVE SMOOTH",
"266 206 LINE",
"266 216 LINE",
"526 406 LINE",
"526 486 LINE",
"64 486 LINE",
"64 432 LINE",
"457 432 LINE",
"457 422 LINE",
"197 232 LINE",
"197 156 LINE",
"293 156 LINE SMOOTH",
"386 156 OFFCURVE",
"466 109 OFFCURVE",
"466 9 CURVE SMOOTH",
"466 1 LINE SMOOTH",
"466 -89 OFFCURVE",
"400 -160 OFFCURVE",
"297 -160 CURVE SMOOTH",
"190 -160 OFFCURVE",
"117 -107 OFFCURVE",
"109 7 CURVE"
);
}
);
width = 590;
}
);
leftKerningGroup = three.osf;
note = three.tosn;
rightKerningGroup = three.osf;
},
{
glyphname = four.osf;
lastChange = "2020-05-17 22:41:01 +0000";
layers = (
{
layerId = "5117E3E8-E17C-4812-BAF5-9E7064564A59";
paths = (
{
closed = 1;
nodes = (
"32 98 LINE",
"32 0 LINE",
"364 0 LINE",
"364 -200 LINE",
"490 -200 LINE",
"490 0 LINE",
"604 0 LINE",
"604 106 LINE",
"490 106 LINE",
"490 496 LINE",
"264 496 LINE"
);
},
{
closed = 1;
nodes = (
"364 410 LINE",
"364 106 LINE",
"168 106 LINE",
"346 410 LINE"
);
}
);
width = 624;
},
{
layerId = "CEFBB1E5-951F-4065-926E-8B9137F837F5";
paths = (
{
closed = 1;
nodes = (
"32 51 LINE",
"32 0 LINE",
"403 0 LINE",
"403 -200 LINE",
"463 -200 LINE",
"463 0 LINE",
"587 0 LINE",
"587 54 LINE",
"463 54 LINE",
"463 486 LINE",
"355 486 LINE"
);
},
{
closed = 1;
nodes = (
"403 444 LINE",
"403 54 LINE",
"101 54 LINE",
"391 444 LINE"
);
}
);
width = 614;
}
);
leftKerningGroup = four.osf;
note = four.tosn;
rightKerningGroup = four.osf;
},
{
glyphname = five.osf;
lastChange = "2020-05-17 22:41:01 +0000";
layers = (
{
layerId = "5117E3E8-E17C-4812-BAF5-9E7064564A59";
paths = (
{
closed = 1;
nodes = (
"54 -8 LINE",
"66 -120 OFFCURVE",
"152 -214 OFFCURVE",
"309 -214 CURVE SMOOTH",
"466 -214 OFFCURVE",
"564 -120 OFFCURVE",
"564 24 CURVE SMOOTH",
"564 36 LINE SMOOTH",
"564 182 OFFCURVE",
"467 262 OFFCURVE",
"350 262 CURVE SMOOTH",
"277 262 OFFCURVE",
"236 234 OFFCURVE",
"219 210 CURVE",
"201 210 LINE",
"201 390 LINE",
"534 390 LINE",
"534 496 LINE",
"75 496 LINE",
"75 104 LINE",
"226 104 LINE",
"240 129 OFFCURVE",
"265 156 OFFCURVE",
"320 156 CURVE SMOOTH",
"387 156 OFFCURVE",
"438 108 OFFCURVE",
"438 33 CURVE SMOOTH",
"438 24 LINE SMOOTH",
"438 -57 OFFCURVE",
"389 -108 OFFCURVE",
"309 -108 CURVE SMOOTH",
"233 -108 OFFCURVE",
"188 -57 OFFCURVE",
"180 12 CURVE"
);
}
);
width = 606;
},
{
layerId = "CEFBB1E5-951F-4065-926E-8B9137F837F5";
paths = (
{
closed = 1;
nodes = (
"73 -1 LINE",
"81 -124 OFFCURVE",
"167 -214 OFFCURVE",
"313 -214 CURVE SMOOTH",
"459 -214 OFFCURVE",
"547 -124 OFFCURVE",
"547 19 CURVE SMOOTH",
"547 29 LINE SMOOTH",
"547 172 OFFCURVE",
"456 259 OFFCURVE",
"336 259 CURVE SMOOTH",
"234 259 OFFCURVE",
"186 207 OFFCURVE",
"166 164 CURVE",
"154 164 LINE",
"154 432 LINE",
"531 432 LINE",
"531 486 LINE",
"94 486 LINE",
"94 116 LINE",
"182 116 LINE",
"202 154 OFFCURVE",
"240 205 OFFCURVE",
"322 205 CURVE SMOOTH",
"420 205 OFFCURVE",
"487 144 OFFCURVE",
"487 28 CURVE SMOOTH",
"487 19 LINE SMOOTH",
"487 -97 OFFCURVE",
"420 -160 OFFCURVE",
"313 -160 CURVE SMOOTH",
"206 -160 OFFCURVE",
"142 -97 OFFCURVE",
"132 4 CURVE"
);
}
);
width = 606;
}
);
leftKerningGroup = five.osf;
note = five.tosn;
rightKerningGroup = five.osf;
},
{
glyphname = six.osf;
lastChange = "2020-05-17 22:41:01 +0000";
layers = (
{
layerId = "5117E3E8-E17C-4812-BAF5-9E7064564A59";
paths = (
{
closed = 1;
nodes = (
"239 352 OFFCURVE",
"184 303 OFFCURVE",
"184 227 CURVE SMOOTH",
"184 219 LINE SMOOTH",
"184 143 OFFCURVE",
"238 94 OFFCURVE",
"318 94 CURVE SMOOTH",
"398 94 OFFCURVE",
"452 143 OFFCURVE",
"452 219 CURVE SMOOTH",
"452 227 LINE SMOOTH",
"452 303 OFFCURVE",
"397 352 OFFCURVE",
"318 352 CURVE SMOOTH"
);
},
{
closed = 1;
nodes = (
"202 396 LINE",
"224 422 OFFCURVE",
"268 456 OFFCURVE",
"353 456 CURVE SMOOTH",
"472 456 OFFCURVE",
"578 370 OFFCURVE",
"578 231 CURVE SMOOTH",
"578 219 LINE SMOOTH",
"578 80 OFFCURVE",
"473 -14 OFFCURVE",
"316 -14 CURVE SMOOTH",
"159 -14 OFFCURVE",
"58 83 OFFCURVE",
"58 221 CURVE SMOOTH",
"58 460 LINE SMOOTH",
"58 630 OFFCURVE",
"166 714 OFFCURVE",
"320 714 CURVE SMOOTH",
"465 714 OFFCURVE",
"563 640 OFFCURVE",
"573 516 CURVE",
"445 505 LINE",
"440 563 OFFCURVE",
"401 608 OFFCURVE",
"320 608 CURVE SMOOTH",
"235 608 OFFCURVE",
"184 556 OFFCURVE",
"184 470 CURVE SMOOTH",
"184 396 LINE"
);
}
);
width = 626;
},
{
layerId = "CEFBB1E5-951F-4065-926E-8B9137F837F5";
paths = (
{
closed = 1;
nodes = (
"215 406 OFFCURVE",
"141 336 OFFCURVE",
"141 227 CURVE SMOOTH",
"141 219 LINE SMOOTH",
"141 110 OFFCURVE",
"215 40 OFFCURVE",
"320 40 CURVE SMOOTH",
"425 40 OFFCURVE",
"499 110 OFFCURVE",
"499 219 CURVE SMOOTH",
"499 227 LINE SMOOTH",
"499 336 OFFCURVE",
"425 406 OFFCURVE",
"320 406 CURVE SMOOTH"
);
},
{
closed = 1;
nodes = (
"154 369 LINE",
"178 412 OFFCURVE",
"234 460 OFFCURVE",
"335 460 CURVE SMOOTH",
"458 460 OFFCURVE",
"559 372 OFFCURVE",
"559 229 CURVE SMOOTH",
"559 217 LINE SMOOTH",
"559 74 OFFCURVE",
"454 -14 OFFCURVE",
"320 -14 CURVE SMOOTH",
"185 -14 OFFCURVE",
"82 73 OFFCURVE",
"82 222 CURVE SMOOTH",
"82 469 LINE SMOOTH",
"82 620 OFFCURVE",
"171 714 OFFCURVE",
"320 714 CURVE SMOOTH",
"461 714 OFFCURVE",
"541 632 OFFCURVE",
"551 523 CURVE",
"491 516 LINE",
"485 603 OFFCURVE",
"426 660 OFFCURVE",
"320 660 CURVE SMOOTH",
"208 660 OFFCURVE",
"141 591 OFFCURVE",
"141 476 CURVE SMOOTH",
"141 369 LINE"
);
}
);
width = 623;
}
);
leftKerningGroup = six.osf;
note = six.tosn;
rightKerningGroup = six.osf;
},
{
glyphname = seven.osf;
lastChange = "2020-05-17 22:41:01 +0000";
layers = (
{
layerId = "5117E3E8-E17C-4812-BAF5-9E7064564A59";
paths = (
{
closed = 1;
nodes = (
"38 390 LINE",
"405 390 LINE",
"405 374 LINE",
"169 -45 LINE SMOOTH",
"143 -92 OFFCURVE",
"136 -122 OFFCURVE",
"136 -174 CURVE SMOOTH",
"136 -200 LINE",
"260 -200 LINE",
"260 -180 LINE SMOOTH",
"260 -145 OFFCURVE",
"266 -126 OFFCURVE",
"283 -95 CURVE SMOOTH",
"537 356 LINE",
"537 496 LINE",
"38 496 LINE"
);
}
);
width = 577;
},
{
layerId = "CEFBB1E5-951F-4065-926E-8B9137F837F5";
paths = (
{
closed = 1;
nodes = (
"44 432 LINE",
"467 432 LINE",
"467 423 LINE",
"201 -70 LINE SMOOTH",
"178 -113 OFFCURVE",
"172 -136 OFFCURVE",
"172 -181 CURVE SMOOTH",
"172 -200 LINE",
"230 -200 LINE",
"230 -182 LINE SMOOTH",
"230 -147 OFFCURVE",
"235 -130 OFFCURVE",
"250 -102 CURVE SMOOTH",
"530 417 LINE",
"530 486 LINE",
"44 486 LINE"
);
}
);
width = 578;
}
);
leftKerningGroup = seven.osf;
note = seven.tosn;
rightKerningGroup = seven.osf;
},
{
glyphname = eight.osf;
lastChange = "2020-05-17 22:41:01 +0000";
layers = (
{
layerId = "5117E3E8-E17C-4812-BAF5-9E7064564A59";
paths = (
{
closed = 1;
nodes = (
"164 714 OFFCURVE",
"58 644 OFFCURVE",
"58 530 CURVE SMOOTH",
"58 521 LINE SMOOTH",
"58 432 OFFCURVE",
"111 388 OFFCURVE",
"157 371 CURVE",
"157 353 LINE",
"109 338 OFFCURVE",
"48 291 OFFCURVE",
"48 197 CURVE SMOOTH",
"48 187 LINE SMOOTH",
"48 56 OFFCURVE",
"162 -14 OFFCURVE",
"309 -14 CURVE SMOOTH",
"456 -14 OFFCURVE",
"570 56 OFFCURVE",
"570 187 CURVE SMOOTH",
"570 197 LINE SMOOTH",
"570 291 OFFCURVE",
"509 338 OFFCURVE",
"461 353 CURVE",
"461 371 LINE",
"507 388 OFFCURVE",
"560 432 OFFCURVE",
"560 521 CURVE SMOOTH",
"560 530 LINE SMOOTH",
"560 644 OFFCURVE",
"454 714 OFFCURVE",
"309 714 CURVE SMOOTH"
);
},
{
closed = 1;
nodes = (
"395 304 OFFCURVE",
"445 267 OFFCURVE",
"445 204 CURVE SMOOTH",
"445 197 LINE SMOOTH",
"445 134 OFFCURVE",
"393 92 OFFCURVE",
"309 92 CURVE SMOOTH",
"225 92 OFFCURVE",
"173 134 OFFCURVE",
"173 197 CURVE SMOOTH",
"173 204 LINE SMOOTH",
"173 267 OFFCURVE",
"223 304 OFFCURVE",
"309 304 CURVE SMOOTH"
);
},
{
closed = 1;
nodes = (
"385 608 OFFCURVE",
"435 573 OFFCURVE",
"435 512 CURVE SMOOTH",
"435 505 LINE SMOOTH",
"435 444 OFFCURVE",
"387 410 OFFCURVE",
"309 410 CURVE SMOOTH",
"231 410 OFFCURVE",
"183 444 OFFCURVE",
"183 505 CURVE SMOOTH",
"183 512 LINE SMOOTH",
"183 573 OFFCURVE",
"233 608 OFFCURVE",
"309 608 CURVE SMOOTH"
);
}
);
width = 618;
},
{
layerId = "CEFBB1E5-951F-4065-926E-8B9137F837F5";
paths = (
{
closed = 1;
nodes = (
"175 714 OFFCURVE",
"77 644 OFFCURVE",
"77 535 CURVE SMOOTH",
"77 527 LINE SMOOTH",
"77 433 OFFCURVE",
"146 385 OFFCURVE",
"196 370 CURVE",
"196 357 LINE",
"146 349 OFFCURVE",
"65 297 OFFCURVE",
"65 191 CURVE SMOOTH",
"65 181 LINE SMOOTH",
"65 56 OFFCURVE",
"167 -14 OFFCURVE",
"313 -14 CURVE SMOOTH",
"459 -14 OFFCURVE",
"561 56 OFFCURVE",
"561 181 CURVE SMOOTH",
"561 191 LINE SMOOTH",
"561 297 OFFCURVE",
"480 349 OFFCURVE",
"430 357 CURVE",
"430 370 LINE",
"480 385 OFFCURVE",
"549 433 OFFCURVE",
"549 527 CURVE SMOOTH",
"549 535 LINE SMOOTH",
"549 644 OFFCURVE",
"451 714 OFFCURVE",
"313 714 CURVE SMOOTH"
);
},
{
closed = 1;
nodes = (
"421 335 OFFCURVE",
"501 287 OFFCURVE",
"501 192 CURVE SMOOTH",
"501 184 LINE SMOOTH",
"501 90 OFFCURVE",
"421 40 OFFCURVE",
"313 40 CURVE SMOOTH",
"205 40 OFFCURVE",
"125 90 OFFCURVE",
"125 184 CURVE SMOOTH",
"125 192 LINE SMOOTH",
"125 287 OFFCURVE",
"205 335 OFFCURVE",
"313 335 CURVE SMOOTH"
);
},
{
closed = 1;
nodes = (
"413 660 OFFCURVE",
"489 612 OFFCURVE",
"489 528 CURVE SMOOTH",
"489 520 LINE SMOOTH",
"489 435 OFFCURVE",
"413 389 OFFCURVE",
"313 389 CURVE SMOOTH",
"213 389 OFFCURVE",
"137 435 OFFCURVE",
"137 520 CURVE SMOOTH",
"137 528 LINE SMOOTH",
"137 612 OFFCURVE",
"213 660 OFFCURVE",
"313 660 CURVE SMOOTH"
);
}
);
width = 627;
}
);
leftKerningGroup = eight.osf;
note = eight.tosn;
rightKerningGroup = eight.osf;
},
{
glyphname = nine.osf;
lastChange = "2020-05-17 22:41:01 +0000";
layers = (
{
layerId = "5117E3E8-E17C-4812-BAF5-9E7064564A59";
paths = (
{
closed = 1;
nodes = (
"387 144 OFFCURVE",
"442 193 OFFCURVE",
"442 269 CURVE SMOOTH",
"442 277 LINE SMOOTH",
"442 353 OFFCURVE",
"388 402 OFFCURVE",
"308 402 CURVE SMOOTH",
"228 402 OFFCURVE",
"174 353 OFFCURVE",
"174 277 CURVE SMOOTH",
"174 269 LINE SMOOTH",
"174 193 OFFCURVE",
"229 144 OFFCURVE",
"308 144 CURVE SMOOTH"
);
},
{
closed = 1;
nodes = (
"424 100 LINE",
"402 74 OFFCURVE",
"358 40 OFFCURVE",
"273 40 CURVE SMOOTH",
"154 40 OFFCURVE",
"48 126 OFFCURVE",
"48 265 CURVE SMOOTH",
"48 277 LINE SMOOTH",
"48 416 OFFCURVE",
"153 510 OFFCURVE",
"310 510 CURVE SMOOTH",
"467 510 OFFCURVE",
"568 413 OFFCURVE",
"568 275 CURVE SMOOTH",
"568 40 LINE SMOOTH",
"568 -130 OFFCURVE",
"460 -214 OFFCURVE",
"306 -214 CURVE SMOOTH",
"161 -214 OFFCURVE",
"65 -140 OFFCURVE",
"53 -20 CURVE",
"181 -9 LINE",
"187 -63 OFFCURVE",
"225 -108 OFFCURVE",
"306 -108 CURVE SMOOTH",
"391 -108 OFFCURVE",
"442 -56 OFFCURVE",
"442 30 CURVE SMOOTH",
"442 100 LINE"
);
}
);
width = 626;
},
{
layerId = "CEFBB1E5-951F-4065-926E-8B9137F837F5";
paths = (
{
closed = 1;
nodes = (
"409 80 OFFCURVE",
"483 150 OFFCURVE",
"483 259 CURVE SMOOTH",
"483 267 LINE SMOOTH",
"483 376 OFFCURVE",
"409 446 OFFCURVE",
"304 446 CURVE SMOOTH",
"199 446 OFFCURVE",
"125 376 OFFCURVE",
"125 267 CURVE SMOOTH",
"125 259 LINE SMOOTH",
"125 150 OFFCURVE",
"199 80 OFFCURVE",
"304 80 CURVE SMOOTH"
);
},
{
closed = 1;
nodes = (
"470 117 LINE",
"446 74 OFFCURVE",
"390 26 OFFCURVE",
"289 26 CURVE SMOOTH",
"166 26 OFFCURVE",
"65 114 OFFCURVE",
"65 257 CURVE SMOOTH",
"65 269 LINE SMOOTH",
"65 412 OFFCURVE",
"170 500 OFFCURVE",
"304 500 CURVE SMOOTH",
"439 500 OFFCURVE",
"542 413 OFFCURVE",
"542 264 CURVE SMOOTH",
"542 31 LINE SMOOTH",
"542 -120 OFFCURVE",
"453 -214 OFFCURVE",
"304 -214 CURVE SMOOTH",
"163 -214 OFFCURVE",
"83 -132 OFFCURVE",
"73 -23 CURVE",
"133 -16 LINE",
"139 -103 OFFCURVE",
"198 -160 OFFCURVE",
"304 -160 CURVE SMOOTH",
"416 -160 OFFCURVE",
"483 -91 OFFCURVE",
"483 24 CURVE SMOOTH",
"483 117 LINE"
);
}
);
width = 623;
}
);
leftKerningGroup = nine.osf;
note = nine.tosn;
rightKerningGroup = nine.osf;
},
{
glyphname = zero.osf.zero;
lastChange = "2020-05-17 19:22:59 +0000";
layers = (
{
layerId = "5117E3E8-E17C-4812-BAF5-9E7064564A59";
paths = (
{
closed = 1;
nodes = (
"46 90 OFFCURVE",
"158 -14 OFFCURVE",
"312 -14 CURVE SMOOTH",
"466 -14 OFFCURVE",
"578 90 OFFCURVE",
"578 248 CURVE SMOOTH",
"578 406 OFFCURVE",
"466 510 OFFCURVE",
"312 510 CURVE SMOOTH",
"158 510 OFFCURVE",
"46 406 OFFCURVE",
"46 248 CURVE SMOOTH"
);
},
{
closed = 1;
nodes = (
"168 335 OFFCURVE",
"226 402 OFFCURVE",
"312 402 CURVE SMOOTH",
"403 402 OFFCURVE",
"456 341 OFFCURVE",
"456 248 CURVE SMOOTH",
"456 161 OFFCURVE",
"398 94 OFFCURVE",
"312 94 CURVE SMOOTH",
"221 94 OFFCURVE",
"168 155 OFFCURVE",
"168 248 CURVE SMOOTH"
);
},
{
closed = 1;
nodes = (
"113 151 LINE",
"159 85 LINE",
"511 345 LINE",
"465 411 LINE"
);
}
);
width = 624;
},
{
layerId = "CEFBB1E5-951F-4065-926E-8B9137F837F5";
paths = (
{
closed = 1;
nodes = (
"64 91 OFFCURVE",
"166 -14 OFFCURVE",
"318 -14 CURVE SMOOTH",
"471 -14 OFFCURVE",
"572 91 OFFCURVE",
"572 243 CURVE SMOOTH",
"572 395 OFFCURVE",
"471 500 OFFCURVE",
"318 500 CURVE SMOOTH",
"166 500 OFFCURVE",
"64 395 OFFCURVE",
"64 243 CURVE SMOOTH"
);
},
{
closed = 1;
nodes = (
"124 363 OFFCURVE",
"200 446 OFFCURVE",
"318 446 CURVE SMOOTH",
"436 446 OFFCURVE",
"512 363 OFFCURVE",
"512 243 CURVE SMOOTH",
"512 123 OFFCURVE",
"436 40 OFFCURVE",
"318 40 CURVE SMOOTH",
"200 40 OFFCURVE",
"124 123 OFFCURVE",
"124 243 CURVE SMOOTH"
);
},
{
closed = 1;
nodes = (
"124 139 LINE",
"149 98 LINE",
"511 347 LINE",
"486 388 LINE"
);
}
);
width = 636;
}
);
leftKerningGroup = zero.osf;
leftMetricsKey = o;
note = zero.tosn;
rightKerningGroup = zero.osf;
rightMetricsKey = o;
},
{
glyphname = one.tf;
lastChange = "2020-05-17 19:24:10 +0000";
layers = (
{
layerId = "5117E3E8-E17C-4812-BAF5-9E7064564A59";
paths = (
{
closed = 1;
nodes = (
"68 120 LINE",
"68 0 LINE",
"572 0 LINE",
"572 120 LINE"
);
},
{
closed = 1;
nodes = (
"89 384 LINE",
"216 384 LINE",
"270 603 LINE",
"288 603 LINE",
"288 0 LINE",
"418 0 LINE",
"418 700 LINE",
"176 700 LINE"
);
}
);
width = 620;
},
{
layerId = "CEFBB1E5-951F-4065-926E-8B9137F837F5";
paths = (
{
closed = 1;
nodes = (
"62 57 LINE",
"62 0 LINE",
"584 0 LINE",
"584 57 LINE"
);
},
{
closed = 1;
nodes = (
"97 402 LINE",
"166 402 LINE",
"309 662 LINE",
"322 662 LINE",
"322 0 LINE",
"384 0 LINE",
"384 700 LINE",
"264 700 LINE"
);
}
);
width = 620;
}
);
note = one;
},
{
glyphname = four.tf;
lastChange = "2020-05-16 11:21:48 +0000";
layers = (
{
layerId = "5117E3E8-E17C-4812-BAF5-9E7064564A59";
paths = (
{
closed = 1;
nodes = (
"32 252 LINE",
"32 142 LINE",
"360 142 LINE",
"360 0 LINE",
"490 0 LINE",
"490 142 LINE",
"604 142 LINE",
"604 256 LINE",
"490 256 LINE",
"490 700 LINE",
"258 700 LINE"
);
},
{
closed = 1;
nodes = (
"360 614 LINE",
"360 256 LINE",
"162 256 LINE",
"342 614 LINE"
);
}
);
width = 620;
},
{
layerId = "CEFBB1E5-951F-4065-926E-8B9137F837F5";
paths = (
{
closed = 1;
nodes = (
"39 198 LINE",
"39 144 LINE",
"409 144 LINE",
"409 0 LINE",
"471 0 LINE",
"471 144 LINE",
"594 144 LINE",
"594 200 LINE",
"471 200 LINE",
"471 700 LINE",
"362 700 LINE"
);
},
{
closed = 1;
nodes = (
"409 644 LINE",
"409 200 LINE",
"108 200 LINE",
"396 644 LINE"
);
}
);
width = 620;
}
);
note = four;
},
{
glyphname = seven.tf;
lastChange = "2020-05-17 19:24:32 +0000";
layers = (
{
layerId = "5117E3E8-E17C-4812-BAF5-9E7064564A59";
paths = (
{
closed = 1;
nodes = (
"38 584 LINE",
"446 584 LINE",
"446 568 LINE",
"192 155 LINE SMOOTH",
"163 108 OFFCURVE",
"160 78 OFFCURVE",
"160 26 CURVE SMOOTH",
"160 0 LINE",
"291 0 LINE",
"291 20 LINE SMOOTH",
"291 55 OFFCURVE",
"295 74 OFFCURVE",
"314 105 CURVE SMOOTH",
"582 546 LINE",
"582 700 LINE",
"38 700 LINE"
);
}
);
width = 620;
},
{
layerId = "CEFBB1E5-951F-4065-926E-8B9137F837F5";
paths = (
{
closed = 1;
nodes = (
"44 644 LINE",
"507 644 LINE",
"507 635 LINE",
"213 135 LINE SMOOTH",
"188 93 OFFCURVE",
"184 69 OFFCURVE",
"184 24 CURVE SMOOTH",
"184 0 LINE",
"246 0 LINE",
"246 24 LINE SMOOTH",
"246 59 OFFCURVE",
"250 76 OFFCURVE",
"266 103 CURVE SMOOTH",
"572 627 LINE",
"572 700 LINE",
"44 700 LINE"
);
}
);
width = 620;
}
);
note = seven;
},
{
glyphname = one.tosf;
lastChange = "2020-05-17 19:19:52 +0000";
layers = (
{
layerId = "5117E3E8-E17C-4812-BAF5-9E7064564A59";
paths = (
{
closed = 1;
nodes = (
"46 106 LINE",
"46 0 LINE",
"576 0 LINE",
"576 106 LINE"
);
},
{
closed = 1;
nodes = (
"100 274 LINE",
"228 274 LINE",
"279 408 LINE",
"297 408 LINE",
"297 0 LINE",
"423 0 LINE",
"423 496 LINE",
"196 496 LINE"
);
}
);
width = 620;
},
{
layerId = "CEFBB1E5-951F-4065-926E-8B9137F837F5";
paths = (
{
closed = 1;
nodes = (
"58 54 LINE",
"58 0 LINE",
"586 0 LINE",
"586 54 LINE"
);
},
{
closed = 1;
nodes = (
"135 272 LINE",
"205 272 LINE",
"317 440 LINE",
"328 440 LINE",
"328 0 LINE",
"388 0 LINE",
"388 486 LINE",
"279 486 LINE"
);
}
);
width = 622;
}
);
note = one.tosn;
},
{
glyphname = seven.tosf;
lastChange = "2020-05-17 19:18:53 +0000";
layers = (
{
layerId = "5117E3E8-E17C-4812-BAF5-9E7064564A59";
paths = (
{
closed = 1;
nodes = (
"46 390 LINE",
"433 390 LINE",
"433 374 LINE",
"188 -45 LINE SMOOTH",
"161 -91 OFFCURVE",
"155 -122 OFFCURVE",
"155 -174 CURVE SMOOTH",
"155 -200 LINE",
"279 -200 LINE",
"279 -180 LINE SMOOTH",
"279 -145 OFFCURVE",
"284 -126 OFFCURVE",
"302 -95 CURVE SMOOTH",
"566 356 LINE",
"566 496 LINE",
"46 496 LINE"
);
}
);
width = 620;
},
{
layerId = "CEFBB1E5-951F-4065-926E-8B9137F837F5";
paths = (
{
closed = 1;
nodes = (
"54 432 LINE",
"499 432 LINE",
"499 423 LINE",
"222 -70 LINE SMOOTH",
"198 -112 OFFCURVE",
"193 -136 OFFCURVE",
"193 -181 CURVE SMOOTH",
"193 -200 LINE",
"251 -200 LINE",
"251 -182 LINE SMOOTH",
"251 -147 OFFCURVE",
"255 -130 OFFCURVE",
"271 -102 CURVE SMOOTH",
"562 417 LINE",
"562 486 LINE",
"54 486 LINE"
);
}
);
width = 620;
}
);
note = seven.tosn;
},
{
glyphname = zero.dnom;
lastChange = "2020-05-18 13:06:09 +0000";
layers = (
{
layerId = "5117E3E8-E17C-4812-BAF5-9E7064564A59";
paths = (
{
closed = 1;
nodes = (
"36 141 LINE SMOOTH",
"36 47 OFFCURVE",
"93 -10 OFFCURVE",
"194 -10 CURVE SMOOTH",
"295 -10 OFFCURVE",
"352 47 OFFCURVE",
"352 141 CURVE SMOOTH",
"352 208 LINE SMOOTH",
"352 302 OFFCURVE",
"295 360 OFFCURVE",
"194 360 CURVE SMOOTH",
"93 360 OFFCURVE",
"36 302 OFFCURVE",
"36 208 CURVE SMOOTH"
);
},
{
closed = 1;
nodes = (
"130 256 OFFCURVE",
"152 284 OFFCURVE",
"194 284 CURVE SMOOTH",
"236 284 OFFCURVE",
"258 256 OFFCURVE",
"258 215 CURVE SMOOTH",
"258 135 LINE SMOOTH",
"258 94 OFFCURVE",
"236 66 OFFCURVE",
"194 66 CURVE SMOOTH",
"152 66 OFFCURVE",
"130 94 OFFCURVE",
"130 135 CURVE SMOOTH",
"130 215 LINE SMOOTH"
);
}
);
width = 388;
},
{
layerId = "CEFBB1E5-951F-4065-926E-8B9137F837F5";
paths = (
{
closed = 1;
nodes = (
"44 148 LINE SMOOTH",
"44 51 OFFCURVE",
"104 -10 OFFCURVE",
"202 -10 CURVE SMOOTH",
"300 -10 OFFCURVE",
"360 51 OFFCURVE",
"360 148 CURVE SMOOTH",
"360 201 LINE SMOOTH",
"360 299 OFFCURVE",
"300 360 OFFCURVE",
"202 360 CURVE SMOOTH",
"104 360 OFFCURVE",
"44 299 OFFCURVE",
"44 201 CURVE SMOOTH"
);
},
{
closed = 1;
nodes = (
"94 272 OFFCURVE",
"135 316 OFFCURVE",
"202 316 CURVE SMOOTH",
"269 316 OFFCURVE",
"310 272 OFFCURVE",
"310 206 CURVE SMOOTH",
"310 144 LINE SMOOTH",
"310 78 OFFCURVE",
"269 34 OFFCURVE",
"202 34 CURVE SMOOTH",
"135 34 OFFCURVE",
"94 78 OFFCURVE",
"94 144 CURVE SMOOTH",
"94 206 LINE SMOOTH"
);
}
);
width = 404;
}
);
leftKerningGroup = zero.dnom;
rightKerningGroup = zero.dnom;
},
{
glyphname = one.dnom;
lastChange = "2020-05-18 13:05:58 +0000";
layers = (
{
layerId = "5117E3E8-E17C-4812-BAF5-9E7064564A59";
paths = (
{
closed = 1;
nodes = (
"18 194 LINE",
"103 194 LINE",
"118 272 LINE",
"132 272 LINE",
"132 0 LINE",
"226 0 LINE",
"226 350 LINE",
"56 350 LINE"
);
}
);
width = 270;
},
{
layerId = "CEFBB1E5-951F-4065-926E-8B9137F837F5";
paths = (
{
closed = 1;
nodes = (
"20 194 LINE",
"75 194 LINE",
"132 288 LINE",
"144 288 LINE",
"144 0 LINE",
"194 0 LINE",
"194 350 LINE",
"117 350 LINE"
);
}
);
width = 246;
}
);
leftKerningGroup = one.dnom;
rightKerningGroup = one.dnom;
},
{
glyphname = two.dnom;
lastChange = "2020-05-18 13:05:58 +0000";
layers = (
{
layerId = "5117E3E8-E17C-4812-BAF5-9E7064564A59";
paths = (
{
closed = 1;
nodes = (
"128 230 LINE",
"130 271 OFFCURVE",
"158 286 OFFCURVE",
"190 286 CURVE SMOOTH",
"222 286 OFFCURVE",
"246 271 OFFCURVE",
"246 244 CURVE SMOOTH",
"246 216 OFFCURVE",
"220 200 OFFCURVE",
"161 187 CURVE SMOOTH",
"71 167 OFFCURVE",
"30 124 OFFCURVE",
"30 44 CURVE SMOOTH",
"30 0 LINE",
"338 0 LINE",
"338 76 LINE",
"130 76 LINE",
"130 98 OFFCURVE",
"148 110 OFFCURVE",
"201 121 CURVE SMOOTH",
"286 139 OFFCURVE",
"340 171 OFFCURVE",
"340 243 CURVE SMOOTH",
"340 315 OFFCURVE",
"276 362 OFFCURVE",
"190 362 CURVE SMOOTH",
"103 362 OFFCURVE",
"41 318 OFFCURVE",
"34 237 CURVE"
);
}
);
width = 372;
},
{
layerId = "CEFBB1E5-951F-4065-926E-8B9137F837F5";
paths = (
{
closed = 1;
nodes = (
"80 232 LINE",
"85 292 OFFCURVE",
"127 320 OFFCURVE",
"188 320 CURVE SMOOTH",
"247 320 OFFCURVE",
"285 289 OFFCURVE",
"285 247 CURVE SMOOTH",
"285 201 OFFCURVE",
"248 179 OFFCURVE",
"169 161 CURVE SMOOTH",
"74 139 OFFCURVE",
"28 94 OFFCURVE",
"28 25 CURVE SMOOTH",
"28 0 LINE",
"333 0 LINE",
"333 44 LINE",
"81 44 LINE",
"87 87 OFFCURVE",
"124 105 OFFCURVE",
"204 124 CURVE SMOOTH",
"287 143 OFFCURVE",
"335 174 OFFCURVE",
"335 247 CURVE SMOOTH",
"335 319 OFFCURVE",
"276 364 OFFCURVE",
"188 364 CURVE SMOOTH",
"100 364 OFFCURVE",
"38 322 OFFCURVE",
"30 234 CURVE"
);
}
);
width = 367;
}
);
leftKerningGroup = two.dnom;
rightKerningGroup = two.dnom;
},
{
glyphname = three.dnom;
lastChange = "2020-05-18 13:05:58 +0000";
layers = (
{
layerId = "5117E3E8-E17C-4812-BAF5-9E7064564A59";
paths = (
{
closed = 1;
nodes = (
"26 110 LINE",
"32 33 OFFCURVE",
"99 -12 OFFCURVE",
"187 -12 CURVE SMOOTH",
"275 -12 OFFCURVE",
"343 39 OFFCURVE",
"343 111 CURVE SMOOTH",
"343 175 OFFCURVE",
"303 205 OFFCURVE",
"235 208 CURVE",
"235 222 LINE",
"341 272 LINE",
"341 350 LINE",
"33 350 LINE",
"33 276 LINE",
"204 276 LINE",
"204 262 LINE",
"119 226 LINE",
"119 160 LINE",
"185 160 LINE SMOOTH",
"226 160 OFFCURVE",
"249 144 OFFCURVE",
"249 115 CURVE SMOOTH",
"249 87 OFFCURVE",
"225 64 OFFCURVE",
"187 64 CURVE SMOOTH",
"152 64 OFFCURVE",
"123 86 OFFCURVE",
"119 120 CURVE"
);
}
);
width = 371;
},
{
layerId = "CEFBB1E5-951F-4065-926E-8B9137F837F5";
paths = (
{
closed = 1;
nodes = (
"30 113 LINE",
"35 30 OFFCURVE",
"104 -14 OFFCURVE",
"190 -14 CURVE SMOOTH",
"278 -14 OFFCURVE",
"344 33 OFFCURVE",
"344 105 CURVE SMOOTH",
"344 179 OFFCURVE",
"292 211 OFFCURVE",
"206 213 CURVE",
"206 223 LINE",
"343 293 LINE",
"343 350 LINE",
"38 350 LINE",
"38 306 LINE",
"265 306 LINE",
"265 296 LINE",
"129 226 LINE",
"129 176 LINE",
"188 176 LINE SMOOTH",
"256 176 OFFCURVE",
"294 155 OFFCURVE",
"294 105 CURVE SMOOTH",
"294 60 OFFCURVE",
"251 30 OFFCURVE",
"190 30 CURVE SMOOTH",
"131 30 OFFCURVE",
"84 59 OFFCURVE",
"80 117 CURVE"
);
}
);
width = 380;
}
);
leftKerningGroup = three.dnom;
rightKerningGroup = three.dnom;
},
{
glyphname = four.dnom;
lastChange = "2020-05-18 13:05:58 +0000";
layers = (
{
layerId = "5117E3E8-E17C-4812-BAF5-9E7064564A59";
paths = (
{
closed = 1;
nodes = (
"16 141 LINE",
"16 71 LINE",
"218 71 LINE",
"218 0 LINE",
"312 0 LINE",
"312 71 LINE",
"372 71 LINE",
"372 147 LINE",
"312 147 LINE",
"312 350 LINE",
"149 350 LINE"
);
},
{
closed = 1;
nodes = (
"218 286 LINE",
"218 147 LINE",
"117 147 LINE",
"204 286 LINE"
);
}
);
width = 390;
},
{
layerId = "CEFBB1E5-951F-4065-926E-8B9137F837F5";
paths = (
{
closed = 1;
nodes = (
"22 126 LINE",
"22 88 LINE",
"243 88 LINE",
"243 0 LINE",
"293 0 LINE",
"293 88 LINE",
"376 88 LINE",
"376 132 LINE",
"293 132 LINE",
"293 350 LINE",
"208 350 LINE"
);
},
{
closed = 1;
nodes = (
"243 307 LINE",
"243 132 LINE",
"86 132 LINE",
"231 307 LINE"
);
}
);
width = 394;
}
);
leftKerningGroup = four.dnom;
rightKerningGroup = four.dnom;
},
{
glyphname = five.dnom;
lastChange = "2020-05-18 13:05:58 +0000";
layers = (
{
layerId = "5117E3E8-E17C-4812-BAF5-9E7064564A59";
paths = (
{
closed = 1;
nodes = (
"28 103 LINE",
"36 38 OFFCURVE",
"92 -12 OFFCURVE",
"186 -12 CURVE SMOOTH",
"284 -12 OFFCURVE",
"340 42 OFFCURVE",
"340 117 CURVE SMOOTH",
"340 192 OFFCURVE",
"282 232 OFFCURVE",
"224 232 CURVE SMOOTH",
"180 232 OFFCURVE",
"159 218 OFFCURVE",
"146 206 CURVE",
"132 206 LINE",
"132 274 LINE",
"330 274 LINE",
"330 350 LINE",
"38 350 LINE",
"38 141 LINE",
"143 141 LINE",
"151 150 OFFCURVE",
"165 163 OFFCURVE",
"193 163 CURVE SMOOTH",
"222 163 OFFCURVE",
"246 147 OFFCURVE",
"246 116 CURVE SMOOTH",
"246 85 OFFCURVE",
"222 64 OFFCURVE",
"186 64 CURVE SMOOTH",
"151 64 OFFCURVE",
"127 84 OFFCURVE",
"122 110 CURVE"
);
}
);
width = 368;
},
{
layerId = "CEFBB1E5-951F-4065-926E-8B9137F837F5";
paths = (
{
closed = 1;
nodes = (
"36 101 LINE",
"45 35 OFFCURVE",
"101 -14 OFFCURVE",
"194 -14 CURVE SMOOTH",
"290 -14 OFFCURVE",
"346 39 OFFCURVE",
"346 116 CURVE SMOOTH",
"346 194 OFFCURVE",
"290 238 OFFCURVE",
"212 238 CURVE SMOOTH",
"150 238 OFFCURVE",
"122 213 OFFCURVE",
"108 200 CURVE",
"96 200 LINE",
"96 306 LINE",
"336 306 LINE",
"336 350 LINE",
"46 350 LINE",
"46 153 LINE",
"110 153 LINE",
"123 167 OFFCURVE",
"149 194 OFFCURVE",
"201 194 CURVE SMOOTH",
"255 194 OFFCURVE",
"296 165 OFFCURVE",
"296 115 CURVE SMOOTH",
"296 66 OFFCURVE",
"258 30 OFFCURVE",
"194 30 CURVE SMOOTH",
"132 30 OFFCURVE",
"93 64 OFFCURVE",
"87 107 CURVE"
);
}
);
width = 376;
}
);
leftKerningGroup = five.dnom;
rightKerningGroup = five.dnom;
},
{
glyphname = six.dnom;
lastChange = "2020-05-18 13:05:58 +0000";
layers = (
{
layerId = "5117E3E8-E17C-4812-BAF5-9E7064564A59";
paths = (
{
closed = 1;
nodes = (
"343 258 LINE",
"334 315 OFFCURVE",
"279 362 OFFCURVE",
"193 362 CURVE SMOOTH",
"103 362 OFFCURVE",
"36 310 OFFCURVE",
"36 226 CURVE SMOOTH",
"36 118 LINE SMOOTH",
"36 38 OFFCURVE",
"101 -12 OFFCURVE",
"193 -12 CURVE SMOOTH",
"285 -12 OFFCURVE",
"350 38 OFFCURVE",
"350 114 CURVE SMOOTH",
"350 190 OFFCURVE",
"289 227 OFFCURVE",
"219 227 CURVE SMOOTH",
"178 227 OFFCURVE",
"154 212 OFFCURVE",
"144 202 CURVE",
"130 202 LINE",
"130 228 LINE SMOOTH",
"130 262 OFFCURVE",
"155 286 OFFCURVE",
"193 286 CURVE SMOOTH",
"230 286 OFFCURVE",
"244 268 OFFCURVE",
"248 251 CURVE"
);
},
{
closed = 1;
nodes = (
"130 140 OFFCURVE",
"153 160 OFFCURVE",
"193 160 CURVE SMOOTH",
"233 160 OFFCURVE",
"256 140 OFFCURVE",
"256 112 CURVE SMOOTH",
"256 84 OFFCURVE",
"233 64 OFFCURVE",
"193 64 CURVE SMOOTH",
"153 64 OFFCURVE",
"130 84 OFFCURVE",
"130 112 CURVE SMOOTH"
);
}
);
width = 378;
},
{
layerId = "CEFBB1E5-951F-4065-926E-8B9137F837F5";
paths = (
{
closed = 1;
nodes = (
"351 262 LINE",
"344 321 OFFCURVE",
"289 364 OFFCURVE",
"200 364 CURVE SMOOTH",
"109 364 OFFCURVE",
"44 309 OFFCURVE",
"44 230 CURVE SMOOTH",
"44 112 LINE SMOOTH",
"44 34 OFFCURVE",
"109 -14 OFFCURVE",
"201 -14 CURVE SMOOTH",
"293 -14 OFFCURVE",
"358 34 OFFCURVE",
"358 113 CURVE SMOOTH",
"358 192 OFFCURVE",
"294 236 OFFCURVE",
"215 236 CURVE SMOOTH",
"146 236 OFFCURVE",
"117 209 OFFCURVE",
"106 199 CURVE",
"94 199 LINE",
"94 230 LINE SMOOTH",
"94 281 OFFCURVE",
"134 320 OFFCURVE",
"200 320 CURVE SMOOTH",
"265 320 OFFCURVE",
"296 290 OFFCURVE",
"302 257 CURVE"
);
},
{
closed = 1;
nodes = (
"94 161 OFFCURVE",
"135 192 OFFCURVE",
"201 192 CURVE SMOOTH",
"267 192 OFFCURVE",
"308 161 OFFCURVE",
"308 111 CURVE SMOOTH",
"308 61 OFFCURVE",
"267 30 OFFCURVE",
"201 30 CURVE SMOOTH",
"135 30 OFFCURVE",
"94 61 OFFCURVE",
"94 111 CURVE SMOOTH"
);
}
);
width = 394;
}
);
leftKerningGroup = six.dnom;
rightKerningGroup = six.dnom;
},
{
glyphname = seven.dnom;
lastChange = "2020-05-18 13:05:58 +0000";
layers = (
{
layerId = "5117E3E8-E17C-4812-BAF5-9E7064564A59";
paths = (
{
closed = 1;
nodes = (
"16 274 LINE",
"229 274 LINE",
"229 260 LINE",
"116 109 LINE SMOOTH",
"87 70 OFFCURVE",
"81 44 OFFCURVE",
"81 0 CURVE",
"173 0 LINE",
"173 29 OFFCURVE",
"176 41 OFFCURVE",
"194 66 CURVE SMOOTH",
"326 244 LINE",
"326 350 LINE",
"16 350 LINE"
);
}
);
width = 342;
},
{
layerId = "CEFBB1E5-951F-4065-926E-8B9137F837F5";
paths = (
{
closed = 1;
nodes = (
"20 306 LINE",
"265 306 LINE",
"265 296 LINE",
"131 102 LINE SMOOTH",
"107 67 OFFCURVE",
"101 42 OFFCURVE",
"101 0 CURVE",
"151 0 LINE",
"151 36 OFFCURVE",
"155 51 OFFCURVE",
"171 75 CURVE SMOOTH",
"319 290 LINE",
"319 350 LINE",
"20 350 LINE"
);
}
);
width = 340;
}
);
leftKerningGroup = seven.dnom;
rightKerningGroup = seven.dnom;
},
{
glyphname = eight.dnom;
lastChange = "2020-05-18 13:05:58 +0000";
layers = (
{
layerId = "5117E3E8-E17C-4812-BAF5-9E7064564A59";
paths = (
{
closed = 1;
nodes = (
"38 216 OFFCURVE",
"72 195 OFFCURVE",
"91 189 CURVE",
"91 175 LINE",
"69 169 OFFCURVE",
"32 148 OFFCURVE",
"32 93 CURVE SMOOTH",
"32 31 OFFCURVE",
"88 -12 OFFCURVE",
"190 -12 CURVE SMOOTH",
"292 -12 OFFCURVE",
"348 31 OFFCURVE",
"348 93 CURVE SMOOTH",
"348 148 OFFCURVE",
"311 169 OFFCURVE",
"289 175 CURVE",
"289 189 LINE",
"308 195 OFFCURVE",
"342 216 OFFCURVE",
"342 264 CURVE SMOOTH",
"342 323 OFFCURVE",
"283 362 OFFCURVE",
"190 362 CURVE SMOOTH",
"97 362 OFFCURVE",
"38 323 OFFCURVE",
"38 264 CURVE SMOOTH"
);
},
{
closed = 1;
nodes = (
"124 127 OFFCURVE",
"149 142 OFFCURVE",
"190 142 CURVE SMOOTH",
"231 142 OFFCURVE",
"256 127 OFFCURVE",
"256 103 CURVE SMOOTH",
"256 79 OFFCURVE",
"231 64 OFFCURVE",
"190 64 CURVE SMOOTH",
"149 64 OFFCURVE",
"124 79 OFFCURVE",
"124 103 CURVE SMOOTH"
);
},
{
closed = 1;
nodes = (
"130 273 OFFCURVE",
"152 286 OFFCURVE",
"190 286 CURVE SMOOTH",
"228 286 OFFCURVE",
"250 273 OFFCURVE",
"250 253 CURVE SMOOTH",
"250 233 OFFCURVE",
"228 218 OFFCURVE",
"190 218 CURVE SMOOTH",
"152 218 OFFCURVE",
"130 233 OFFCURVE",
"130 253 CURVE SMOOTH"
);
}
);
width = 380;
},
{
layerId = "CEFBB1E5-951F-4065-926E-8B9137F837F5";
paths = (
{
closed = 1;
nodes = (
"46 215 OFFCURVE",
"84 192 OFFCURVE",
"112 185 CURVE",
"112 173 LINE",
"81 166 OFFCURVE",
"40 145 OFFCURVE",
"40 90 CURVE SMOOTH",
"40 29 OFFCURVE",
"98 -14 OFFCURVE",
"198 -14 CURVE SMOOTH",
"298 -14 OFFCURVE",
"356 29 OFFCURVE",
"356 90 CURVE SMOOTH",
"356 145 OFFCURVE",
"315 166 OFFCURVE",
"284 173 CURVE",
"284 185 LINE",
"312 192 OFFCURVE",
"350 215 OFFCURVE",
"350 265 CURVE SMOOTH",
"350 326 OFFCURVE",
"289 364 OFFCURVE",
"198 364 CURVE SMOOTH",
"107 364 OFFCURVE",
"46 326 OFFCURVE",
"46 265 CURVE SMOOTH"
);
},
{
closed = 1;
nodes = (
"90 135 OFFCURVE",
"131 156 OFFCURVE",
"198 156 CURVE SMOOTH",
"265 156 OFFCURVE",
"306 135 OFFCURVE",
"306 93 CURVE SMOOTH",
"306 51 OFFCURVE",
"265 30 OFFCURVE",
"198 30 CURVE SMOOTH",
"131 30 OFFCURVE",
"90 51 OFFCURVE",
"90 93 CURVE SMOOTH"
);
},
{
closed = 1;
nodes = (
"96 298 OFFCURVE",
"135 320 OFFCURVE",
"198 320 CURVE SMOOTH",
"261 320 OFFCURVE",
"300 298 OFFCURVE",
"300 260 CURVE SMOOTH",
"300 222 OFFCURVE",
"261 200 OFFCURVE",
"198 200 CURVE SMOOTH",
"135 200 OFFCURVE",
"96 222 OFFCURVE",
"96 260 CURVE SMOOTH"
);
}
);
width = 396;
}
);
leftKerningGroup = eight.dnom;
rightKerningGroup = eight.dnom;
},
{
glyphname = nine.dnom;
lastChange = "2020-05-18 13:05:58 +0000";
layers = (
{
layerId = "5117E3E8-E17C-4812-BAF5-9E7064564A59";
paths = (
{
closed = 1;
nodes = (
"35 92 LINE",
"44 35 OFFCURVE",
"99 -12 OFFCURVE",
"185 -12 CURVE SMOOTH",
"275 -12 OFFCURVE",
"342 40 OFFCURVE",
"342 124 CURVE SMOOTH",
"342 232 LINE SMOOTH",
"342 312 OFFCURVE",
"277 362 OFFCURVE",
"185 362 CURVE SMOOTH",
"93 362 OFFCURVE",
"28 312 OFFCURVE",
"28 236 CURVE SMOOTH",
"28 160 OFFCURVE",
"89 123 OFFCURVE",
"159 123 CURVE SMOOTH",
"200 123 OFFCURVE",
"224 138 OFFCURVE",
"234 148 CURVE",
"248 148 LINE",
"248 122 LINE SMOOTH",
"248 88 OFFCURVE",
"223 64 OFFCURVE",
"185 64 CURVE SMOOTH",
"148 64 OFFCURVE",
"134 82 OFFCURVE",
"130 99 CURVE"
);
},
{
closed = 1;
nodes = (
"248 210 OFFCURVE",
"225 190 OFFCURVE",
"185 190 CURVE SMOOTH",
"145 190 OFFCURVE",
"122 210 OFFCURVE",
"122 238 CURVE SMOOTH",
"122 266 OFFCURVE",
"145 286 OFFCURVE",
"185 286 CURVE SMOOTH",
"225 286 OFFCURVE",
"248 266 OFFCURVE",
"248 238 CURVE SMOOTH"
);
}
);
width = 378;
},
{
layerId = "CEFBB1E5-951F-4065-926E-8B9137F837F5";
paths = (
{
closed = 1;
nodes = (
"43 88 LINE",
"50 29 OFFCURVE",
"105 -14 OFFCURVE",
"194 -14 CURVE SMOOTH",
"285 -14 OFFCURVE",
"350 41 OFFCURVE",
"350 120 CURVE SMOOTH",
"350 238 LINE SMOOTH",
"350 316 OFFCURVE",
"285 364 OFFCURVE",
"193 364 CURVE SMOOTH",
"101 364 OFFCURVE",
"36 316 OFFCURVE",
"36 237 CURVE SMOOTH",
"36 158 OFFCURVE",
"100 114 OFFCURVE",
"179 114 CURVE SMOOTH",
"248 114 OFFCURVE",
"277 141 OFFCURVE",
"288 151 CURVE",
"300 151 LINE",
"300 120 LINE SMOOTH",
"300 69 OFFCURVE",
"260 30 OFFCURVE",
"194 30 CURVE SMOOTH",
"129 30 OFFCURVE",
"98 60 OFFCURVE",
"92 93 CURVE"
);
},
{
closed = 1;
nodes = (
"300 189 OFFCURVE",
"259 158 OFFCURVE",
"193 158 CURVE SMOOTH",
"127 158 OFFCURVE",
"86 189 OFFCURVE",
"86 239 CURVE SMOOTH",
"86 289 OFFCURVE",
"127 320 OFFCURVE",
"193 320 CURVE SMOOTH",
"259 320 OFFCURVE",
"300 289 OFFCURVE",
"300 239 CURVE SMOOTH"
);
}
);
width = 394;
}
);
leftKerningGroup = nine.dnom;
rightKerningGroup = nine.dnom;
},
{
glyphname = fraction;
lastChange = "2020-05-16 11:21:48 +0000";
layers = (
{
layerId = "5117E3E8-E17C-4812-BAF5-9E7064564A59";
paths = (
{
closed = 1;
nodes = (
"83 -10 LINE",
"622 655 LINE",
"555 710 LINE",
"16 45 LINE"
);
}
);
width = 638;
},
{
layerId = "CEFBB1E5-951F-4065-926E-8B9137F837F5";
paths = (
{
closed = 1;
nodes = (
"66 -12 LINE",
"629 681 LINE",
"590 712 LINE",
"27 19 LINE"
);
}
);
width = 656;
}
);
unicode = 2044;
},
{
glyphname = zero.dnom.zero;
lastChange = "2020-05-18 13:06:24 +0000";
layers = (
{
layerId = "5117E3E8-E17C-4812-BAF5-9E7064564A59";
paths = (
{
closed = 1;
nodes = (
"72 131 LINE",
"104 87 LINE",
"316 223 LINE",
"284 267 LINE"
);
},
{
closed = 1;
nodes = (
"36 141 LINE SMOOTH",
"36 47 OFFCURVE",
"93 -10 OFFCURVE",
"194 -10 CURVE SMOOTH",
"295 -10 OFFCURVE",
"352 47 OFFCURVE",
"352 141 CURVE SMOOTH",
"352 208 LINE SMOOTH",
"352 302 OFFCURVE",
"292 360 OFFCURVE",
"194 360 CURVE SMOOTH",
"93 360 OFFCURVE",
"36 302 OFFCURVE",
"36 208 CURVE SMOOTH"
);
},
{
closed = 1;
nodes = (
"130 256 OFFCURVE",
"152 284 OFFCURVE",
"194 284 CURVE SMOOTH",
"236 284 OFFCURVE",
"258 256 OFFCURVE",
"258 215 CURVE SMOOTH",
"258 135 LINE SMOOTH",
"258 94 OFFCURVE",
"236 66 OFFCURVE",
"194 66 CURVE SMOOTH",
"152 66 OFFCURVE",
"130 94 OFFCURVE",
"130 135 CURVE SMOOTH",
"130 215 LINE SMOOTH"
);
}
);
width = 388;
},
{
layerId = "CEFBB1E5-951F-4065-926E-8B9137F837F5";
paths = (
{
closed = 1;
nodes = (
"68 114 LINE",
"93 80 LINE",
"336 241 LINE",
"311 274 LINE"
);
},
{
closed = 1;
nodes = (
"44 148 LINE SMOOTH",
"44 51 OFFCURVE",
"104 -10 OFFCURVE",
"202 -10 CURVE SMOOTH",
"300 -10 OFFCURVE",
"360 51 OFFCURVE",
"360 148 CURVE SMOOTH",
"360 201 LINE SMOOTH",
"360 299 OFFCURVE",
"300 360 OFFCURVE",
"202 360 CURVE SMOOTH",
"104 360 OFFCURVE",
"44 299 OFFCURVE",
"44 201 CURVE SMOOTH"
);
},
{
closed = 1;
nodes = (
"94 272 OFFCURVE",
"135 316 OFFCURVE",
"202 316 CURVE SMOOTH",
"269 316 OFFCURVE",
"310 272 OFFCURVE",
"310 206 CURVE SMOOTH",
"310 144 LINE SMOOTH",
"310 78 OFFCURVE",
"269 34 OFFCURVE",
"202 34 CURVE SMOOTH",
"135 34 OFFCURVE",
"94 78 OFFCURVE",
"94 144 CURVE SMOOTH",
"94 206 LINE SMOOTH"
);
}
);
width = 404;
}
);
leftKerningGroup = zero.dnom;
leftMetricsKey = zero.dnom;
rightKerningGroup = zero.dnom;
rightMetricsKey = zero.dnom;
},
{
glyphname = period;
lastChange = "2020-06-02 09:05:00 +0000";
layers = (
{
layerId = "5117E3E8-E17C-4812-BAF5-9E7064564A59";
paths = (
{
closed = 1;
nodes = (
"54 25 OFFCURVE",
"95 -14 OFFCURVE",
"149 -14 CURVE SMOOTH",
"203 -14 OFFCURVE",
"244 25 OFFCURVE",
"244 81 CURVE SMOOTH",
"244 137 OFFCURVE",
"203 176 OFFCURVE",
"149 176 CURVE SMOOTH",
"95 176 OFFCURVE",
"54 137 OFFCURVE",
"54 81 CURVE SMOOTH"
);
}
);
width = 298;
},
{
layerId = "CEFBB1E5-951F-4065-926E-8B9137F837F5";
paths = (
{
closed = 1;
nodes = (
"60 10 OFFCURVE",
"84 -14 OFFCURVE",
"117 -14 CURVE SMOOTH",
"150 -14 OFFCURVE",
"174 10 OFFCURVE",
"174 43 CURVE SMOOTH",
"174 76 OFFCURVE",
"150 100 OFFCURVE",
"117 100 CURVE SMOOTH",
"84 100 OFFCURVE",
"60 76 OFFCURVE",
"60 43 CURVE SMOOTH"
);
}
);
width = 234;
}
);
leftKerningGroup = period;
note = period;
rightKerningGroup = period;
unicode = 002E;
},
{
glyphname = comma;
lastChange = "2020-05-18 14:11:42 +0000";
layers = (
{
layerId = "5117E3E8-E17C-4812-BAF5-9E7064564A59";
paths = (
{
closed = 1;
nodes = (
"54 35 OFFCURVE",
"93 -1 OFFCURVE",
"147 -1 CURVE SMOOTH",
"164 -1 LINE",
"164 -33 LINE SMOOTH",
"164 -65 OFFCURVE",
"150 -79 OFFCURVE",
"118 -79 CURVE SMOOTH",
"79 -79 LINE",
"79 -147 LINE",
"128 -147 LINE SMOOTH",
"202 -147 OFFCURVE",
"240 -109 OFFCURVE",
"240 -35 CURVE SMOOTH",
"240 80 LINE SMOOTH",
"240 137 OFFCURVE",
"201 174 OFFCURVE",
"147 174 CURVE SMOOTH",
"93 174 OFFCURVE",
"54 137 OFFCURVE",
"54 84 CURVE SMOOTH"
);
}
);
width = 294;
},
{
layerId = "CEFBB1E5-951F-4065-926E-8B9137F837F5";
paths = (
{
closed = 1;
nodes = (
"60 13 OFFCURVE",
"85 -10 OFFCURVE",
"117 -10 CURVE SMOOTH",
"130 -10 LINE",
"130 -42 LINE SMOOTH",
"130 -64 OFFCURVE",
"120 -74 OFFCURVE",
"98 -74 CURVE SMOOTH",
"74 -74 LINE",
"74 -116 LINE",
"99 -116 LINE SMOOTH",
"150 -116 OFFCURVE",
"174 -92 OFFCURVE",
"174 -40 CURVE SMOOTH",
"174 43 LINE SMOOTH",
"174 75 OFFCURVE",
"149 100 OFFCURVE",
"117 100 CURVE SMOOTH",
"85 100 OFFCURVE",
"60 77 OFFCURVE",
"60 45 CURVE SMOOTH"
);
}
);
width = 234;
}
);
leftKerningGroup = period;
leftMetricsKey = period;
note = comma;
rightKerningGroup = period;
rightMetricsKey = period;
unicode = 002C;
},
{
glyphname = exclam;
lastChange = "2020-05-18 14:31:20 +0000";
layers = (
{
components = (
{
name = period;
}
);
layerId = "5117E3E8-E17C-4812-BAF5-9E7064564A59";
paths = (
{
closed = 1;
nodes = (
"85 230 LINE",
"213 230 LINE",
"213 700 LINE",
"85 700 LINE"
);
}
);
width = 298;
},
{
components = (
{
alignment = -1;
name = period;
}
);
layerId = "CEFBB1E5-951F-4065-926E-8B9137F837F5";
paths = (
{
closed = 1;
nodes = (
"86 170 LINE",
"148 170 LINE",
"148 700 LINE",
"86 700 LINE"
);
}
);
width = 234;
}
);
leftMetricsKey = period;
note = exclam;
rightMetricsKey = period;
unicode = 0021;
},
{
glyphname = exclamdown;
lastChange = "2020-05-18 14:31:23 +0000";
layers = (
{
components = (
{
name = period;
transform = "{-1, 0, 0, -1, 298, 496}";
}
);
layerId = "5117E3E8-E17C-4812-BAF5-9E7064564A59";
paths = (
{
closed = 1;
nodes = (
"213 266 LINE",
"85 266 LINE",
"85 -200 LINE",
"213 -200 LINE"
);
}
);
width = 298;
},
{
components = (
{
alignment = -1;
name = period;
transform = "{-1, 0, 0, -1, 234, 486}";
}
);
layerId = "CEFBB1E5-951F-4065-926E-8B9137F837F5";
paths = (
{
closed = 1;
nodes = (
"148 316 LINE",
"86 316 LINE",
"86 -200 LINE",
"148 -200 LINE"
);
}
);
width = 234;
}
);
leftMetricsKey = period;
note = exclamdown;
rightMetricsKey = period;
unicode = 00A1;
},
{
glyphname = question;
lastChange = "2020-05-18 14:31:26 +0000";
layers = (
{
components = (
{
name = period;
transform = "{1, 0, 0, 1, 130, 0}";
}
);
layerId = "5117E3E8-E17C-4812-BAF5-9E7064564A59";
paths = (
{
closed = 1;
nodes = (
"34 472 LINE",
"164 472 LINE",
"164 494 LINE SMOOTH",
"164 566 OFFCURVE",
"218 602 OFFCURVE",
"290 602 CURVE SMOOTH",
"360 602 OFFCURVE",
"406 568 OFFCURVE",
"406 510 CURVE SMOOTH",
"406 456 OFFCURVE",
"373 429 OFFCURVE",
"313 401 CURVE SMOOTH",
"296 393 LINE SMOOTH",
"234 364 OFFCURVE",
"209 322 OFFCURVE",
"209 254 CURVE SMOOTH",
"209 230 LINE",
"341 230 LINE",
"341 248 LINE SMOOTH",
"341 277 OFFCURVE",
"349 290 OFFCURVE",
"373 301 CURVE SMOOTH",
"390 309 LINE SMOOTH",
"460 342 OFFCURVE",
"536 390 OFFCURVE",
"536 510 CURVE SMOOTH",
"536 630 OFFCURVE",
"432 714 OFFCURVE",
"290 714 CURVE SMOOTH",
"146 714 OFFCURVE",
"34 630 OFFCURVE",
"34 492 CURVE SMOOTH"
);
}
);
width = 578;
},
{
components = (
{
alignment = -1;
name = period;
transform = "{1, 0, 0, 1, 163, 0}";
}
);
layerId = "CEFBB1E5-951F-4065-926E-8B9137F837F5";
paths = (
{
closed = 1;
nodes = (
"46 463 LINE",
"108 463 LINE",
"108 504 LINE SMOOTH",
"108 609 OFFCURVE",
"196 660 OFFCURVE",
"294 660 CURVE SMOOTH",
"391 660 OFFCURVE",
"471 609 OFFCURVE",
"471 518 CURVE SMOOTH",
"471 436 OFFCURVE",
"426 398 OFFCURVE",
"354 369 CURVE SMOOTH",
"322 355 LINE SMOOTH",
"265 331 OFFCURVE",
"249 304 OFFCURVE",
"249 245 CURVE SMOOTH",
"249 170 LINE",
"311 170 LINE",
"311 246 LINE SMOOTH",
"311 280 OFFCURVE",
"321 295 OFFCURVE",
"347 306 CURVE SMOOTH",
"379 320 LINE SMOOTH",
"464 355 OFFCURVE",
"533 408 OFFCURVE",
"533 518 CURVE SMOOTH",
"533 631 OFFCURVE",
"436 714 OFFCURVE",
"294 714 CURVE SMOOTH",
"150 714 OFFCURVE",
"46 640 OFFCURVE",
"46 505 CURVE SMOOTH"
);
}
);
width = 581;
}
);
note = question;
unicode = 003F;
},
{
glyphname = questiondown;
lastChange = "2020-05-18 14:31:29 +0000";
layers = (
{
components = (
{
name = period;
transform = "{-1, 0, 0, -1, 448, 496}";
}
);
layerId = "5117E3E8-E17C-4812-BAF5-9E7064564A59";
paths = (
{
closed = 1;
nodes = (
"544 28 LINE",
"414 28 LINE",
"414 6 LINE SMOOTH",
"414 -66 OFFCURVE",
"360 -102 OFFCURVE",
"288 -102 CURVE SMOOTH",
"218 -102 OFFCURVE",
"172 -68 OFFCURVE",
"172 -10 CURVE SMOOTH",
"172 44 OFFCURVE",
"205 71 OFFCURVE",
"265 99 CURVE SMOOTH",
"282 107 LINE SMOOTH",
"344 136 OFFCURVE",
"369 178 OFFCURVE",
"369 246 CURVE SMOOTH",
"369 266 LINE",
"237 266 LINE",
"237 252 LINE SMOOTH",
"237 223 OFFCURVE",
"229 210 OFFCURVE",
"205 199 CURVE SMOOTH",
"188 191 LINE SMOOTH",
"118 158 OFFCURVE",
"42 110 OFFCURVE",
"42 -10 CURVE SMOOTH",
"42 -130 OFFCURVE",
"146 -214 OFFCURVE",
"288 -214 CURVE SMOOTH",
"432 -214 OFFCURVE",
"544 -130 OFFCURVE",
"544 8 CURVE SMOOTH"
);
}
);
width = 578;
},
{
components = (
{
alignment = -1;
name = period;
transform = "{-1, 0, 0, -1, 417, 486}";
}
);
layerId = "CEFBB1E5-951F-4065-926E-8B9137F837F5";
paths = (
{
closed = 1;
nodes = (
"535 35 LINE",
"473 35 LINE",
"473 -6 LINE SMOOTH",
"473 -111 OFFCURVE",
"385 -162 OFFCURVE",
"287 -162 CURVE SMOOTH",
"190 -162 OFFCURVE",
"110 -111 OFFCURVE",
"110 -20 CURVE SMOOTH",
"110 62 OFFCURVE",
"156 98 OFFCURVE",
"227 129 CURVE SMOOTH",
"259 143 LINE SMOOTH",
"316 168 OFFCURVE",
"332 194 OFFCURVE",
"332 253 CURVE SMOOTH",
"332 316 LINE",
"270 316 LINE",
"270 252 LINE SMOOTH",
"270 218 OFFCURVE",
"260 203 OFFCURVE",
"234 192 CURVE SMOOTH",
"202 178 LINE SMOOTH",
"118 141 OFFCURVE",
"48 90 OFFCURVE",
"48 -20 CURVE SMOOTH",
"48 -133 OFFCURVE",
"145 -216 OFFCURVE",
"287 -216 CURVE SMOOTH",
"431 -216 OFFCURVE",
"535 -142 OFFCURVE",
"535 -7 CURVE SMOOTH"
);
}
);
width = 581;
}
);
unicode = 00BF;
},
